<?xml version="1.0" encoding="UTF-8"?>
<svg id="_レイヤー_1" data-name="レイヤー_1" xmlns="http://www.w3.org/2000/svg" version="1.1" viewBox="0 0 1000 1000">
  <!-- Generator: Adobe Illustrator 29.0.1, SVG Export Plug-In . SVG Version: 2.1.0 Build 192)  -->
  <defs>
    <style>
      .st0 {
        fill: #fff;
      }
    </style>
  </defs>
  <path class="st0" d="M500.3,80.3c.1-7.1.1-13.1-.2-14.4.4,0,1.5,0,2.1,0,1.4,0,2.7,0,3-.1-.2,1.8-.5,7.4-.6,14.5v8.8c-.2,6.3-.2,13,0,14.5-.4,0-1.4-.1-2.2-.1-1,0-2.5,0-2.9.1.2-1.7.5-8,.6-14.5v-8.8Z"/>
  <path class="st0" d="M514,71.3c1,.3,2.8.6,6.6.8l14.4.9c2.6.2,5.8.2,6.7,0-.3,1-.6,2.8-.8,4-.7-.5-1.9-.8-4.7-1.2-1.8-.2-3.7-.4-6.9-.6l-1.1,16.8c-.3,5.3-.5,10.9-.4,12.5-.4-.1-1.2-.2-1.9-.2-1.1,0-2.3,0-2.9,0,.3-1.5.8-6.8,1.1-12.3l1.1-17c-2-.1-3.1-.2-6-.3-3.1,0-4.7,0-6,.3.3-.7.8-2.8,1-3.8Z"/>
  <path class="st0" d="M563.2,97.6c0,0-.2,0-.2,0-1.9,3.4-4.7,8.1-5.6,9.9-.5-.2-.9-.3-1.9-.4-1-.2-2.1-.3-2.5-.3,1.5-2,3.7-5.4,6.3-9.3l12-18.9c.8-1.2,1.1-1.6,1.4-1.6.2,0,.4.4.8,2,.3,1.1,3,11.3,5.4,20.4,1.2,4.8,2.7,10.6,3.6,12.5-.8-.2-1.7-.4-2.2-.5-1.1-.2-2.5-.4-3.1-.4-.4-2-1.7-7.9-2.5-11.4q0-.1-.2-.1l-11.3-1.9ZM573.9,96.7c.1,0,.2,0,.2-.1l-3-12.6-6.6,11c0,0,0,.1,0,.2l9.3,1.6Z"/>
  <path class="st0" d="M593.7,94.1c2-7.5,2.5-10.9,2.7-11.9.4.2,1.4.5,2.1.7,1.1.3,3.8.8,6.7,1.6,5.7,1.5,11.5,3.9,14.7,9.1,1.6,2.7,2.6,6.5,1.3,11.6-1.3,5-4.5,8.3-7.5,10.1-2.7,1.5-7.4,3.2-14.8,1.2-1.8-.5-3.4-1-4.9-1.5-2.1-.8-3.7-1.4-5.7-1.8.5-1.7,1.7-5.4,3.3-11.5l2-7.5ZM596.1,101.2c-1.2,4.4-2,7.7-2.2,8.8-.3,1-.2,1.3-.1,1.5.6.6,2.8,1.8,6.2,2.7,3.4.9,6.9,1,9.9-.4,2.8-1.4,5.6-4.4,6.8-8.9.9-3.4.9-6.8-.5-10-2-4.1-6.5-6.7-11.8-8.1-1.6-.4-3.3-.8-3.9-.7-.2,0-.2,0-.3.2-.3.8-1.3,4.6-2.4,8.7l-1.6,6.2Z"/>
  <path class="st0" d="M631.8,104.8c2.7-7.3,3.6-10.6,3.8-11.6.4.2,1.3.6,2,.9,1.1.4,3.7,1.2,6.5,2.2,5.5,2,11.1,5,13.8,10.5,1.3,2.8,2,6.8.2,11.7-1.8,4.9-5.2,7.9-8.4,9.4-2.8,1.2-7.7,2.4-14.8-.2-1.7-.6-3.3-1.3-4.7-2-2-.9-3.5-1.8-5.5-2.3.7-1.6,2.2-5.2,4.4-11.2l2.7-7.3ZM633.5,112.1c-1.6,4.3-2.7,7.4-3,8.5-.3.9-.4,1.3-.3,1.4.5.7,2.7,2,5.9,3.3,3.3,1.2,6.8,1.7,9.9.5,3-1.1,6-3.9,7.6-8.2,1.2-3.3,1.6-6.7.4-10-1.6-4.3-5.8-7.3-11-9.2-1.5-.6-3.2-1.1-3.8-1.1-.2,0-.2,0-.3.2-.3.8-1.7,4.4-3.2,8.5l-2.2,6Z"/>
  <path class="st0" d="M659.1,130.6c.5,2,2.2,4.8,5.3,6.2,3.7,1.7,6.6.3,7.8-2.4,1.1-2.3.9-4.2-1.5-7.9l-1.4-2.2c-3-4.7-2.9-7.7-1.7-10.4,1.9-4.1,6.7-6,12.3-3.5,1.5.7,2.9,1.6,3.7,2.2,1,.7,1.6,1.1,1.9,1.3-.3.3-1.5,2.4-2.2,3.8-.3-1.2-1.7-3.5-4.8-4.9-3-1.4-5.7-.6-6.9,2-.9,2-1.1,3.6,1.4,7.6l1.4,2.1c3.4,5.3,3.3,8,1.9,11-.8,1.7-3,4.4-6.7,5-2.4.3-5-.3-7-1.3-2.6-1.2-5-3.1-5.9-4.6.4-.5,1.7-2.7,2.2-3.9Z"/>
  <path class="st0" d="M699.8,145c0,0-.2-.1-.2,0-3,2.5-7.3,5.9-8.7,7.4-.4-.3-.7-.5-1.6-1-.9-.5-1.9-1-2.3-1.2,2.1-1.4,5.4-3.8,9.1-6.5l17.9-13.5c1.2-.8,1.6-1.1,1.9-1,.2.1.2.5,0,2.1,0,1.2-1.2,11.6-2.1,21-.5,5-1.2,10.9-1,13-.7-.5-1.4-.9-1.8-1.2-1-.6-2.2-1.2-2.8-1.5.4-2,1.2-7.9,1.7-11.5q0-.1-.1-.2l-9.9-5.8ZM710.2,147.9c.1,0,.2,0,.2,0l1.6-12.9-10,8c0,0-.1.1,0,.2l8.2,4.8Z"/>
  <path class="st0" d="M743.9,147.1c.7.8,2,2,5.1,4.2l11.6,8.6c2.1,1.5,4.8,3.4,5.6,3.7-.8.7-2.1,2-2.8,3-.3-.8-1.2-1.7-3.4-3.5-1.4-1.2-2.9-2.4-5.5-4.3l-10,13.5c-3.2,4.3-6.3,8.9-7.2,10.3-.3-.3-.9-.8-1.5-1.2-.9-.7-1.9-1.4-2.4-1.6,1.1-1.1,4.4-5.3,7.6-9.7l10.1-13.7c-1.6-1.2-2.5-1.9-4.9-3.5-2.6-1.8-4-2.6-5.2-3,.6-.5,2.2-1.9,2.9-2.6Z"/>
  <path class="st0" d="M759.2,179.1c5.8-6.6,15.7-8.7,24.2-1.3,7.7,6.7,8,16.3,2.1,23-6.5,7.4-16.4,8.8-24.5,1.7-8.7-7.6-6.9-17.7-1.9-23.4ZM781.3,198.6c5.7-6.5,5.3-14.4-.2-19.3-5.5-4.9-12.6-3.8-17.8,2.1-5.7,6.5-5.8,14.5,0,19.6,3.9,3.4,11.2,5.2,18-2.5Z"/>
  <path class="st0" d="M803.9,197.9c.9.9,1.7,1.7,2.2,2.1-1.1.8-4.8,4.1-9.2,8.2l-4.3,4c-4,3.8-4.8,6.3-4.8,8.7,0,2.7,1.7,4.9,3,6.3,1.3,1.4,3.6,3,5.9,3.1,3.1,0,5.7-1.7,9.3-5.1l3.6-3.4c4.4-4.1,7.6-7.5,8.6-8.8.3.4.9,1.1,1.2,1.5.7.8,1.5,1.4,1.7,1.6-1.1.8-4.9,4-9.3,8.1l-3.6,3.4c-3.6,3.4-7.3,6.3-12.2,5.8-3.5-.4-6.1-2.6-8.1-4.7-2.2-2.3-4.2-5.4-4.3-8.7,0-2.9.9-5.9,5.4-10.1l4.9-4.6c4.4-4.1,7.9-7.8,8.6-8.8.2.4.8,1,1.3,1.5Z"/>
  <path class="st0" d="M808.8,245c.3-5.6,3.6-9.7,6.5-12,2.5-2,6.7-4.2,12-3.4,3.8.6,8,2.7,12.1,7.8,3.7,4.7,4.8,8.4,5.6,10.1-.9.3-2.6,1.3-3.8,2.2.3-2.5-.7-6.5-4.1-10.8-3.2-4.1-6.3-5.2-8.6-5.6-3.9-.6-7.2.9-10,3.1-5.3,4.2-8.7,12.4-1.8,21.1,2.4,3,5.1,5.3,7.8,6.1-1,.3-2.7,1.2-3.6,1.8-1.6-.9-4.5-3.4-6.9-6.4-3.7-4.6-5.4-9.1-5.2-14Z"/>
  <path class="st0" d="M841.7,262c5.1-3.3,8.8-5.9,10-7.1.2.5.7,1.3,1.1,1.9.6.9,1.3,1.7,1.6,2.2-1.4.8-4.9,2.9-10.1,6.2l-.6.4c-.1,0-.1.2,0,.2l10,15.4c0,0,0,.1.2,0l.6-.4c5.1-3.3,8.5-5.7,9.7-6.8.2.5.6,1.1,1.1,1.8.5.8,1.2,1.7,1.6,2.2-1.4.7-5.5,3.1-10.5,6.4l-6.3,4.1c-4.5,2.9-8.7,5.9-10.1,7-.2-.5-.7-1.3-1.1-1.8-.5-.8-1.4-2-1.6-2.2,1.5-.8,5.9-3.4,10.5-6.4l3.1-2c.1,0,0-.1,0-.2l-10-15.4c0,0-.1,0-.2,0l-3.1,2c-4.5,2.9-8.7,5.9-10.1,7-.2-.4-.6-1.1-1-1.7-.6-1-1.3-1.9-1.7-2.3,1.5-.8,5.9-3.4,10.5-6.4l6.3-4.1Z"/>
  <path class="st0" d="M864.7,307c8-3.8,17.9-1.9,22.8,8.3,4.4,9.2.9,18.1-7.1,21.9-8.9,4.3-18.5,1.7-23.2-8-5.1-10.4.6-19,7.5-22.3ZM877.4,333.6c7.8-3.7,10.5-11.2,7.4-17.8-3.2-6.6-10.1-8.5-17.2-5-7.8,3.8-11,11.1-7.7,18,2.2,4.7,8.2,9.2,17.5,4.8Z"/>
  <path class="st0" d="M886.6,345.4c6.4-2.5,10.2-4.1,11.3-4.8.2.8.6,1.8.9,2.7l3.7,9.7c.4,1.1,1.1,2.6,1.5,3.2-1.2.2-2.8.7-3.5,1,0-.6,0-1.3-.7-3.5-.4-1.3-1.5-4.3-2.8-7.7,0-.1-.2,0-.4,0-3.3,1.2-6.9,2.5-10.2,3.8-.2,0-.2.1-.1.2l2.6,6.8c.9,2.3,1.4,3,1.7,3.4-.6,0-2.6.7-3.6,1,0-.6,0-1.5-.5-3.1-.4-1.3-1.1-3.4-2.6-7.2,0,0,0,0-.2,0l-2.5.9c-3,1.1-10.2,4.1-11.4,4.8,0-.4-.2-.9-.7-2-.3-.8-.9-2.1-1.1-2.5,1.3-.3,6.1-1.9,11.7-4.1l7-2.7Z"/>
  <path class="st0" d="M910.3,375.9c.4,1.3.8,2.7,1.1,3.1-.8.4-2.6,1.5-5.7,3.9-5.1,3.7-10.5,8-16.2,12.3,5.9.9,14.4,2.3,20.5,2.9,4,.5,5.7.4,6.6.4,0,.5.2,1.2.3,1.6.4,1.3.7,2.3,1,3-1.1-.4-4.4-1.3-8.4-1.9-2.9-.4-5.2-1-10-1.7-6.7-1.1-10.8-1.7-14.7-2.4-2.2-.4-2.5-.6-2.5-.8,0-.3.2-.6,1.8-1.8,6.6-5.1,13-10.1,19.5-15.2,3.5-2.6,5.4-4.5,6.4-5.7,0,.8.5,2.1.5,2.3Z"/>
  <path class="st0" d="M907.3,413.7c5.9-1.2,10.8-2.4,11.9-2.9,0,.5.2,1.4.4,2,.3,1.4.6,2.4.7,2.8-1.5.2-6.2,1-12.1,2.2l-7.3,1.5c-5.2,1.1-10.8,2.3-12,2.9,0-.4-.2-1.3-.3-2.1-.2-1-.6-2.3-.7-2.7,1.5-.1,6.8-1,12.2-2.1l7.3-1.5Z"/>
  <path class="st0" d="M910.6,430.9c6-.9,10.5-1.8,12-2.3,0,.6.1,1.4.2,2.1.3,1.7.7,3.5,1.1,6.2,1.1,7.5-2.8,10-6,10.4-3.5.5-6-1.4-7.3-3.2-.5,3.9-2.7,7.7-7.4,8.4-4.9.7-10-2.4-11.2-10.1-.4-3-.5-5.3-.6-6.3,0-.7-.3-2-.4-2.7,1.8-.1,6.8-.6,12.2-1.4l7.4-1.1ZM907.1,444.8c.9-1.5,1-3.4.8-5.4,0-1.2-.4-3.3-.5-3.7,0,0-.1-.1-.2-.1l-3.5.5c-6.8,1-8.8,1.4-9,1.5-.3.5-.6,2.2-.2,4.7.5,3.6,3.1,6.7,7.5,6.1,1.8-.3,3.7-1.1,5-3.6ZM910.2,435.1c0,0-.1,0-.2.2,0,.8.5,4.3.6,4.9.1.8.2,1.2.6,1.7,1.3,1.5,3.4,2.1,5.2,1.8,3.5-.5,5.5-3.1,4.8-7.4-.2-1.4-.5-2.4-.6-2.6,0,0-.1-.1-.2-.1l-10.3,1.5Z"/>
  <path class="st0" d="M914.5,461.1c6-.4,10.8-.9,12.2-1.4,0,.9,0,1.5,0,2.2,0,.8.5,4.3.6,5.9.2,3.1,0,6-1,8-1.2,2.3-3.6,4.2-6.7,4.4-3.6.3-6.8-1.4-9.4-4.7-3.4,3-7.4,6.5-10.4,9.7-1.9,2-2.9,3.5-3.2,4.3-.3-.5-.5-1.9-.6-3-.2-2.2.3-3.3,1.9-5.1,2.2-2.6,7.8-7.1,10.2-9.2.2-.2.3-.3.3-.6l-.4-5.7c0-.1,0-.2-.2-.2h-1.3c-5.3.5-9.8,1-11.7,1.3,0-.4,0-1.3,0-2.1,0-.8-.2-2.3-.3-2.8,1.6,0,6.9,0,12.3-.5l7.5-.5ZM911.4,465.3c-.2,0-.3,0-.3.2-.1.9-.1,3,0,5.3,0,1.3.3,2,.7,2.5,1.3,1.7,3.6,3,6.5,2.8,4.5-.3,7-3.5,6.6-8.3,0-1.3-.2-2.6-.4-3.2,0-.1-.1-.1-.3-.1l-12.8.9Z"/>
  <path class="st0" d="M907.3,496.7c0-.1,0-.2,0-.2-3.6-1.4-8.7-3.4-10.7-4,.1-.5.1-.9.1-1.9,0-1,0-2.2-.1-2.6,2.2,1.1,6,2.8,10.2,4.8l20.6,8.9c1.3.6,1.8.9,1.8,1.1,0,.2-.4.4-1.8,1.1-1.1.5-10.7,4.7-19.3,8.5-4.6,2-10.1,4.3-11.8,5.5,0-.8.1-1.7.1-2.2,0-1.1,0-2.6,0-3.2,2-.7,7.5-2.9,10.9-4.2q.1,0,.1-.2l.2-11.4ZM909.9,507.2c0,.1,0,.2.1.2l12-4.9-11.9-4.8c0,0-.1,0-.2,0l-.2,9.4Z"/>
  <path class="st0" d="M895.8,526.2c0-.4,0-2.1,0-2.3,3.6.6,22.6,2.6,30.1,3.3,2.3.2,2.5.3,2.5.6,0,.2-.4.5-1.3,1.3-4.6,3.9-22.4,16.8-26,20.5,6.4.6,19.8,1.7,24.4,1.8,0,.3-.2,1.2-.3,1.8,0,.9-.1,2.1,0,2.5-2.5-.5-13.3-1.8-21.4-2.6-2.7-.3-6.9-.6-8.7-.8-2.2-.2-2.5-.3-2.5-.6,0-.3.6-.8,3.5-3.4,3.9-3.4,19.3-14.6,24.2-18.4-9-.8-21.4-1.9-24.8-1.8.2-.6.2-1.3.3-2Z"/>
  <path class="st0" d="M924.2,564.4c-.4,1-.9,2.7-1.6,6.4l-2.6,14.2c-.5,2.6-.9,5.8-.9,6.6-1-.4-2.7-1-3.9-1.2.6-.6,1-1.8,1.7-4.6.4-1.8.9-3.7,1.4-6.8l-16.5-3c-5.3-1-10.8-1.8-12.4-1.9.2-.4.3-1.2.4-1.9.2-1.1.4-2.3.4-2.9,1.4.5,6.7,1.6,12.1,2.6l16.7,3.1c.4-2,.6-3.1,1-6,.5-3.1.6-4.7.4-6,.7.4,2.7,1.2,3.7,1.4Z"/>
  <path class="st0" d="M885.9,607.2c4.8-3,10-2.6,13.6-1.5,3,.9,7.3,3,9.7,7.9,1.7,3.4,2.4,8.1.5,14.4-1.7,5.7-4.1,8.8-5.1,10.4-.7-.5-2.5-1.4-3.9-1.9,2.2-1.2,5-4.3,6.5-9.6,1.5-5,.7-8.1-.3-10.2-1.8-3.5-4.8-5.4-8.3-6.5-6.5-2-15.1,0-18.3,10.6-1.1,3.7-1.5,7.2-.6,9.9-.9-.6-2.6-1.5-3.5-1.9-.2-1.8.2-5.7,1.3-9.3,1.7-5.6,4.4-9.7,8.5-12.3Z"/>
  <path class="st0" d="M888.4,639.1c8.2,3.3,13.4,12,9.2,22.4-3.8,9.5-12.8,12.9-21,9.6-9.2-3.7-13.7-12.6-9.7-22.5,4.3-10.8,14.4-12.3,21.5-9.5ZM877.4,666.4c8,3.2,15.4.3,18.1-6.5,2.8-6.8-.5-13.2-7.9-16.1-8-3.2-15.6-.7-18.5,6.5-2,4.8-1.3,12.3,8.3,16.1Z"/>
  <path class="st0" d="M874.8,681.2c5.4,2.7,9.9,4.8,11.1,5.1-.3.3-.7,1.2-1,1.8-.5,1-1,2.2-1.2,2.7-1.4-.9-5.4-3.2-10.7-5.8l-6.5-3.3c-7.8-3.9-8.5-4.2-8.8-4-.2,0-.4.4-.7.8-.5.7-1.2,2.1-2.1,3.8-2.1,4.2-2.7,6.1-2.7,7.3-.6-.7-2.1-2-2.7-2.5,0-.2.2-.7,1.1-2.5,2.9-5.8,4.5-8.3,5.5-10.3.5-1,.9-1.7,1-2.2,1.3.8,5.5,3.1,10.9,5.8l6.7,3.4Z"/>
  <path class="st0" d="M861.4,699c7.6,4.6,11.3,14,5.5,23.6-5.3,8.7-14.7,10.7-22.2,6.1-8.5-5.1-11.5-14.6-6-23.8,6-9.9,16.2-9.9,22.7-5.9ZM846.1,724.2c7.4,4.5,15.1,2.7,18.9-3.5,3.8-6.3,1.6-13.1-5.2-17.1-7.4-4.4-15.3-3.2-19.3,3.4-2.7,4.4-3.2,11.9,5.6,17.3Z"/>
  <path class="st0" d="M841.2,738.6c4.9,3.6,8.8,6.3,10.2,6.8-.6.6-.9,1.1-1.4,1.7-.5.7-2.4,3.6-3.4,4.9-1.9,2.5-3.9,4.6-5.9,5.4-2.4,1-5.4.9-7.9-1-2.9-2.2-4.3-5.4-4.1-9.6-4.6.1-9.8.2-14.2.7-2.7.3-4.5.8-5.2,1.2.1-.6.9-1.8,1.5-2.6,1.3-1.8,2.3-2.3,4.8-2.7,3.3-.6,10.5-.3,13.7-.4.3,0,.4,0,.6-.3l3.4-4.6c0-.1.1-.2,0-.2l-1.1-.8c-4.3-3.1-8.1-5.7-9.7-6.6.3-.3.8-.9,1.3-1.6.5-.7,1.3-1.9,1.5-2.3,1.1,1.1,5.3,4.4,9.7,7.6l6,4.4ZM836,739.8c-.2-.1-.3-.1-.3,0-.7.6-2.1,2.2-3.4,4.1-.8,1-1.1,1.7-1.1,2.3,0,2.1.8,4.6,3.2,6.4,3.6,2.7,7.6,1.8,10.5-2.1.8-1.1,1.5-2.1,1.7-2.7,0-.2,0-.2-.2-.3l-10.4-7.6Z"/>
  <path class="st0" d="M825.2,779.7c-.9.6-2.2,1.8-4.8,4.6l-9.7,10.6c-1.8,1.9-3.8,4.4-4.2,5.1-.6-.9-1.8-2.3-2.6-3.1.8-.2,1.8-1,3.9-3,1.3-1.3,2.7-2.6,4.8-5l-12.4-11.4c-3.9-3.6-8.2-7.2-9.4-8.2.4-.3.9-.9,1.4-1.4.8-.8,1.6-1.8,1.9-2.2,1,1.2,4.8,4.9,8.9,8.6l12.5,11.5c1.4-1.5,2.1-2.3,4-4.5,2-2.4,3-3.7,3.5-4.9.4.7,1.7,2.4,2.3,3.2Z"/>
  <path class="st0" d="M791.7,791.6c6,6.5,7,16.6-1.3,24.2-7.5,6.9-17.1,6.2-23.1-.3-6.7-7.3-7-17.2.9-24.5,8.5-7.9,18.3-5,23.5.6ZM770.1,811.6c5.8,6.3,13.8,6.8,19.2,1.8,5.4-5,5.1-12.1-.3-17.9-5.9-6.3-13.9-7.3-19.5-2.1-3.8,3.5-6.4,10.6.6,18.1Z"/>
  <path class="st0" d="M741.4,829.5c.6.8,1.3,1.3,1.8,1.5,2.9,1.3,10.4,4.3,12.8,5.3,2.6.9,5.1,1.8,7.1,2.2-.5.3-1.1.7-2,1.3-.8.6-2.4,1.8-2.6,2.1-.8-.5-2.9-1.5-4.4-2.2-1.3-.5-10.8-4.6-12.2-5.1.3,3.4,1.2,11.6,1.4,13.8.1,1.1.4,3.1.7,4-.4.2-.9.6-1.3.8-1.2.9-2.1,1.6-2.3,1.9.1-1.3,0-4.8-.1-6.9-.2-2.3-.9-11.4-1.4-14.1-.2-.8-.3-1.4-.9-2.1-3.1-4.3-6.2-8.1-7.3-9.5.3,0,1-.6,1.7-1.1.6-.4,1.9-1.4,2.2-1.8.7,1.3,2.9,4.6,6.8,10Z"/>
  <path class="st0" d="M728.3,843.6c4.6,7.6,3.6,17.6-6,23.5-8.7,5.3-18,2.7-22.5-4.9-5.1-8.5-3.5-18.3,5.7-23.9,9.9-6.1,18.9-1.3,22.9,5.2ZM703.1,858.9c4.5,7.4,12.2,9.4,18.4,5.6,6.3-3.8,7.4-10.9,3.3-17.6-4.5-7.4-12.1-9.9-18.7-5.9-4.4,2.7-8.3,9.1-3,17.9Z"/>
  <path class="st0" d="M696.9,880.7c-1.2.6-2.2,1.1-2.6,1.4-.4-1.3-2.4-5.8-5-11.2l-2.6-5.3c-2.4-5-4.5-6.5-6.9-7.2-2.6-.7-5.1.2-6.9,1-1.7.8-4,2.5-4.7,4.7-.9,2.9,0,5.9,2.1,10.4l2.2,4.5c2.6,5.4,4.9,9.5,5.8,10.8-.5.1-1.3.5-1.8.7-.9.5-1.8,1-2,1.1-.4-1.3-2.3-5.9-5-11.3l-2.1-4.4c-2.2-4.5-3.8-8.9-1.8-13.4,1.4-3.2,4.3-5,6.9-6.3,2.8-1.4,6.4-2.3,9.6-1.5,2.8.8,5.4,2.6,8.1,8.2l2.9,6c2.6,5.4,5.1,9.9,5.8,10.8-.4.1-1.2.5-1.8.8Z"/>
  <path class="st0" d="M657.8,885.4c2.2,5.7,4,10,4.9,11.2-.8.2-1.4.4-2.1.7-.8.3-4,1.7-5.5,2.3-2.9,1.1-5.7,1.8-7.9,1.4-2.6-.5-5-2.2-6.1-5.1-1.3-3.4-.7-6.9,1.8-10.3-3.9-2.4-8.3-5.2-12.3-7.1-2.4-1.2-4.2-1.7-5-1.8.4-.4,1.7-1,2.7-1.4,2.1-.8,3.2-.7,5.5.4,3.1,1.3,9,5.4,11.8,7.1.3.1.4.2.7,0l5.4-2.1c.1,0,.2,0,.1-.2l-.5-1.3c-1.9-4.9-3.7-9.1-4.6-10.8.4,0,1.2-.4,1.9-.6.8-.3,2.1-.9,2.6-1.1.4,1.5,2.1,6.5,4,11.7l2.7,7ZM652.8,883.6c0-.2-.2-.3-.2-.2-.9.1-2.9.7-5.1,1.6-1.2.5-1.8.9-2.2,1.4-1.2,1.7-1.8,4.3-.8,7,1.6,4.2,5.4,5.7,9.9,3.9,1.3-.5,2.4-1,2.9-1.3.1,0,.1-.1,0-.3l-4.6-12Z"/>
  <path class="st0" d="M613.7,900.5c1.6,5.8,3,10.6,3.6,11.7-.4,0-1.4.3-2.1.4-1.1.3-2.3.7-2.8.9-.3-1.6-1.2-6.1-2.8-11.9l-1.9-7c-2.3-8.5-2.5-9.1-2.8-9.2-.2,0-.5,0-1.1,0-.8.1-2.4.5-4.2,1-4.6,1.2-6.4,2.1-7.3,2.8.1-.9,0-2.9.1-3.7.2-.1.6-.3,2.6-.8,6.2-1.7,9.2-2.2,11.4-2.8,1.1-.3,1.9-.5,2.3-.7.3,1.5,1.3,6.2,2.9,12l1.9,7.2Z"/>
  <path class="st0" d="M589,906.7c1.3,5.9,2.5,10.8,3,11.8-.5,0-1.4.2-2,.4-1.4.3-2.4.6-2.8.7-.2-1.5-1-6.2-2.3-12.1l-1.6-7.3c-1.1-5.2-2.4-10.8-3-11.9.4,0,1.3-.2,2.1-.3,1-.2,2.3-.6,2.7-.7.1,1.5,1.1,6.8,2.2,12.2l1.6,7.3Z"/>
  <path class="st0" d="M572,910c1.1,6.8,1.9,10.8,2.4,12-.8,0-1.9.2-2.9.4l-10.3,1.6c-1.1.2-2.7.5-3.5.8,0-1.2-.2-2.9-.2-3.7.6.2,1.3.3,3.6,0,1.4-.1,4.6-.6,8.1-1.1.1,0,.1-.2,0-.4-.5-3.5-1.1-7.3-1.6-10.8,0-.2,0-.2-.2-.2l-7.2,1.1c-2.4.4-3.2.8-3.6.9,0-.6-.1-2.7-.2-3.8.6.2,1.5.3,3.1.1,1.3-.1,3.5-.4,7.6-1.1,0,0,0,0,0-.2l-.4-2.6c-.5-3.2-1.9-10.8-2.3-12.1.4,0,1,0,2.1-.2.8-.1,2.3-.5,2.7-.6,0,1.4.7,6.3,1.6,12.3l1.2,7.4Z"/>
  <path class="st0" d="M547,913.6c.7,6.9,1.3,11,1.7,12.1-.6,0-1.9,0-2.8.2l-9.9,1c-.9,0-2.7.3-3.5.6,0-.8,0-2.3,0-3.8.6.3,1.5.4,3.7.4,1.4,0,4-.2,7.6-.6,0,0,.1,0,.1-.2l-1-10.5c0-.1,0-.2-.2-.2-.6,0-5.7.5-7,.7-2.3.3-3.3.5-3.8.7.2-1,.1-2.9,0-3.8.6.2,1.4.4,3.1.4,1.5,0,6.5-.5,7.4-.6,0,0,.1-.1.1-.2l-.3-2.8c-.8-8.2-1-9.3-1.2-9.5-.2,0-.6-.1-1-.2-1.1,0-2.5,0-4.3.2-4,.4-6,.9-7.2,1.6.3-1,.5-2.7.6-3.6.1,0,.6-.2,2.3-.3,6-.6,9.4-.7,11.2-.8,1.3-.1,2.4-.3,3-.4,0,1.5.2,6.3.8,12.3l.7,7.5Z"/>
  <path class="st0" d="M524.3,897.7c0,1.2-.6,2.8-2.5,2.9-1.5,0-2.7-1.1-2.8-2.6,0-1.6,1-2.8,2.5-2.9,1.8,0,2.7,1.3,2.8,2.6Z"/>
  <path class="st0" d="M454.8,917.3c-.8,7.1-1.4,13-1.2,14.3-.4,0-1.5-.2-2.1-.3-1.4-.2-2.6-.2-3-.2.4-1.8,1.2-7.3,2-14.4l1-8.7c.7-6.3,1.3-12.9,1.2-14.4.4,0,1.4.3,2.2.3,1,.1,2.4.2,2.9.2-.4,1.7-1.2,7.9-2,14.4l-1,8.8Z"/>
  <path class="st0" d="M439.9,924.8c-1-.4-2.7-.9-6.4-1.5l-14.2-2.4c-2.6-.4-5.8-.8-6.6-.8.4-1,.9-2.7,1.2-3.9.6.6,1.8,1,4.6,1.7,1.8.4,3.7.8,6.8,1.4l2.9-16.6c.9-5.3,1.7-10.8,1.8-12.4.4.2,1.2.3,1.9.4,1.1.2,2.3.3,2.9.3-.5,1.4-1.5,6.7-2.4,12.1l-2.9,16.8c2,.3,3.1.5,6,.9,3.1.4,4.7.5,6,.3-.4.7-1.1,2.7-1.4,3.7Z"/>
  <path class="st0" d="M393.8,893.3c0,0,.2,0,.2,0,2.3-3.1,5.6-7.5,6.6-9.3.5.2.8.3,1.8.6,1,.3,2.1.5,2.5.6-1.7,1.9-4.3,5-7.2,8.6l-14,17.5c-.9,1.1-1.3,1.5-1.6,1.4-.2,0-.3-.5-.6-2-.2-1.1-1.7-11.5-3.2-20.9-.7-4.9-1.6-10.9-2.2-12.8.8.3,1.6.6,2.1.7,1.1.3,2.5.7,3.1.7.1,2.1.8,8,1.3,11.6q0,.1.2.2l11,3.2ZM383.1,893.1c-.1,0-.2,0-.2.1l1.6,12.9,7.7-10.2c0,0,0-.1,0-.2l-9.1-2.6Z"/>
  <path class="st0" d="M363.2,893.4c-2.8,7.3-3.7,10.5-3.9,11.6-.4-.2-1.3-.6-2-.9-1.1-.4-3.7-1.2-6.5-2.3-5.5-2.1-11.1-5.1-13.6-10.6-1.3-2.8-1.9-6.8,0-11.7,1.9-4.9,5.3-7.8,8.5-9.3,2.9-1.2,7.7-2.4,14.8.4,1.7.7,3.3,1.4,4.7,2,2,1,3.5,1.8,5.4,2.4-.7,1.6-2.3,5.2-4.6,11.1l-2.8,7.3ZM361.5,886.2c1.6-4.2,2.8-7.4,3.1-8.5.4-.9.4-1.2.3-1.4-.5-.7-2.6-2.1-5.9-3.3-3.3-1.3-6.8-1.7-9.9-.7-3,1.1-6.1,3.8-7.7,8.1-1.3,3.3-1.6,6.7-.5,10,1.5,4.3,5.7,7.4,10.9,9.4,1.5.6,3.2,1.1,3.8,1.1.2,0,.2,0,.3-.2.4-.8,1.8-4.4,3.3-8.4l2.3-6Z"/>
  <path class="st0" d="M326.5,878.7c-3.5,7-4.7,10.1-5,11.1-.4-.2-1.3-.7-1.9-1.1-1-.5-3.6-1.6-6.3-2.9-5.3-2.6-10.5-6.1-12.6-11.9-1-2.9-1.2-6.9,1.1-11.6,2.3-4.7,6.1-7.3,9.4-8.4,2.9-.9,7.9-1.6,14.7,1.8,1.7.8,3.1,1.7,4.5,2.5,1.9,1.2,3.3,2.1,5.2,2.9-.9,1.5-2.8,4.9-5.6,10.6l-3.5,7ZM325.6,871.3c2-4.1,3.5-7.1,3.9-8.1.4-.9.5-1.2.4-1.4-.4-.7-2.4-2.3-5.6-3.9-3.2-1.6-6.6-2.4-9.8-1.6-3.1.8-6.4,3.2-8.4,7.3-1.6,3.2-2.3,6.5-1.5,9.9,1.1,4.4,5,7.9,9.9,10.4,1.5.7,3,1.4,3.7,1.5.2,0,.2,0,.3-.2.4-.7,2.2-4.2,4.1-8.1l2.8-5.7Z"/>
  <path class="st0" d="M302.1,850.2c-.3-2.1-1.7-5-4.6-6.8-3.5-2.1-6.5-1-8,1.6-1.3,2.2-1.4,4.1.6,8l1.2,2.3c2.5,5,2.1,8,.5,10.6-2.3,3.9-7.3,5.3-12.6,2.1-1.5-.9-2.7-1.9-3.5-2.5-.9-.8-1.5-1.3-1.8-1.5.4-.3,1.8-2.2,2.6-3.6.2,1.3,1.3,3.6,4.3,5.4,2.8,1.7,5.6,1.2,7.1-1.2,1.1-1.9,1.4-3.5-.6-7.7l-1.2-2.3c-2.8-5.6-2.4-8.3-.7-11.2,1-1.6,3.5-4,7.2-4.3,2.4,0,4.9.9,6.8,2,2.4,1.5,4.6,3.6,5.4,5.2-.5.5-2,2.5-2.6,3.7Z"/>
  <path class="st0" d="M263.1,831.4c0,0,.2.1.2,0,3.3-2.1,7.9-5.1,9.5-6.4.3.4.7.6,1.5,1.2.8.6,1.8,1.2,2.1,1.4-2.2,1.2-5.8,3.2-9.8,5.5l-19.2,11.5c-1.3.7-1.8.9-2,.8-.2-.1-.2-.5.2-2.1.2-1.1,2.4-11.4,4.4-20.7,1.1-4.9,2.3-10.7,2.4-12.8.7.5,1.3,1.1,1.7,1.4.9.7,2.1,1.5,2.6,1.8-.6,2-2,7.8-2.9,11.3q0,.1.1.2l9.2,6.8ZM253.2,827.4c-.1,0-.2,0-.2,0l-3,12.6,10.8-6.9c0,0,.1,0,0-.2l-7.6-5.6Z"/>
  <path class="st0" d="M219.6,824.6c-.6-.9-1.8-2.2-4.6-4.8l-10.6-9.8c-1.9-1.8-4.4-3.9-5.1-4.2.9-.6,2.3-1.8,3.1-2.6.2.8,1,1.8,3,3.9,1.3,1.3,2.6,2.7,5,4.9l11.4-12.4c3.6-3.9,7.2-8.2,8.2-9.4.3.4.9.9,1.4,1.4.8.8,1.8,1.6,2.2,1.9-1.2,1-4.9,4.8-8.6,8.8l-11.5,12.5c1.5,1.4,2.3,2.1,4.5,4,2.3,2,3.7,3,4.9,3.5-.7.4-2.4,1.7-3.2,2.3Z"/>
  <path class="st0" d="M207.7,791.1c-6.5,6-16.6,7-24.2-1.3-6.9-7.5-6.2-17.1.4-23.1,7.3-6.7,17.3-7,24.5.9,7.9,8.5,5,18.3-.7,23.5ZM187.8,769.4c-6.3,5.8-6.8,13.8-1.9,19.2,5,5.4,12.1,5.2,17.9-.2,6.3-5.9,7.3-13.8,2.1-19.5-3.5-3.8-10.6-6.4-18.1.6Z"/>
  <path class="st0" d="M165.3,767.6c-.8-1-1.5-1.9-1.9-2.3,1.2-.7,5.2-3.5,10-7.1l4.7-3.5c4.4-3.4,5.5-5.7,5.7-8.2.2-2.7-1.2-5-2.3-6.6-1.1-1.5-3.2-3.4-5.6-3.7-3.1-.3-5.8,1.1-9.8,4.1l-3.9,3c-4.8,3.7-8.4,6.7-9.5,7.8-.2-.5-.8-1.2-1.1-1.6-.6-.8-1.3-1.6-1.5-1.7,1.2-.7,5.3-3.4,10.1-7.1l3.9-3c3.9-3,8-5.5,12.8-4.4,3.4.8,5.8,3.2,7.5,5.5,1.9,2.5,3.5,5.8,3.3,9.1-.3,2.9-1.5,5.8-6.4,9.5l-5.3,4c-4.8,3.7-8.7,6.9-9.5,7.8-.2-.4-.7-1.1-1.1-1.7Z"/>
  <path class="st0" d="M165.5,720.3c-.9,5.5-4.6,9.3-7.8,11.2-2.7,1.7-7.1,3.5-12.3,2.1-3.7-1-7.7-3.5-11.2-9.1-3.2-5.1-3.9-8.9-4.5-10.7.9-.2,2.7-1,4-1.7-.6,2.4,0,6.6,2.9,11.2,2.8,4.4,5.7,5.9,7.9,6.5,3.8,1,7.3,0,10.3-2,5.8-3.6,10-11.3,4.1-20.8-2-3.3-4.5-5.9-7.1-6.9,1-.2,2.8-.9,3.7-1.4,1.5,1.1,4.2,3.9,6.1,7.1,3.1,5,4.4,9.7,3.7,14.4Z"/>
  <path class="st0" d="M134.6,699.8c-5.4,2.7-9.4,4.9-10.7,6-.1-.5-.6-1.3-.9-2-.5-.9-1.1-1.9-1.4-2.4,1.4-.6,5.2-2.3,10.8-5.1l.7-.3c.1,0,.2-.1.1-.2l-8.3-16.4c0,0,0-.1-.2,0l-.7.3c-5.4,2.7-9.1,4.8-10.4,5.7-.2-.5-.5-1.2-.9-1.9-.4-.8-1-1.8-1.4-2.4,1.4-.5,5.8-2.5,11.2-5.2l6.7-3.4c4.8-2.4,9.3-4.9,10.8-5.9.1.5.6,1.3.9,1.9.4.8,1.2,2.1,1.4,2.4-1.6.6-6.3,2.8-11.2,5.3l-3.3,1.7c-.1,0-.1.1,0,.2l8.3,16.4c0,0,.1.1.2,0l3.3-1.7c4.8-2.4,9.3-4.9,10.8-5.9.2.4.5,1.1.8,1.8.5,1,1.1,2,1.4,2.5-1.6.7-6.3,2.8-11.2,5.3l-6.7,3.4Z"/>
  <path class="st0" d="M116.6,652.6c-8.4,2.9-18,0-21.7-10.8-3.4-9.6,1.1-18.1,9.4-21.1,9.3-3.3,18.6.4,22.2,10.5,3.9,10.9-2.6,18.8-9.8,21.3ZM106.9,624.8c-8.1,2.8-11.7,10-9.3,16.9,2.4,6.9,9.1,9.5,16.6,6.9,8.1-2.9,12.2-9.8,9.6-17.1-1.7-4.9-7.2-10-16.9-6.6Z"/>
  <path class="st0" d="M99,612c-6.7,1.8-10.6,3-11.7,3.6-.2-.8-.4-1.9-.6-2.8l-2.7-10.1c-.3-1.1-.8-2.7-1.1-3.4,1.2-.1,2.8-.4,3.6-.6,0,.6-.1,1.3.3,3.5.3,1.4,1,4.5,1.9,7.9,0,.1.2,0,.4,0,3.4-.9,7.1-1.8,10.6-2.7.2,0,.2,0,.2-.2l-1.8-7c-.6-2.4-1.1-3.1-1.3-3.5.6,0,2.6-.4,3.7-.6-.1.6-.1,1.5.2,3.1.2,1.3.8,3.5,1.8,7.4,0,0,0,0,.2,0l2.6-.7c3.1-.8,10.5-3,11.8-3.5,0,.4.1.9.5,2.1.2.8.7,2.2.8,2.6-1.3.2-6.2,1.3-12,2.8l-7.3,1.9Z"/>
  <path class="st0" d="M78.8,579.2c-.2-1.3-.5-2.8-.7-3.2.9-.3,2.7-1.2,6.1-3.2,5.4-3.2,11.3-6.8,17.4-10.5-5.8-1.6-14.1-3.8-20-5.1-3.9-.9-5.6-1-6.5-1.1,0-.5,0-1.3-.2-1.6-.2-1.3-.4-2.4-.6-3.1,1.1.5,4.3,1.8,8.1,2.8,2.8.7,5.1,1.5,9.8,2.8,6.5,1.8,10.6,2.9,14.4,4,2.2.7,2.4.8,2.4,1,0,.3-.3.5-1.9,1.6-7.1,4.3-14,8.7-21,13-3.7,2.3-5.9,3.9-7,5,0-.8-.2-2.1-.3-2.3Z"/>
  <path class="st0" d="M85.9,541.9c-6,.6-11,1.2-12.1,1.6,0-.5,0-1.4-.1-2-.1-1.4-.3-2.5-.4-2.8,1.6,0,6.3-.3,12.3-.9l7.5-.7c5.3-.5,11-1.1,12.2-1.6,0,.4,0,1.4,0,2.1,0,1,.3,2.3.4,2.8-1.5,0-6.9.3-12.3.8l-7.5.7Z"/>
  <path class="st0" d="M84.4,524.5c-6,.2-10.7.7-12.2,1,0-.6,0-1.5,0-2.2,0-1.7-.3-3.5-.4-6.3-.3-7.6,3.9-9.6,7-9.7,3.5-.1,5.8,2,7,3.9,1-3.8,3.5-7.3,8.3-7.5,4.9-.2,9.7,3.4,10,11.3.1,3,0,5.3,0,6.3,0,.8,0,2,.2,2.7-1.8,0-6.8,0-12.3.1l-7.5.3ZM85.3,520.4c0,0,.1,0,.2-.2,0-.8,0-4.3,0-4.9,0-.8,0-1.2-.5-1.7-1.2-1.7-3.2-2.4-5-2.4-3.5.1-5.8,2.5-5.6,6.8,0,1.4.2,2.4.4,2.7,0,.1.1.1.2.1l10.4-.4ZM89.4,511.1c-1,1.4-1.4,3.3-1.4,5.3,0,1.2,0,3.4,0,3.7,0,0,.1.1.2.1h3.5c6.9-.4,8.9-.6,9.1-.7.4-.5.8-2.1.7-4.7-.1-3.6-2.3-7-6.8-6.8-1.8,0-3.8.7-5.4,3Z"/>
  <path class="st0" d="M83.7,494.1c-6-.2-10.8-.3-12.3.1.1-.8.2-1.4.2-2.2,0-.8,0-4.4,0-6,.1-3.1.6-6,1.8-7.8,1.4-2.2,4-3.8,7.1-3.6,3.6.1,6.6,2.1,8.8,5.7,3.7-2.7,8-5.7,11.3-8.5,2.1-1.8,3.2-3.2,3.6-3.9.2.6.3,2,.2,3,0,2.2-.6,3.2-2.5,4.9-2.4,2.4-8.5,6.2-11.2,8-.2.2-.3.3-.3.6l-.2,5.7c0,.1,0,.2.1.2h1.3c5.3.2,9.9.2,11.8,0-.1.4-.1,1.2-.2,2,0,.8,0,2.3,0,2.8-1.5-.3-6.8-.7-12.3-.9l-7.5-.3ZM87.3,490.2c.2,0,.3,0,.3-.1.2-.8.5-3,.5-5.3,0-1.3,0-2-.4-2.5-1.1-1.8-3.2-3.4-6.2-3.5-4.5-.2-7.3,2.7-7.5,7.6,0,1.3,0,2.6,0,3.2,0,.2,0,.2.3.2l12.8.5Z"/>
  <path class="st0" d="M94.7,459.4c0,0,0,.2,0,.2,3.5,1.8,8.3,4.3,10.2,5-.2.5-.2.9-.3,1.9-.1,1-.1,2.1-.1,2.5-2.1-1.3-5.6-3.4-9.7-5.7l-19.6-10.9c-1.2-.7-1.7-1-1.7-1.3,0-.2.4-.4,1.9-.9,1.1-.4,11.1-3.6,20.1-6.5,4.8-1.5,10.4-3.3,12.3-4.3-.1.8-.3,1.7-.4,2.2-.1,1.1-.2,2.5-.2,3.1-2,.5-7.7,2.1-11.2,3.1q-.1,0-.1.2l-1.3,11.4ZM93.2,448.8c0-.1,0-.2-.1-.2l-12.5,3.7,11.3,5.9c0,0,.1,0,.2,0l1.1-9.4Z"/>
  <path class="st0" d="M109.2,431.4c0,.4-.3,2-.3,2.3-3.5-1-22.1-5-29.5-6.6-2.3-.5-2.4-.6-2.4-.9,0-.2.5-.5,1.5-1.2,5-3.4,24.1-14.3,28.1-17.6-6.3-1.2-19.5-3.8-24.1-4.4.1-.3.3-1.2.5-1.7.2-.9.3-2.1.3-2.4,2.4.8,13.1,3.2,21,4.9,2.7.6,6.8,1.3,8.5,1.7,2.2.5,2.4.6,2.4.8,0,.3-.7.8-3.9,3-4.2,3-20.8,12.5-26,15.7,8.9,1.8,21.1,4.2,24.4,4.5-.2.6-.4,1.3-.5,1.9Z"/>
  <path class="st0" d="M85.2,390.3c.5-.9,1.2-2.6,2.3-6.2l4.1-13.8c.7-2.5,1.5-5.6,1.6-6.5.9.5,2.6,1.2,3.7,1.6-.7.5-1.2,1.7-2.2,4.4-.6,1.7-1.3,3.5-2.2,6.6l16.1,4.8c5.1,1.5,10.5,2.9,12.1,3.2-.2.4-.5,1.2-.7,1.8-.3,1.1-.6,2.3-.7,2.8-1.4-.6-6.5-2.3-11.7-3.9l-16.3-4.9c-.6,2-.9,3-1.6,5.8-.8,3-1.1,4.6-1,5.9-.6-.5-2.5-1.4-3.5-1.8Z"/>
  <path class="st0" d="M127.8,351.8c-5,2.4-10.2,1.5-13.7,0-2.9-1.2-6.9-3.8-8.8-8.9-1.3-3.6-1.5-8.4,1.1-14.4,2.3-5.5,5-8.3,6.2-9.7.7.6,2.3,1.6,3.7,2.3-2.3.9-5.4,3.7-7.5,8.8-2,4.8-1.6,8-.8,10.2,1.4,3.7,4.2,5.9,7.5,7.3,6.3,2.7,15,1.7,19.4-8.5,1.5-3.5,2.2-7,1.6-9.7.8.7,2.4,1.8,3.3,2.3,0,1.8-.8,5.6-2.3,9.1-2.3,5.4-5.4,9.2-9.7,11.3Z"/>
  <path class="st0" d="M128.8,319.9c-7.8-4.2-12.1-13.4-6.7-23.3,4.8-9,14.1-11.4,21.9-7.2,8.7,4.7,12.3,14,7.2,23.5-5.5,10.2-15.7,10.7-22.4,7.1ZM142.8,294c-7.6-4.1-15.3-1.9-18.7,4.5-3.5,6.5-.9,13.1,6.1,16.9,7.6,4.1,15.5,2.4,19.1-4.4,2.5-4.6,2.6-12.1-6.5-17Z"/>
  <path class="st0" d="M146.9,279.5c-5.1-3.3-9.3-5.8-10.5-6.3.3-.3.8-1.1,1.2-1.7.6-.9,1.3-2,1.4-2.5,1.3,1,5,3.7,10,7l6.1,3.9c7.3,4.7,8,5,8.3,4.9.2,0,.4-.3.8-.7.5-.7,1.4-1.9,2.5-3.5,2.6-4,3.3-5.8,3.5-7,.5.8,1.9,2.2,2.4,2.8,0,.2-.3.6-1.4,2.3-3.5,5.4-5.3,7.8-6.6,9.7-.6,1-1.1,1.6-1.2,2.1-1.2-.9-5.1-3.7-10.2-6.9l-6.3-4.1Z"/>
  <path class="st0" d="M162.1,263.3c-7-5.4-9.8-15.1-2.9-24.1,6.2-8.1,15.7-9,22.8-3.7,7.9,6,9.9,15.8,3.4,24.3-7,9.2-17.1,8.1-23.2,3.4ZM180,239.9c-6.8-5.2-14.8-4.3-19.2,1.5-4.5,5.8-3,12.8,3.3,17.6,6.9,5.2,14.9,4.8,19.6-1.3,3.2-4.1,4.5-11.5-3.7-17.8Z"/>
  <path class="st0" d="M186.5,226.1c-4.5-4.1-8-7.2-9.4-7.9.6-.6,1.1-1,1.6-1.6.6-.6,2.8-3.3,3.9-4.5,2.1-2.3,4.3-4.2,6.5-4.8,2.5-.7,5.5-.3,7.8,1.9,2.7,2.5,3.7,5.9,3,10,4.5.4,9.8.9,14.2.8,2.7,0,4.5-.3,5.3-.7-.2.6-1.1,1.7-1.8,2.4-1.5,1.6-2.6,2.1-5.1,2.1-3.4.2-10.5-.8-13.7-1.1-.3,0-.4,0-.6.2l-3.9,4.2c-.1.1-.1.1,0,.2l1,.9c3.9,3.6,7.4,6.5,8.9,7.6-.3.2-.9.9-1.5,1.4-.6.6-1.5,1.7-1.8,2.2-1-1.2-4.8-4.9-8.8-8.6l-5.5-5.1ZM191.7,225.5c.2.2.3.2.3,0,.7-.5,2.3-2,3.8-3.7.9-1,1.2-1.6,1.3-2.2.3-2.1-.3-4.7-2.5-6.7-3.3-3-7.3-2.6-10.6.9-.9,1-1.7,2-2,2.5,0,.1,0,.2.1.3l9.5,8.7Z"/>
  <path class="st0" d="M206.8,186.9c1-.5,2.4-1.5,5.2-4.1l10.8-9.5c2-1.7,4.3-4,4.8-4.7.5,1,1.5,2.4,2.3,3.4-.9,0-1.9.8-4.2,2.5-1.5,1.1-2.9,2.3-5.3,4.4l11.1,12.6c3.5,4,7.3,8.1,8.5,9.2-.4.2-1,.8-1.5,1.2-.9.8-1.7,1.6-2.1,2-.8-1.3-4.3-5.4-7.9-9.5l-11.2-12.8c-1.5,1.4-2.4,2.1-4.5,4.1-2.3,2.1-3.3,3.3-4,4.5-.3-.7-1.4-2.6-2-3.4Z"/>
  <path class="st0" d="M241.4,178.6c-5.3-7.1-5.2-17.2,3.9-23.9,8.2-6.1,17.6-4.3,22.9,2.8,5.9,8,5.2,17.9-3.5,24.3-9.3,6.9-18.7,3-23.3-3.1ZM265,161.1c-5.1-6.9-13-8.2-18.9-3.9-5.9,4.4-6.4,11.5-1.7,17.8,5.2,6.9,13,8.7,19.2,4.2,4.2-3.1,7.5-9.8,1.3-18.1Z"/>
  <path class="st0" d="M295.5,146.4c-.5-.9-1.2-1.5-1.7-1.7-2.7-1.6-9.9-5.4-12.2-6.6-2.5-1.2-4.9-2.4-6.8-2.9.6-.2,1.2-.6,2.1-1.1.9-.5,2.5-1.5,2.8-1.8.8.5,2.8,1.8,4.2,2.6,1.2.7,10.2,5.7,11.6,6.4,0-3.4,0-11.6,0-13.9,0-1.1-.1-3.1-.2-4,.4-.1,1-.5,1.4-.7,1.3-.7,2.3-1.4,2.5-1.6-.3,1.3-.5,4.8-.6,6.9,0,2.3-.4,11.4-.2,14.2,0,.8.2,1.4.6,2.2,2.7,4.6,5.3,8.7,6.3,10.2-.3,0-1.1.5-1.8.9-.6.3-2,1.2-2.4,1.5-.6-1.4-2.3-4.9-5.7-10.7Z"/>
  <path class="st0" d="M310,133.7c-3.8-8-1.7-17.9,8.5-22.7,9.2-4.3,18.1-.8,21.9,7.3,4.2,9,1.5,18.6-8.2,23.1-10.5,5-18.9-.7-22.2-7.7ZM336.7,121.3c-3.6-7.8-11.1-10.6-17.7-7.6-6.7,3.1-8.6,10-5.2,17.2,3.7,7.8,11,11.1,18,7.9,4.7-2.2,9.3-8.1,4.9-17.5Z"/>
  <path class="st0" d="M345.2,100.3c1.2-.4,2.3-.9,2.8-1.1.3,1.3,1.8,6.1,3.8,11.7l2,5.5c1.9,5.2,3.8,6.9,6.1,7.9,2.5,1,5.1.4,7-.3,1.8-.6,4.2-2,5.2-4.2,1.2-2.8.7-5.9-.9-10.5l-1.7-4.7c-2-5.7-3.8-10-4.6-11.4.5,0,1.4-.4,1.8-.5,1-.4,1.9-.8,2.1-.9.3,1.3,1.7,6.1,3.7,11.7l1.6,4.6c1.7,4.7,2.8,9.2.4,13.5-1.7,3-4.8,4.5-7.5,5.5-3,1.1-6.6,1.6-9.7.4-2.7-1.1-5.1-3.2-7.1-9l-2.3-6.3c-2-5.7-4-10.4-4.6-11.4.5,0,1.2-.3,1.9-.6Z"/>
  <path class="st0" d="M384.6,99.9c-1.5-5.9-2.8-10.4-3.6-11.7.8-.1,1.4-.3,2.2-.5.8-.2,4.2-1.3,5.7-1.7,3-.8,5.9-1.1,8-.5,2.5.7,4.8,2.7,5.6,5.8.9,3.5,0,6.9-2.9,10.1,3.6,2.8,7.7,6,11.5,8.4,2.3,1.5,4,2.2,4.8,2.3-.5.4-1.8.8-2.8,1.1-2.1.6-3.3.3-5.4-1-3-1.6-8.4-6.4-10.9-8.3-.2-.1-.4-.2-.7-.1l-5.6,1.5c-.1,0-.2,0-.2.2l.3,1.3c1.3,5.1,2.7,9.5,3.4,11.3-.4,0-1.2.2-2,.4-.8.2-2.2.6-2.7.9-.2-1.5-1.4-6.7-2.8-12l-1.9-7.3ZM389.4,102.2c0,.2.1.3.2.3.9,0,3-.4,5.2-1,1.3-.3,1.9-.7,2.3-1.1,1.4-1.6,2.3-4.1,1.5-6.9-1.1-4.4-4.7-6.2-9.4-5-1.3.3-2.5.7-3,1-.1,0-.1.1,0,.3l3.3,12.4Z"/>
</svg>