<?xml version="1.0" encoding="UTF-8"?>
<svg id="_レイヤー_1" data-name="レイヤー_1" xmlns="http://www.w3.org/2000/svg" xmlns:xlink="http://www.w3.org/1999/xlink" version="1.1" viewBox="0 0 280 290">
  <!-- Generator: Adobe Illustrator 29.0.1, SVG Export Plug-In . SVG Version: 2.1.0 Build 192)  -->
  <defs>
    <style>
      .st0 {
        fill: #38e7e9;
      }

      .st1 {
        fill: #fb4a5a;
      }

      .st2 {
        fill: #efb71a;
      }

      .st3 {
        fill: #edfbf5;
      }

      .st4 {
        fill: #f4506b;
      }

      .st5 {
        fill: #075b70;
      }

      .st6 {
        fill: #f2f7f3;
      }

      .st7 {
        fill: #fd2b60;
      }

      .st8 {
        fill: #129dc2;
      }

      .st9 {
        fill: #ef478c;
      }

      .st10 {
        fill: #24ebe3;
      }

      .st11 {
        fill: #06a2d4;
      }

      .st12 {
        fill: #046278;
      }

      .st13 {
        fill: #15a4cd;
      }

      .st14 {
        fill: #fd5264;
      }

      .st15 {
        fill: #8bad76;
      }

      .st16 {
        fill: #f1b11c;
      }

      .st17 {
        fill: #f75562;
      }

      .st18 {
        fill: #f7de7a;
      }

      .st19 {
        fill: #f39e9f;
      }

      .st20 {
        fill: #f8c722;
      }

      .st21 {
        fill: #e9630e;
      }

      .st22 {
        fill: #74a7b7;
      }

      .st23 {
        fill: #f7bd1b;
      }

      .st24 {
        fill: #1eeee3;
      }

      .st25 {
        fill: #1ed6d9;
      }

      .st26 {
        fill: #0f596c;
      }

      .st27 {
        fill: #efeee2;
      }

      .st28 {
        fill: #f24861;
      }

      .st29 {
        fill: #9ccc08;
      }

      .st30 {
        fill: #8eebe3;
      }

      .st31 {
        fill: #fc3657;
      }

      .st32 {
        fill: #36e9ea;
      }

      .st33 {
        fill: #f12e4f;
      }

      .st34 {
        fill: #8b2f63;
      }

      .st35 {
        fill: #0b5979;
      }

      .st36 {
        fill: #ecf0ec;
      }

      .st37 {
        fill: #78ecea;
      }

      .st38 {
        fill: #e12a26;
      }

      .st39 {
        fill: #8ec108;
      }

      .st40 {
        fill: #eed0c7;
      }

      .st41 {
        fill: #f6d02e;
      }

      .st42 {
        fill: #f67002;
      }

      .st43 {
        fill: #0fb6dd;
      }

      .st44 {
        fill: #fc2963;
      }

      .st45 {
        fill: #f5f6f0;
      }

      .st46 {
        fill: #37aec3;
      }

      .st47 {
        fill: #0c879b;
      }

      .st48 {
        fill: #d98d25;
      }

      .st49 {
        fill: #37f3ea;
      }

      .st50 {
        fill: #f0f2eb;
      }

      .st51 {
        fill: #07abdd;
      }

      .st52 {
        fill: #199eaa;
      }

      .st53 {
        fill: #eeb6a8;
      }

      .st54 {
        fill: #27e4e2;
      }

      .st55 {
        fill: #4d4568;
      }

      .st56 {
        fill: #bde9eb;
      }

      .st57 {
        fill: #ebeee6;
      }

      .st58 {
        fill: #ea660e;
      }

      .st59 {
        fill: #eaf2e6;
      }

      .st60 {
        fill: #f92a66;
      }

      .st61 {
        fill: #9f2131;
      }

      .st62 {
        fill: #27f0e7;
      }

      .st63 {
        fill: #f08d12;
      }

      .st64 {
        fill: #f67c03;
      }

      .st65 {
        fill: #33efe4;
      }

      .st66 {
        fill: #e98414;
      }

      .st67 {
        fill: #eb697b;
      }

      .st68 {
        fill: #074f64;
      }

      .st69 {
        fill: #f5f8f2;
      }

      .st70 {
        fill: #fd1450;
      }

      .st71 {
        fill: #055367;
      }

      .st72 {
        fill: #f7c724;
      }

      .st73 {
        fill: #fe1e58;
      }

      .st74 {
        fill: #085a6e;
      }

      .st75 {
        fill: #94d125;
      }

      .st76 {
        fill: #ef3253;
      }

      .st77 {
        fill: #fd5f0e;
      }

      .st78 {
        fill: #fc860f;
      }

      .st79 {
        fill: #f6265b;
      }

      .st80 {
        fill: #fe265c;
      }

      .st81 {
        fill: #32eae5;
      }

      .st82 {
        fill: #f1e3ab;
      }

      .st83 {
        fill: #f09813;
      }

      .st84 {
        fill: #14afda;
      }

      .st85 {
        fill: #fb5261;
      }

      .st86 {
        fill: #fe1556;
      }

      .st87 {
        fill: #f4b515;
      }

      .st88 {
        fill: #f0f3f0;
      }

      .st89 {
        fill: #f1f0e9;
      }

      .st90 {
        fill: #f1ca51;
      }

      .st91 {
        fill: #92c308;
      }

      .st92 {
        fill: #fa8d89;
      }

      .st93 {
        fill: #f63547;
      }

      .st94 {
        fill: #e93552;
      }

      .st95 {
        fill: #eb9412;
      }

      .st96 {
        fill: #fa6169;
      }

      .st97 {
        fill: #32c9ce;
      }

      .st98 {
        fill: #f63b61;
      }

      .st99 {
        fill: #0e6679;
      }

      .st100 {
        fill: #11a6cd;
      }

      .st101 {
        fill: #9fcc11;
      }

      .st102 {
        fill: #fa2d58;
      }

      .st103 {
        fill: #f5cd2a;
      }

      .st104 {
        fill: #fa6870;
      }

      .st105 {
        fill: #fd2c59;
      }

      .st106 {
        fill: #01c1f4;
      }

      .st107 {
        fill: url(#_名称未設定グラデーション_12);
      }

      .st108 {
        fill: url(#_名称未設定グラデーション_13);
      }

      .st109 {
        fill: url(#_名称未設定グラデーション_18);
      }

      .st110 {
        fill: url(#_名称未設定グラデーション_11);
      }

      .st111 {
        fill: url(#_名称未設定グラデーション_19);
      }

      .st112 {
        fill: url(#_名称未設定グラデーション_17);
      }

      .st113 {
        fill: url(#_名称未設定グラデーション_20);
      }

      .st114 {
        fill: url(#_名称未設定グラデーション_10);
      }

      .st115 {
        fill: #e03849;
      }

      .st116 {
        fill: #fb4e58;
      }
    </style>
    <linearGradient id="_名称未設定グラデーション_10" data-name="名称未設定グラデーション 10" x1="-736.9" y1="297.4" x2="-753.9" y2="395" gradientTransform="translate(314.7 -90.3) scale(.3)" gradientUnits="userSpaceOnUse">
      <stop offset="0" stop-color="#31dedd"/>
      <stop offset=".6" stop-color="#25e5e3"/>
      <stop offset="1" stop-color="#16b8de"/>
    </linearGradient>
    <linearGradient id="_名称未設定グラデーション_11" data-name="名称未設定グラデーション 11" x1="-225.2" y1="1034.1" x2="-206.7" y2="1131.4" gradientTransform="translate(314.7 -90.3) scale(.3)" gradientUnits="userSpaceOnUse">
      <stop offset="0" stop-color="#34dcdc"/>
      <stop offset=".6" stop-color="#26d7e2"/>
      <stop offset="1" stop-color="#1aafd2"/>
    </linearGradient>
    <linearGradient id="_名称未設定グラデーション_12" data-name="名称未設定グラデーション 12" x1="-176.3" y1="614.3" x2="-170.3" y2="711.1" gradientTransform="translate(314.7 -90.3) scale(.3)" gradientUnits="userSpaceOnUse">
      <stop offset="0" stop-color="#9dd719"/>
      <stop offset=".2" stop-color="#aadc29"/>
      <stop offset="1" stop-color="#9eba18"/>
    </linearGradient>
    <linearGradient id="_名称未設定グラデーション_13" data-name="名称未設定グラデーション 13" x1="-614.4" y1="534.3" x2="-625" y2="726" gradientTransform="translate(314.7 -90.3) scale(.3)" gradientUnits="userSpaceOnUse">
      <stop offset="0" stop-color="#fbcf33"/>
      <stop offset="1" stop-color="#f6a20e"/>
    </linearGradient>
    <linearGradient id="_名称未設定グラデーション_17" data-name="名称未設定グラデーション 17" x1="-552.2" y1="691.7" x2="-567.6" y2="795.6" gradientTransform="translate(314.7 -90.3) scale(.3)" gradientUnits="userSpaceOnUse">
      <stop offset="0" stop-color="#f95769"/>
      <stop offset="1" stop-color="#fb1453"/>
    </linearGradient>
    <linearGradient id="_名称未設定グラデーション_18" data-name="名称未設定グラデーション 18" x1="-327.2" y1="358.6" x2="-286.8" y2="465.2" gradientTransform="translate(314.7 -90.3) scale(.3)" gradientUnits="userSpaceOnUse">
      <stop offset="0" stop-color="#f3d244"/>
      <stop offset=".7" stop-color="#f6c018"/>
      <stop offset="1" stop-color="#f69401"/>
    </linearGradient>
    <linearGradient id="_名称未設定グラデーション_19" data-name="名称未設定グラデーション 19" x1="-390.3" y1="847.5" x2="-381.4" y2="887.6" gradientTransform="translate(314.7 -90.3) scale(.3)" gradientUnits="userSpaceOnUse">
      <stop offset="0" stop-color="#fab81d"/>
      <stop offset="1" stop-color="#fc7111"/>
    </linearGradient>
    <linearGradient id="_名称未設定グラデーション_20" data-name="名称未設定グラデーション 20" x1="-518.9" y1="805.4" x2="-534.4" y2="847.6" gradientTransform="translate(314.7 -90.3) scale(.3)" gradientUnits="userSpaceOnUse">
      <stop offset="0" stop-color="#fb406b"/>
      <stop offset="1" stop-color="#fd2562"/>
    </linearGradient>
  </defs>
  <path class="st12" d="M238.2,39.4c1.3,1.4,2.8,2.6,4.5,3.8,2.6,1.9,5.6,4.6,3.4,7.9.1,2.2-1.1,3.8-3.7,4.7.4.8.2,1.1-.6.6-1.2.9-2.2,2.1-3.1,3.3h-.8c0,0,0,.8,0,.8-2.2,2.5-4.2,5.6-4.3,9.1l-.6.6c0,.3-.2.3-.3,0l-.7-.4c.3-2.4-2.4,1.6-2.6,2.5-2.1,2.6-2.8-.2-1.6-2.2-.1-8.5,6.3-15.9,13.5-19.6.3-.3.5-.6.3-1.1-.9-1.7-10.7-8.4-12.9-9.5-10.2-5.1-18.2-9-29.5-11.5-22.3-4.9-47.4-2.8-68.3,5.7.3,0,.3.2,0,.3l-.3.6c-6.8,1.6-13.9,4.7-20.3,8-12.3,6.3-21.1,13.7-31.5,22.5-.2.2-.5.4-.8.5s-.6.3-1,.4c0,1.6-2,2.9-3.6,3.2l-.5,1.4c-3.8,3.9-7.1,8.2-10.5,12.5l-1.3.6-.2,1.3c-3.6,4.5-7.2,9.1-10.2,14.1l-1.2.7c0,1.7-.8,3.1-2.3,3.9.4,1.3-.6,3.2-1.9,3.6.1,2-1.3,4-2.9,5.2-.1.9-.3,1.9-.7,2.7-1.5,3.3-3.1,6.6-4.7,9.9s-1.1,1.6-1.7,2.3c-1.9,4.7-3.5,9.5-4.8,14.4l.4.4c18.5-4.5,38.1-3.8,56.9-2.8,4.6,0,4.4,2.9.2,3.3-1.3,2-3.3,2-5.3,1.1-.9,1.3-3.4,1.2-4.7,1-3.6.8-7.4,1.2-11,0l-1.2.4c-7.6.3-15.2.7-22.8,1.3s-24,3.1-29.4,13.2l-1,.6c-1.7,2.5-2.6-.7-2.2-2.5-1.9-.9-1-3.2.7-4,1.1-2.3,2.8-4.4,5.1-6.2,2.5-1.8,5.2-3.3,8.3-3.9,5.9-26.4,20.6-51,38-71.3,20.9-24.4,48.9-40.4,80-48.5,8.7-2.2,17.5-3.6,26.5-4.2.2-.8.5-1,.7-.2h2.5c22.4-.9,47.9,5.9,65.9,19.3Z"/>
  <path class="st71" d="M13.7,181.6l1,.5c1.4,2.2,3,4.3,4.8,6.2,1.1-.7,2-.9,2.6-.5.6,0,1.2.1,1.9.3,4.3-1.2,7.8,1.8,3,4.5-.4.7-.3,1.2.4,1.4,17,10,37.6,16.7,57.3,21.8,39.3,10.3,82.1,17.9,121.9,14.4,1.6.4,3.2.5,4.9.2,1-.7,2.3-1,3.9-.8,2.8-.1,2.7-.7-.2-1.7-2.2-.7-4.1-1.8-5.6-3.3-2.1-.2-4.8-1.3-6.7-2.4l-.4-.8c-.9-1.9-2.3-3.9-4-5.3-.3-1.7,1-2,2.4-1.5,0-.3.2-.3.3,0,.7.6,1.4.9,2.3,1,1-.6,2.5-.2,2.9,1,1.2.8,2.5,1.3,3.9,1.6.3-.3.6-.4,1-.4,2.8-.2,14.5,6.8,16.8,9.1,2.4-1.5,4.9-3,7.3-4.5l.4.3c.4-.4.7-.5.9-.2,2.2-3.7,3.8.9,3.3,3.2-2.3,2.4-5.4,4.9-8.4,6.5-12.9,6.6-38.7,6.3-53.1,5.8-35.1-1.2-70.2-7.8-103.9-17.6-19.4-5.7-52.7-15.9-64.3-33.1,0-1.2.3-2.2,1.6-2.3-.6-1.3-.2-1.9,1.1-2.2-.2-.8,0-1.4.8-1Z"/>
  <path class="st114" d="M80.3,14.2c4.6.4,12.5-1.4,11.6,5.7s-6.1,5.1-6.4,6.2c1.6,4.2,2.6,12.8-4.4,11.7s-4.9-4-6.8-3.9-5.9,6.2-10,3.2c-3.2-2.4-1.4-7.9-.6-11.1-.2-1-6.3-2.6-6.7-6.5-.7-6.6,7.1-4.8,11.3-5.5,1.1-3.7,1.9-10.5,7.4-9.1s4,6.5,4.5,9.2Z"/>
  <path class="st110" d="M250.2,252.6c3.3.3,9.4-1.1,10.5,3.2s-3.4,5.7-6,8c0,3.3,3.1,6.2,1.1,9.4-4,6.3-8.7-1.5-11.6-1.6s-6.5,6.6-10.7,2.9,1.6-8.3.7-11.1-6.4-1.7-6.1-6.9,10.5-3.1,11.3-4.4c0-2.9.6-8.7,4.1-9.3,5.4-.8,6,5.9,6.6,9.6Z"/>
  <path class="st107" d="M257.9,107.9c1,.3,1.7.8,2.3,1.6.7,1.2,1.2,2.4,1.9,3.6.7,1.2,1.6,1.5,2.9,1,5.6-3.2,12.3-1,8.4,6.1-.8,1-1.9,1.8-2.6,2.9s-.5.4-.6.9c-.6,3.3,5.5,6.5,2.2,10.9s-6.4.5-9.9.2-1,0-1.7.6-.2.2-.3.3c-.8.4-1.5,1.1-1.9,1.9-.5.5-1,1-1.6,1.6-5.2,5.5-7.9-3-6.8-7.4-.1-2,.2-2.2-1.6-3.2-.9-.2-1.8-.5-2.6-1-4.5-2.8-5.2-7.1.3-9.3s4.1-.9,4.9-1.6c1.4-1.3-.2-4.9,1.5-7.2s3.3-2.2,5.3-2Z"/>
  <path class="st47" d="M49.5,233.7c12.9-1.6,24.3,11.3,17.5,23.6s-36.7,8.3-30.9-12.1c1.6-5.7,7.5-10.7,13.4-11.5Z"/>
  <path class="st58" d="M10.8,17.8l.2.7c-1.5,1.5-.4,2.8,1.1,3.8,3.2,1.7,5.6,4.1,8.1,6.8,3.8,3.4,5.8,2,9.4-1,2.5-2.7,5.3-5.1,8.4-7.2h1c0-.5.1-.8.4-.3.5-4.1,3.2-1.6,3.8,1.1,0,1.2-.3,2.7-1,3.7-1.4,2.1-6,3.4-5.8,6.1s2.8,8.2-1.3,10.7-7.1-2.2-10.4-3.6c-3.2,1.8-7.2,6.5-10.9,3s.3-9.6-.8-11.5-4-2.7-4.8-3.6c-2.4-2.5-2.8-7.1.9-8.5s1.2-.1,1.8-.2Z"/>
  <path class="st2" d="M31.5,17.4c1.8.2,3.6.3,5.4.2,2.2,0,3.5,1.7,2,3.4-1.4,1.1-3.1,2.1-4.4,3.2-2.9,2.5-7.2,8.3-11.6,7.4s-2.6-1.7-2.9-1.9c-1.5-1.2-3-3.3-4.5-4.5-2.4-1.9-8.4-3.8-4.7-7.4.1,0,.4-.3.8-.3,1.4-.1,6.1.4,6.9-.4,1.7-1.7.2-9.6,6-10s4.5,8.2,7,10.4Z"/>
  <path class="st16" d="M207.9,260.7c1.5.7.8,2.7-.2,4.2s-8.6,7.8-9.4,8l-.7-.3c-3.8,4.9-7.7,1-10.3-2.7l-5.2-3.4c-2.1-1.4-3.5-3.6-1.3-5.5,2.4-.6,5-.3,7.4-.8,1.5-3.1,1-9.6,5.6-9.9s5.2,6.2,7.3,9.9l6.8.5Z"/>
  <path class="st21" d="M207.9,260.7c2.8.3,4.4,2.5,4.2,5.3s-6,5.5-6.4,7.2,1.1,4.2,1.2,5.5c.3,3.1-1.3,6.3-4.7,6.5s-5.7-3.8-7.3-3.8-4.2,2.9-5.9,3.5c-6.3,2.1-7.1-5.7-5.3-9.9h.7c1.1,4,3.9,4,8.5,0,2.4-.1,3.3-.6,4.7-2.4,2.1-1.4,8.8-6.8,10-8.6s.7-2.6.3-3.1-1.9.4-1.9-.3c.6,0,1.3,0,1.9,0Z"/>
  <path class="st26" d="M16.3,148.3c.6.1-.3.8-.5,1-1.2,1.1-3,2.2-3.7,3.8s-.3,1.8-.4,2c-.2.3-1.1,0-1.4,1-.7,2.3.6,1.4.8,1.7.4.4-.7,4.8,1.6,3.2.7.7.3,1.8-.6,1.9-.2.5,0,.9.3,1.2-1.7,5.5-1,11.2,1.4,16.3v1.2c-.7.2-.1,1-.3,1.3-.3.5-1.4.6-1.5.6-.1.2.6,1.1.2,1.6s-2,0-1.2,1.8l-1,.2c-8.8-13-6.7-29.4,6.1-38.8Z"/>
  <path class="st4" d="M30.8,73.3c-.7-.2-.8-.8-.2-2h-1.2c-5.5,2.7-10.5-.2-11.8-5.8,4.4-10.5,19.8-2.2,13.2,7.8Z"/>
  <path class="st91" d="M140.9,253.4c8-1.1,10.1,7.8,3.8,10.9s-13.8-9.5-3.8-10.9Z"/>
  <path class="st101" d="M9.6,101.2c.8-.9,2.9-.8,3.3-1.4.8-1.1-.4-3,2.3-3.5s4,1.1,5.3,3.6,1.3,1,1.2,2.6-1,2.8-1.7,4.1-.3,2.4-2.3,3.2c-3.6,1.5-3.6-2-5.1-3.2s-2-.5-2.9-1.6-1.1-2.7,0-3.8Z"/>
  <path class="st66" d="M180.7,261l.2.4c-3.1,3.7,4.9,6,7,8.3s2.4,4.1,5.2,4.5,2.4-.7,4-1.7.3.1.3.1c-.8,2.8-2.2,2.1-4.1,2.8-2.8,1-4.9,5-8.3,2.3s-1.2-1.9-1.4-2.9.2-1.2-.3-2.1-3.7-2.3-4.7-3.4c-2.6-2.9-2-7.4,2.1-8.4Z"/>
  <path class="st25" d="M52.7,46.3c9.3-1.6,8.7,11.8.9,11.8s-6.7-10.8-.9-11.8Z"/>
  <path class="st28" d="M104.5,256.5c-.1.3-.4.5-.7.5-2.6-1.8-5.7-2.9-9.1-3.3-2.3-.7-3-1.6-2.4-4,3.7-6.4,14.2-3.7,13.2,4.6s-.5,1.4-.9,2.1Z"/>
  <path class="st33" d="M20.4,219.1c5.7-.8,7,7.3,2.6,9.7-6.5,3.4-9.9-8.7-2.6-9.7Z"/>
  <path class="st93" d="M257.9,161.2c.8-.8,1-1.2,2.3-1.6,6.1-1.8,8.2,6.4,3.9,9.5-4.7,3.3-8.4-4-6.1-7.9Z"/>
  <path class="st98" d="M30.8,73.3c-1,1.5-1.6,2.2-3.4,2.9-4.7,1.7-9-.2-10.1-5.1-.2-1.5-.2-3,0-4.5.1-.5.2-.6.3-1,1.2,2.1,4.3,6.3,6.9,6.3s5.2-1.5,6.5-1.2-.3,1.9-.1,2.6Z"/>
  <path class="st94" d="M104.5,256.5c-.8,1.5-1.3,2.4-2.9,3.2-3.3,1.2-6.4.2-8.7-2.3-1.8-2.4-2.2-5.1-.6-7.8.6,2.5.6,2.9,3.1,3.5s4.2.8,6.2,1.5,1.8,1.6,2.9,1.8Z"/>
  <path class="st76" d="M261.7,221c8-1.8,7.3,9.8,1,8.9-4.8-.7-4.9-8-1-8.9Z"/>
  <path class="st29" d="M112.1,21.5c-2.9,2.6-8.5-.8-5.8-5.3s7.4-1.7,7.2,2.3-.9,2.6-1.4,3Z"/>
  <path class="st39" d="M261.3,189.7c3.5-3.9,10,2.9,4.7,6.2s-7.6-3-4.7-6.2Z"/>
  <path class="st75" d="M12.6,122.5c4.7-1.1,6.3,5.2,2.4,6.2s-5.7-5.5-2.4-6.2Z"/>
  <path class="st48" d="M43.1,21.6c-.7-1-1-2.2-2.1-2.9-.7-.3-1.2,1.9-1.5,2.2s-.5,0-.6,0c.8-5.4-5.8-2.1-7.4-3.6,3.6.2,11.5-1.3,11.6,4.2Z"/>
  <path class="st61" d="M101.6,259.7c-3.2,1.7-6.6.6-8.7-2.3l2.2,1.5,2.8,1,3.6-.2Z"/>
  <path class="st4" d="M17.2,71.1c-.4-2-.4-2.6,0-4.5v4.5Z"/>
  <path class="st74" d="M232.7,70.4c.6,4.5,1.7,8.9,3.5,13,1,1.2,1.7,2.5,2,3.8-.9.7-1.8.2-2.7-1.3-2.1.6-3.4.3-3.8-1.1-.7.2-1.3.3-1.9,0-1.1-2.1-2.2-4.3-2.3-6.8-7-.4-13.7,1-19.7,4.7.9,1.1,1.9,2.3,2.7,3.5,15.4,23.8,26.9,52.4,28.4,81l.3,3.6c0,1.5,0,3,0,4.5.3,2.1.3,4.3,0,6.5,0,2,.1,4-.3,5.9,12.3,10.3,11.5,26.4.9,37.7-.4-.5-1.1-3.7-1.3-3.9-.8-.6-1.4,1.1-1.8,1.3s-.9-.3-1.1-.3v-1.1c7.5-9.2,8.5-21.3-1.7-28.9-7.3-4.8-15-8.9-23.1-12.3l-1.3-1.3c-.7.8-1.8,0-1.6-1-.4-.3-.5-.9-.4-1.7-.8.3-1.7.4-2.5.4-.6.8-1.3.3-1.3-.6-.5-.5-.9-1.2-1.1-2.1-2,.4-3.5,0-2.9-2.4-2,0-2.6-.6-2-2.5-1.5,0-2.3-.6-2.4-1.8-1.7.4-2.6-1.5-.7-1.3,3.6.3,7.9,1.9,10.7,4.2.5.6,1.2,1.1,1.9,1,1-.7,4.3.6,4.2,1.9-.7.2-.2.4,1.6.6l1-.3c6.4,2.3,13.4,5.9,18.6,10.1h.4c0-2.6-.1-5-.4-7.4l.4-.4-.4-1c-.4-8.3-1.1-16.6-2.4-24.8l.2-1-1.1-2c-1.4-7.4-3.7-14.6-6-21.8v-1.2c-5.4-13.9-13.2-27.5-21.2-40.2-1.9-2.6,0-5.4,2.6-6.5,3.2-2.4,6.9-4.2,10.9-4.7l.7-.9c3.4-1,6.8-1.5,10.3-1.2.3-2.7.9-5.4,1.8-8l.8-.6c.5-1,.9-1.9,1.4-2.9h.5c.7-2.9,4.5-6.5,7-8.1l2.6-1.2c-3-3.1-6.7-5.5-10.5-7.7l-.8-1.2c-.3.4-.6.2-1-.6-.9.4-1.6,0-2.3-1.3h-1.1c-8.3-4-16.8-7.8-25.9-9.6l-1.8-1-1.2.4-8.8-1.3-1-.7c-2.5.8-6,.7-8.4-.3-1.7-.3-3.5-.3-5.2,0l-1,.5c-13.5.2-25.6,3.5-38.5,7.1-.8.2-1.6.2-2.4.2l-.3-.3c1.2-.3,2.2-1,3.3-1.4,30.5-10.7,66.8-9.1,95.1,7.2,1.9,1.1,12.7,8.5,13,9.9s-2.1,1.9-2.7,2.3-.4.8-.8,1.1c-6.1,4.9-9,7.3-10.2,15.6s.3,1,.2,1.5-.9,1.4-.6,2.3c.4,1.7,1.7-1.8,1.8-2s1.8-1.9,1.9-2c1.3-.4,1.1,1.2,1.1,1.9Z"/>
  <path class="st74" d="M274.7,69.8l.5.4c-.3,1.9-.4,3.8-.5,5.8-.8,6.3-3.3,10.2-7.4,14.9-1.1,1.1-2,1.3-2.8.4-1.3.2-2.6.2-3.9,0l-.4-.6.4-1.1c7.7-5.4,10.1-17.3,5.5-25.4l-.5-2-1-.3c-2.3-3.9-5.9-6.5-10.5-7l-1.1-.8-.5.5c-3.1-.3-6.1.3-9.1,1.7l-1-.3c.7-.7,2.5-1.9,2.7-2.3.4-.8.2-1.7.4-2.5s.9-1.3.8-2-.8-2.9-.9-3c-.5-.9-5.7-4.9-6.8-5.8s-1.2-.3-.3-.8c2.7,2,5.2,4.2,7.8,6.3s1.6,2.6,4,2.4c12.9-.6,23.7,8.5,24.7,21.6Z"/>
  <path class="st68" d="M229.8,85c.4-.6,1.8-.8,2.4-.7s0,1.1.7,1.3,1.8-.6,2.8-.3.7.9,1.1,1.3,1.1.4,1.4.6h1c6.2,4.7,13.2,6.4,20.3,2.7l.6.5c.8-.1,3.5.5,3.9,0s-.6-1.7.2-1.6,0,3.6,3.1,1.9c-11.2,12.4-30.2,8.7-37.5-5.8Z"/>
  <path class="st108" d="M89.3,81.4h17.8c.4-.2.9-.3,1.3-.4s.9-.2,1.3-.2c24.8.7,52.5,8.5,75.4,18.1.4.2.7.4,1.1.7s.7.6,1,.9c1.2-.5,2.7,0,3.2,1.3,1.5,1.3-.8,1.2-2,1h-.6c0,0,3.8,9.5,3.8,9.5l-.2,1.5c.2.2.4.3.6.5,1.3,1.5,1.8,9.1,1.8,11.5,0,6.7-2.1,13.3-4.2,19.6-.2,3.4-1.3,4.8-3.3,4.3-.2.6-.5.6-.6,0-15.4-6.1-31.1-11.9-47.3-15.7l-1.5-.8c-.7-.7,0-.5,0-.3s-.2,0-.3,0c-8.4-1.9-16.9-3.8-25.5-4.2l-1.3.2c-21.1-2.4-42.6-1.4-63.3,2.7-3.5.9-7.1,2-10.6,3.1-1.5.5-2.2.4-2.3-.2.3-2.2.9-4.4,1.9-6.5,2.2-5.1,4.6-10,7.1-14.9,1.7-1.8,3.4-3,5.8-3.6v-.8c1.3-1.6,2.7-3.3,3.9-5-.8-.7-.1-1.4.7-1.7,1.5-1.4,3-2.8,4.5-4.2l.3-.9c4-3.9,7.8-8,11.2-12.4l1.4-.9,1.1-.8c5.5-1,11.1-1.9,16.7-2l1.2.6Z"/>
  <path class="st96" d="M197.5,28.4c.7.3,1.3,1.4.6,1.9.5,1.3.9,2.5,1.2,3.7-2.3.9-2.4,1.2-3.3,3.5-2.2,1.8-3.4,2.9-4.4,5.6-1,3.6-2.2,7.2-4.1,10.3-1.7.7-3.4,1.3-5.1,1.8,0,.6,0,1.2.1,1.8h.8c1.4,2.1,6.6,10.1,6.6,12-.5,1.5-.5,2.8,0,4.1.9.3,1.2,2,.3,2.6l.7.8c.4,3.9.9,7.7,1.7,11.5l-.5.9v1.3c-3.5,1.5-4.3,5.3-4.2,8.7,0,1.1-.3,1.5-1,1.4-24.7-10.4-53.1-18.5-80.1-19.1h-17.8c-7.3.2-12.1,1.1-19.1,2.3-2.3,1.7-5.8,1.6-8.6,1.4l-.5-.8c4.2-5.3,7.4-9.6,12.3-14.5.9-.6,1.8-.6,2.9-.4,1.7-.6,3.4-1.1,5.2-1.6l.6-1c7.1-2.6,13-6.7,18.8-11.5h1.2c.8-.4,1.1-.3,1,.2l.3.7c-7.9,12.8,12.2,9.8,4.9-.4-.9-.3-1.4-.7-1.6-1.3-.4-.3-.4-.9,0-1.9,1.2-1.3,2.9-2,5.1-2.3,5.1-1.1,9.9-2.5,14.8-4.4,2.2-2.4,4.7-.9,5.7,1.6,1.1.3,1.3,1.4.6,2.3,1.1-.3,1.7.5,2.2,1.3-.4-2.3.3-4,2.6-1.9,1.2-4,4.2-.4,3.7,2.5-.6,1.4-.4,1.9.7,1.6-.9-3.3.8-3.4,3.3-1.9.5.2,1,.2,1.5,0,1.4-1.6,2.7-1.2,3.9,1.4,1.7-.9,3.5-1.3,5.3-1.1,1.2-1.4.9-5.5.7-7.3-3-2.4-6.1-4.7-9.1-6.9-.8-.6-1.9-2.3-1.5-3.2s8.8-4,9.7-4.1c1.5-.2,4,.9,2.1,2.5l.4.2c-1.8,10.5,13.7,4.1,4.8-1.1v-.7c-.2-.3-.2-.7,0-.7,2-.7,8.2-.4,8.4,2.6,1.3,1.5,2.5,2.9,2.6,5,.7-2,2.1-1.8,4,.5l.4-.2c-2.1-4.3.6-7.7,5.1-8.1.7-1.6,1.7-2.7,3-3.2,3.4.3,7.6,1,11,1.6Z"/>
  <path class="st99" d="M33.4,134.4c.6.4.3.6-.3.6l.4.3c-.6,2.1-1.3,4.3-2,6.5.5-.4.9-.4,1.3,0,.1-.2.2-.4.4-.4,3.1-.6,6.6-1.1,9.6-1.2,5.3-1.7,11.6-1.8,17.6-1.9,28.4-.1,55,2.9,82.5,9.8,8.8,2.2,18.3,4.6,26.7,7.7s2.3,1.1,3.3,1.8c6.7,1.8,13.4,4.4,19.7,7.4.6-.9,1.9,0,1.9,1l-.7.5c.4.3,1.8,0,1.9.2.4.4-.6,2.5,2.6,1.3.1.6-.6,2.6-.3,2.9s2,0,2.3.3-.9,1.9.2,2.2,2.8-1.5,3,2.6c-2.2.2-5.6-.9-7.1-2.6l-.9.3c-4.7-2.3-9.4-4.2-14.4-5.7l-.5-.8-2.9-.5c-16.9-6.3-34.4-11.1-52.1-14.6-1.1-.6-2.2-1.1-3.4-1.3-1.9.5-3.6.2-5.2-1h-1.3c-7.3-.7-14.7-1.8-21.9-3.2-3.9.2-8,.2-11.7-1-1.3.9-2.9.9-4.2,0-.3,0-.3-.2,0-.3,2,0,2.3,0,4-1s.2-.6.4-.7c1.4-.2,2.1,1.5,4.4,0s.4-.8,1-1.1c.7-.3,4.3-.4,2.2-2s-4.6-.3-6.3-.5c-16.9-1.3-34.8-1.3-51.1,2.6s-1.6.3-2.4.4c-.5-.5,3.8-12.5,4.5-14.1s.6-.8.7-1.1c-.6,2.1-1.2,4.4-1.9,6.5Z"/>
  <path class="st104" d="M173,26.5c1.7-.3,3.5-.3,5.2,0,2.8,0,5.6,0,8.4.3l-2.6,3.7c-1.1.9-3.6.5-4.3,1.5s-1.5,2.9-1.5,3.1c-.1,1.1,1.5,3.1.6,3.6-1.8,1.1-2.4-1.4-2.7-1.5-2-.7-1.6,3.7-1.4,3.8s2.6.2,2.6,1.1-2.4.6-2.9,1.3c-1.2,1.5.3,3.8-.1,4.4s-1.7.5-2.1.7-.2,1.5-.7,2-1.3.3-1.6.6c-.7.6,0,2.5-2.1,2.7-3.4.3-2.6-2-3.1-2.5s-.8,0-.9,0,.3-.8.3-1.1c0-.6-.3-1.1-.2-1.9.1-1.2,1.5-6.1,2.3-6.8,1.7-1.6,3-.2,3.7-.3s.6-.7,1-.8c1.8-.7,3.1-.3,2.7-3.1s-1.3-2.7-2.4-4.1-.7-1.7-1-1.9c-.7-.4-5.9-.8-6.9-.3l-.6.5c-1.5-.4-2.7.3-3.8,1.3l-.8-.2c0-.5.4-1,0-1.5l-2-.4-9.3,3.7c.4,2.8,3.2,3.5,5,5s3.5,3.7,5.8,4.5c0,2.5.4,5.1-.6,7.5s-1.8.6-2.8.7-2.5,1.2-3.4,1.2c-1.3-.1-1.2-2.2-1.7-2.3-1.1-.2-1.4.7-2,.9-2.2.7-2.7-1.1-4.6-.9,0,1.4,1.2,3.1-1.1,2.8s-.5-1.3-.6-2.4-.3-2.9-.4-3-1.2-.3-1.4-.7c-.6.3-.4,1.8-1,1.9-1,.3-1.6-1.7-2.3-.6s.4,2.2-.2,2.6c-1.1.7-1.2-1.6-2.4-1.3s.5,2.3-.6,2.3c-.8-.7-2.1-1.7-1.2-2.8s2,.2,1-2.4l.5-.6c5.4.5,9.7-6.9,3.3-9.4l-4.9-2.2-.2-.7v-.3c7.4-2.6,15.1-4.7,22.9-6s12.6-1.6,19.1-1.7Z"/>
  <path class="st10" d="M265.7,62c3,11.7-6.7,23.8-19.2,21.4s-14-6-13.5-13c-.2-4,2.2-7.9,4.8-10.7,2.1.3,3.8,1.1,5.5,2.6l.7-.3,3,1.6c4,1.4,9.6-5.5,5.7-8.9l.3-.8c6.3.6,9.3,2.8,12.6,8.1Z"/>
  <path class="st57" d="M131,34.6c.4,0,6.3,2.8,6.8,3.1,5.5,3.9-.6,11-5.5,9.8s-2.3-2.4-3.4-2.3-1.3,1-2,1.3c-6.3,3-13.4,3.5-20.2,6.2-.4,1.4-3.1,2.2-4.5,2.6-4.5,3.1-8.6,7.1-13.7,9.4s-4.5,2-7,3.2c-3.1,1.6-4.6,1.1-4.5-1.3,13.5-13.1,31.3-25,49.4-30.8s3.6-1.3,4.5-1.1Z"/>
  <path class="st36" d="M67,145.4c3.4,0,4,4.4,2.6,6.8.3.6-.1,1.1-.7,1.3l-2.9.6h-1.3c-.1.6-.3.5-.4,0-2.1,0-4.1.1-6.1.3-.2.8-.4.8-.9.2l-1.4-.2c-2.3,0-4.7.2-7.1.3-.8,1-3.9,1-4.8.3-3.9,1.3-8.2,1.6-12.4,1.8l-.6.7c-1.6,0-3.2.3-4.8.8l-.7.8c-4.5,1.2-8.7,2.9-12.7,5.2-.9.3-1.2-.2-.8-1.5.2-.6.4-1.4.6-1.9,5.1-10.9,17.2-12.8,28-14.2,8.9-1.1,17.4-1.2,26.3-1.3Z"/>
  <path class="st51" d="M260.2,90.5c-1.2.2-3.3,1.4-4.9,1.7-7.1,1.6-11.6-1.3-17.1-5-4.6-5-5.2-10.4-5.5-16.8h.3c.2,3.9,3.5,7.7,6.7,9.6,11.9,7.4,24.9.4,25.9-13.4s-.5-3.2,0-4.7c1.7,2.7,2.9,4.6,3.2,8,.8,8.2-1.6,15.8-8.7,20.5Z"/>
  <path class="st27" d="M70.2,83.7c-3.6,5.3-8.1,10-12.9,14.2-1.7,1.6-3.4,3.2-5.1,4.7-1,.3-3.3-1-2.7-2.1,3.9-6.4,7.1-10.4,11.6-16.2,2.7.7,6.2-.2,9-.6Z"/>
  <path class="st89" d="M253.1,53.9c2.4,3.9,2.7,4.4-.3,7.9s-5,2.8-9.4.5l-2.3-1.6c-3.3-.9-1.1-2.9.7-4.2.2-.2.4-.4.6-.6,3-1.3,6.2-2.4,9.5-2.3s.9.3,1.1.3Z"/>
  <path class="st37" d="M78,145.4v.3c-.2.6-1.6.3-1.6.3,1.3,0,2.3.5.9,1.3l.2.7c-1.2,1.2-1.1,3.1-.6,4.6l-.5.5h-.7c-1.1-1.2-4.2-2.8-5.3-.8h-.8c0-3,.5-5.6-2.6-6.9,3.7,0,7.3.1,11,0Z"/>
  <path class="st18" d="M48.3,109.5c-1.4,1.2-3.2,0-2.9-1.6.7-1.2,1.2-2.3,1.9-3.6.6-.3,1.6-.2,2.7.3.8-.7,1.5-1,2.1-.9-.5,2.1-2.4,4.3-3.9,5.8Z"/>
  <path class="st82" d="M57.3,97.9c-1.3,1.7-3,3.1-4.5,4.7s-.4.9-.6,1.1c-1.9,2.2-2.3,1.9-4.8.6.8-1.3,1.5-2.6,2.3-3.9,3,3.7,4.6-.3,6.9-2.3s.8-.3.8-.3Z"/>
  <path class="st90" d="M48.3,109.5c-1.6,1.5-1.9,1.3-3.5,2.2s-1.2,1.5-2.4,1.4c.9-1.8,1.9-3.4,2.9-5.2,1,.9,1.2,2,2.9,1.6Z"/>
  <path class="st19" d="M77,66.5c.9.4.6,1.5,1.6,1.8s1.7-.5,2.9-.5c-1.7.8-3.3,1.5-5.1,2.2l-3-.3c1.1-1.1,2.4-2.1,3.6-3.2Z"/>
  <path class="st30" d="M241.8,56.5c-3.5,4-1.2,2.8,1.6,5.8-.7-.3-2.2-1.4-2.6-1.5-.9-.3-3,.2-2.9-1.1,1.1-1.2,2.3-2.6,3.9-3.2Z"/>
  <path class="st35" d="M46,191.3l.6-.6c3.3.5,5.3-.3,8.1-2.1,2.2,0,3.8-.7,5-2.1,1.3-.8,9.3.3,9.6,1.2s0,.6-.2.8c3.1,1.1,4.9.5,7.7-1.1,1.5-.4,4.3,1.3,4.8,2.8,5.9.7,11.9,1,18,1l2.5.8c1.7-1.2,3.5-1.9,5.6-1.9,4,0,8,.7,12,1.4,23.2,4.6,46.3,10.1,68.7,17.7s.9.4,1.3.7.9.6,1.3.9c3.4.5,7.5,1.3,9.7,3.9-.5,0-1,0-1.4.4-1.3.9,0,1,.4,1.4.8,1,2,2.5,2.6,3.5s.4.9,0,1.5c-.8.4-1.8.4-3,0-9.8.8-20,1.1-30.5.4-24.5-1.7-49.6-6.3-73.6-12.2-16.5-4.1-32.7-8.7-47.7-16.6s-.6-.4-.8-.7-.5-.6-.7-.9Z"/>
  <path class="st8" d="M46,191.3c10.2,5.8,21.6,9.9,32.9,13.2,20.9,6.1,44.2,11.1,65.9,13.9,14.8,2,30.9,3.9,45.8,3,4.8-.3,6.8-1.7,11.8,0s4.9,2.3,7.1,3.2l-.2.7c1.8.8.9,2.1-.8,1.9,0,.1-1.3,2.1-1.3,2.2,0,.4,3.3.5,3.8.4l.4.6-14.7,1.3c-39.3.7-78.5-5.8-116.2-16.3-16.5-4.6-33-9.7-48.1-17.8s-5.8-3-6.5-3.9.4-1,1-1.1c0-.2.2-.4.4-.5,1.9-1.4,14.7-1.6,17.7-1.4l1,.6Z"/>
  <path class="st43" d="M235.6,222.6c-.5,0-6.3,4.8-7.9,4.8-3.2-2.9-7.6-5.3-11.6-7.1s-3.9-1.7-6-2.2c-1.4-.3-2.7-.9-3.9-1.6-1-.3-1.9-.6-2.9-1-.8,0-1.6-.4-2.3-1-.1,0-.2,0-.3,0-3.1-1.5-6.4-2.8-9.7-3.9,1.4-.7,3-1,4.9-1,15.7-1,18.4-17.3,13.4-29.5v-1.2c7.5,3.4,23.6,10.4,28.5,16.3s4.5,19.6-2.3,27.3Z"/>
  <path class="st24" d="M26.3,158.3c2.2-.8,3.9-.9,5-.5-1.1-1.2,2.8-1.4,3.1-1.1,1.3,1-.3,2.7-1.3,3.3.9,1.7,1.5,4.1,1.2,5.9.2.8,4.4,3.7,5.2,3.5,2.5-1.2,4.8-.4,6.1,1.9,1.4.2,2.4.9,2.9,2,6.1-.4,1.8,4.8-1.5,2.7-2.3-2.9-3.8-2.8-3.4,1.2,2.7,1.4.8,3.3-1.5,3.5l-1.3,1.2c-4.3,1.6-8.7,2.7-13.3,3.4v.3c0,.9-4.5,2.3-5,2.2l-.7-.3c-.8.3-2.2,1.4-2.9,1.1-2.1-2.4-4.1-4.5-5.5-7.3-3.1-6.2-3.8-12.2-1.6-18.7,0,.5-.4,1.2.7.8,1.8-.7,3.9-2.2,6-3s5-1.9,7.5-2.3Z"/>
  <path class="st5" d="M63.1,185.1l3.2.3c.4-.2.7-.3,1.1-.4s.8-.2,1.1-.2c10.7.2,22.2,2.1,32.8,3.8s.7.2,1.1.4.7.4,1,.6l3.8-.3c.3,0,.4.3.4.6l-3.6,1.4c-2,2.4-3.2.5-5.3.3-4.7-.4-9.6.3-14.7-.5s-2.6-.4-2.7-.5c-.7-.3-.5-1.1-1.1-1.6s-2.6-1.4-2.8-1.4c-.3,0-3.2,1.6-4.2,1.8-2.1.4-2.8-.5-4.1-.5s-1.8.7-2.7.1,0-.8.3-1c.8-.3,1.9.2,2.3-.5-2-.3-7.5-1.7-9.2-.6s-.6,1.1-1.2,1.3c-.9.4-2.4.2-3.6.6s-3.8,2.1-4,2.2c-.9.2-3.6,0-4.9,0-5.8,0-13.5-.2-19.1,1.3-.2-1.9,2.9-1.2,1.3-3.4s-4.9.8-6.2-1.4c1.7-.7,4.1-1.6,5.8-1.9,2-1.1,5-1.4,7.5-1.6,8-.7,18.3-.2,26.4.3l1.3.7Z"/>
  <path class="st84" d="M209.5,224.5c3.3,1.4,6.6,2.9,9.7,4.7-2.5,1-5.1,1.1-7.8,1.1s-6.1.4-4.5-1.8,1.2-.6.7-2.1h2.3c0-1-2.6-.7-2.3-1.5s1.4-.1,1.9-.5Z"/>
  <path class="st35" d="M210.1,218.1c-.5-.1-1.1.1-1.7,0s-1.8-1.2-2.2-1.5c1.3.5,2.8.7,3.9,1.6Z"/>
  <path class="st35" d="M203.3,215.5c-1,.5-1.8,0-2.3-1,1.1.1,1.6.7,2.3,1Z"/>
  <path class="st50" d="M49.1,239.5c10.1-1.6,18.6,9,11.4,17.5s-13.5,4.6-17.6-.8c-4.2-5.5-.8-15.6,6.2-16.7Z"/>
  <path class="st112" d="M185.6,149.6c.2,0,.4,0,.6,0,2.1.2,5.2,1.5,6.5,3.2,2.9,1.5,5.8,3,8.7,4.5.5,0,1.2,0,1.9.3,1.4-.5,4.3,1.5,4.5,2.9,8.8,4.4,17.1,9.9,25,15.6,0,2.4.2,4.9.2,7.3,0,.4.2.8-.5.6s-3.3-2.4-4.4-3.1c-4.2-2.4-10.7-5.6-15.2-7.3-.7,0-1.3-.3-1.6-.6-1.2-.9-2.8-1.3-4.2-1.9-.6.2-1.6-.4-1.9-1-3.5-1.5-7.1-2.8-10.7-4.2s-1.4-.8-1.9-1c-6.1-3-13.1-5.8-19.7-7.4-38.7-13.1-79-20.3-120-18.4-3.4.2-6.8.8-10.2,1l-.3-.3-9.7,1.5c-.7,0,.5-.5,0,.3-.1,0-2,1.6-2,.2s1.7-5.3,2.3-6.9c1-.1,2.2-.3,3.4-.6,3.7-1.6,7.4-2.4,11.2-2.6,12.5-3.4,26-4.3,39-4.3,34.5,0,68.1,9.3,99,22.1Z"/>
  <path class="st54" d="M203.7,176.1c.4.2.8.4,1.3.6,1.3-.3,2.2.1,2.9,1.3.4.2,1,.7,1.6,1,2.4,4.8,3,10,2.6,15.4s-3.1,11.2-7.6,13.4-8.9,3-13.4,2.9c-25.6-8.7-56.7-16.4-83.4-20.7-1.2-.2-2.9-.1-4.2-.3-.4-.9,4.4-1.7,4.7-1.6.6.2.9.4,1.3.9.9-.3,1.6,0,2.3.5,2.6-.8,5.1-1.1,7.7-.6l1.4,1.2c1.5-1.2,2.8-1.2,3.7,0,3.1,1.4,5.4,2.3,8.8,1.4,3.3,1.2,7.5.5,10.5-1.3,3.4-.3,7.8-.3,10.5,1.9,3.3.6,6.8.5,9.9-.8,1.1-.3,2.2-.2,3,.8,1.4-.8,2.7-.7,4.3-.3l.8-.9c1.4,0,2.4-.6,3.2-1.4,1.3-5.5,6.2-2.1,5,2.1.6,1.4,1.5,2.7,2.4,3.9-2.7-5.1-1.4-11.9,4.7-13.6-.1-1.5.2-2.8,1.1-3.7,0-2.4,3.1-7.2,4.2-2.7,1.6.3,3.2-.2,3.6-1.8,2.3.9,4.8,1.6,7.1,2.6Z"/>
  <path class="st64" d="M191.4,113.7c-.3-1.8.3-2.6,2.1-1.9,0-1.6-.1-3.2-.2-4.8,1,0,1.7-.6,2.1-1.4.3-.2.6-.4,1-.5s7,2.9,7.7,3.3c1.2.5,2,1.2,2.4,2.1,1.1-.1,2.1.1,3.3.8.5-.9,2,0,1.9,1,2.3,2.2-1,1.5-2.6.6-1,2.3-2.8,2-4.7.9l-5-3.3c-4.1-2.5-4.5-.5-3.3,3.4l3.5,9c1.3,3.3,1.7,6.1.4,9.4l2.9,3.4c0,1.4,0,2.7.3,4.1l.7.3c.6,2.1,2,3.8,3.8,5.1v.8c1.4,1,3.3.8,4.9.3,0-1,1.4-1.9,2.3-1.3,1.1-.7,2-1.7,2.5-3.1h.4s-.4,0-.4,0c.4-2.2.3-4.5-.2-6.7l.6-.5c0-1.8,2.3-.7,3.1.4.5-1.1,1.6-8.2.8-8.6-1.3,0-1.8-.5-1.8-1.5v-4.2c-1-.8-1.8-2.6,0-2.6.2,0,.4,0,.6.3,1.4,1.4,2.1,3.6,2.6,5.5,3.3,7.9,5.4,16.5,7.1,24.9,0,.7-.1,1-.6.8-.4-1.1-4.5-6-5.8-5.3-.2,1.4-1.3,2.2-2.7,1.8-.3,1-1.1,1.5-2.4,1.5.3.2-1,3-1.1,3.1-.7.4-1,.3-1.6,0-1.4,1-3.9,1.4-5.5,1-1.2,1.9-2.7,1.8-4.2.3-.4.7-1.1.9-1.7.4-.9-1.8-1.7-.4-2.4,4h-.8c-.1.5-.4.5-1,.1-2.7-1.1-5.4-2.4-8.1-3.9-2.2-1-4.5-2-6.5-3.2,2.7-.3,2.1-2.5,2.8-4.8,3.8-11.3,5.8-19,2.3-31.1Z"/>
  <path class="st109" d="M226.3,39.1c.2.3.6.8,1.3,1.4-.6,1.8-.3,3.2,1.2,4.3.2,1.6.5,3.1.8,4.7.7.8,1,3.3.3,4.2.1,1.4.4,5-.8,5.8l-18.9-.3-.6-.4c-1.2-3.5-2.3-7-3.2-10.6l-1-.9-2.5-6c-1.9-3.6-3.4-7.2-4.6-10.8-.3-.6-.9-1-.6-1.9,10.1,1.9,19.7,5.8,28.8,10.7Z"/>
  <path class="st42" d="M201.7,156.7c.9-1.4.3-6.4,3-5.5s.5.9.5.9c.7.5.7-.8,1.1-1,1.1-.4.6.6.9.9s1.6.7,1.7.7c.5,0,1.1-1.4,1.7-1.5s.8.3,1.2.2c.7,0,3.4-.5,3.8-.8s.2-1.7,1-1.1.1,1.2,1,1c-.4-1,1-1.7,1-1.8,0-.4-.4-.8,0-1.3.8-1,2.8.3,2-2.1.8.1,1.4.6,2.3.2,1.4-.7-.1-2.6,2.9-1.3s2.1,1.7,3.3,3.2,1.7.6,1.3,2.3l.3-.8c1.9,9.2,2.6,17.3,2.6,26.8h-.5c-7.8-5.4-16-11-24.7-15.2-1.5-.9-2.7-2-4.5-2.9-.5.1-1.7-.4-1.6-1Z"/>
  <path class="st77" d="M206.2,48.1c1.2,3.4,2.1,7,3.4,10.4l19.3.3c.5-.1.8-4.4.8-5.2.2,0,.4,0,.4.2.9,1.5.2,6.8-1.1,8.2-.7,3.1-2,6.2-1.9,9.4-4-.6-7.8.2-11.6,1.3-.8.2-1.4.2-1.9,0-2.1-3.9-3.9-8.8-5-13.2-.5-1.1-.6-2.3-.5-3.6-1-.2-1.1-.7-.3-1.3-1.2-.4-2.3-4.6-2.2-5.8l.6-.7Z"/>
  <path class="st7" d="M231.1,59.1c-.3,0-.6,0-.6-.2-.3-5.8-.6-11.8-1.3-17.6l.3-.3c3.1,1.9,6.2,3.7,9,6s2.9,2.6,2.9,2.9c0,.9-2.2,1.2-2.9,1.6-2.1,1.3-6,5.5-7.5,7.6Z"/>
  <path class="st55" d="M215.6,72.7c-4.3,1.2-10,3.2-12.7,6.8s-.9,3.6.5,6.2c2.4,4.5,6,9.1,8.6,13.7s5.6,11.1,8.2,17,3.1,4.8,3.1,7.7c-.8-1.8-1.8-3.6-2.6-5.5l-1.8-2.4c-5.1-10.9-10.9-21.4-17.2-31.6l-.4-1.5c-1.4-1.5-2.7-3-3.9-4.6.7-2.6,3.8-3.1,6-1.4l1.2.2c.6-1.5,2.7-2.3,4.2-2.9.3-1.1,4-2.6,4.8-1.6.6-.1,1.3,0,1.9,0Z"/>
  <path class="st86" d="M233.1,175.7c0,2.4.2,5.4,0,7.8-.9-1.4.2-6.1-.5-7.1s-1-.3-1.3-.6c-7.1-5.9-15.6-10.3-23.4-15.2,1.4.4,3.1,1.2,4.4,1.9,4.3,2.4,9.5,5.6,13.6,8.3s4.6,3.7,7.1,5Z"/>
  <path class="st103" d="M228.5,40.4c1.2,2.3,1.3,5.9,1.3,8.6s-.2.3-.3.4c-1.1-.8-.4-2.2-.7-3.3s-1.9-2.2-2-2.8c-.4-1.3.3-1.9.2-2.8s-1.5-.5-.7-1.4c.8.4,1.5.8,2.3,1.3Z"/>
  <path class="st38" d="M229.5,41l1.6,18.1c-.6.9-1,2.3-1.9,2.9.6-2.7,1.6-5.6.6-8.4,0-1.6-.2-2.8-.3-4.2-.2-3-.1-6.3-1-9,.4.3.7.5,1,.6Z"/>
  <path class="st99" d="M207.9,178c-1-.4-1.9-.9-2.9-1.3,1.9-1.5,4-1.8,2.9,1.3Z"/>
  <path class="st99" d="M211.4,173.2c.8,0,1.1.4,1.6.6h-3.2c-.3-.9,1-.7,1.6-.6Z"/>
  <path class="st96" d="M178.1,26.5c-1.7,0-3.5,0-5.2,0,1.3-.5,3.8-.5,5.2,0Z"/>
  <path class="st99" d="M207.2,171.2l-.2.6c-.6-.7-1.8-.5-1.8-1.6.8.3,1.3.7,1.9,1Z"/>
  <path class="st81" d="M121.3,97.9c3.3-.7,6.4.6,8.5,3.2s2.6,3.8,1.9,5.2c0,1.4-.4,2.1-1.6,1.1-2.5,6.4-9.4,7.7-14.4,3.2-1.9,0-2.8-.8-2.7-2.3,0-5.2,2.8-9.8,8.4-10.3Z"/>
  <path class="st32" d="M168.4,109.5c1.6-.3,4,0,4.8,1.3,2.1,1.1,2.9,2.3,2.4,3.5.7,1.8.8,3.5.3,5.2l-.8.3c1,1.8-2.2,3.7-3.8,4.3-2.9,1.1-4.2.6-6.8-.6s-4.7-2.4-4.3-6.3c.8-3.8,4.1-7.3,8.1-7.8Z"/>
  <path class="st0" d="M78,96.3c.8.4,2.7,1.6,3,2.4s-.2,7.6-.6,8.2-.6.2-.9,0c0,1.8-3.4,2.5-5,2.6-3,.3-4.5-.8-6.7-2.5-1.6-.4-2-1-1.8-2.6.6-3.9,1.9-6.9,5.8-8.2s4.1-1.3,6.1.2Z"/>
  <path class="st13" d="M112.9,108.2c.3,2,1.5,1,3,1.7s2.5,2.2,5.1,2.7,8.8-2.8,8.4-6.6c1.1.6,1.6,2.4,2.3.3,1.3,1.5.4,4.7-.6,6.5-.1.3-1.4,2.4-1.6,2.6.4,1.2-2.9,2.7-4.1,3.1-3.2.9-7.7.3-9.8-2.4-1.5-3.2-2.6-3.9-2.6-7.8Z"/>
  <path class="st11" d="M175.2,119.9c.7,0,1.2-.4,1.5-1.3,3-2.4,1.9,4.6,1.1,6.1.3,0,.3.2,0,.3-.9,3.4-5.9,5.5-9.3,5.2s-6.2-1.7-6.6-4.2c-1.7-2.2-2.1-6.1-1.6-8.7.8.8,0,2.4.5,3.2s5.4,3.3,6.2,3.5c3.1.6,7.1-1,8.2-4.1Z"/>
  <path class="st100" d="M79.6,106.9c1-.4,4.2.6,2.9,1.9,0,1.3-1.4,3.2-2.6,3.9-.5.7-1.2,1.1-2.3,1.3-.5,1.4-3.8,1.5-5.2,1.3s-3.6-.8-3.9-2.6c-2.5-2.3-3.1-5.2-2.6-8.4,0,1.9,1.4,1.6,2.2,2.1s2.4,2.1,3.8,2.3c2.4.4,5.7-.2,7.5-1.9Z"/>
  <path class="st14" d="M110.9,128.6c8.7.7,17.5,1.9,25.8,4.5,16.7,3.8,33.1,9.7,48.8,16.5-2.8,0-6.6-2.4-9.3-3.4-41.3-15.6-84.5-23.8-128.6-14.3-.5,0-1-.1-1.3-.3,4.3-1.1,8.7-2,13.1-2.5,16.5-2.1,35.1-2.2,51.5-.4Z"/>
  <path class="st116" d="M196.5,104.3c-2.1.1-4.8-.9-6.1-2.6-1-.5-2.2-.8-3.2-1.3.7-1.2,0-2.7.4-4s.8-2.6,1-3.5c.7-2.4,2.9-2,3.7-3.9l1,1.3,3.5,13.2-.2.7Z"/>
  <path class="st78" d="M196.5,104.3c0-.1.2-.2.3-.3.6-.3,12.3,5.9,12.7,6.7s.1.4.2.7c-.4,0-2-.3-2.4-.3s-1.4.4-1.4.3,0-.9-.2-1.3-1.5-1.2-1.8-1.4c-1.7-1-3.3-1.4-5.2-1.9s-.6-1.1-2-1-.8,2-3.1,1.5c.5,2.1.7,3.6.3,5.8-1.6-1.1-2-1.5-2.6.6-1-3.5-3.2-7.3-4.2-10.8,0-1.2,1.6-.7,2.3-.7s1,.7.9-.4c2,.9,4.1,1.7,6.1,2.6Z"/>
  <path class="st63" d="M178.5,129.2c-3.4,4.4-11.2,5.4-15,1s-2.3-3.1-1.4-4.2c.2.2,1.7,1.6,2,1.8,5.1,3.6,10.2,1.7,13.9-2.7,1.1.9,1,2.9.6,4.2Z"/>
  <path class="st95" d="M129.4,115.3c1.2-.3,1.1.5,1,1.5-.6,4.2-8.5,5.3-11.6,3.5s-2.3-2.4-3.3-4.3c3.2,1.7,6.3,2.9,9.9,1.7s3.6-1.9,4-2.3Z"/>
  <path class="st83" d="M68.6,112.7c2.8,2.5,5.7,2.2,9,1.3,1-.3,1.8-.7,2.6-1.3,0-.3.4-.6.6-.3,2.3,2.7-4,5.5-6,5.5s-7.3-2.7-6.3-5.2Z"/>
  <path class="st97" d="M79.6,96.9c4.3,1.5,5.7,8,3.6,11.6-.1.5-.3.8-.6.3,0-1.5-2.1-.9-2.9-1.9,1.4-1.3.1-6.2.9-8.2,0-.3-2.1-2.2-2.5-2.5.6.1,1.1.3,1.6.6Z"/>
  <path class="st46" d="M178.5,123.4c0,.2-.2.7-.3,1,.4.5.2.6-.3.3,0-1.6.4-1.8.6-3.1s.3-3.5-1-2.9-1,3.1-2.3,1.2c1.1-3.3-.3-4-.2-5.7s.5-.5.5-.9c0-.9-1.6-1.9-2.2-2.5,1.6,0,3.3,2,4.2,3.3,1.7,2.6,2.6,6.5,1,9.3Z"/>
  <path class="st23" d="M110.9,128.6c8.3,0,17.3,1.7,25.4,3.9s1.1-.4.5.6c-8.4-1.9-17.4-3.6-25.8-4.5Z"/>
  <path class="st41" d="M131,112.7c1-2.1,1-4.2.6-6.5-.8-5.1-4.9-8.9-10.3-8.4,7.6-2.7,14.6,8.8,9.7,14.9Z"/>
  <path class="st72" d="M178.5,123.4c1.3-4.9-.4-10.5-5.2-12.6s-3.1-1.5-4.8-1.3c4.5-1.5,9.4,3.3,10.6,7.3s1.2,5-.6,6.6Z"/>
  <path class="st41" d="M83.2,109.2c-.6,0-.4-.3,0-.6.1-.8.6-1.5.6-2.4.4-3.8-1-7.1-4.2-9.2,1.4-.6,2.9,1.4,3.5,2.5,1.8,3,1.8,6.9,0,9.8Z"/>
  <path class="st31" d="M46.3,131.5c.4,0,1.1-.1,1.3.3-1.4.3-3.2.4-4.6.7-3.2.8-6.6,3-10,2.5,0-.3.3-.5.3-.6.3.6,1.1.2,1.5,0,3.5-.9,7.9-2.8,11.4-3Z"/>
  <path class="st87" d="M178.1,124.4c.4-.2.9-.8,1,.2.1,2.4.8,2.8-.6,4.7-.4-1.4-.6-2.7-.6-4.2s0-.2,0-.3c0-.1.3-.2.3-.3Z"/>
  <path class="st41" d="M107.1,81.4c-5.8-.1-11.9-.1-17.8,0h17.8Z"/>
  <path class="st15" d="M83.2,109.2c-.5.9-1.5,2.5-2.3,3.2s-.5.2-.6.3h-.3c1.2-1.1,1.8-2.5,2.6-3.9s.5-.2.6-.3c0,.2,0,.4,0,.6Z"/>
  <path class="st73" d="M194,74.3c.3.1.5.5.6,1l1.1.5c1.8,2.6,3.5,5,5.6,7.2,7.4,11.6,13.9,22.9,19.4,35.5-.3,0-.4-.1-.6-.3l-1.1-.2c-1.9-1.9-4.2-3.4-6.7-4.6,0-.4-.3-.7-.6-1-.6-.3-1.4-.8-1.9-1-3.6-2.7-8.1-4.4-12.3-6.3s-.8-.7-1-.8c-.4-.5-.5-.9-.6-1.5-.9-4.7-2.5-9.1-3.6-13.7s-1.5-9.3-1.9-13.2c.2-1.4,2.5-3.4,3.6-1.6Z"/>
  <path class="st1" d="M206.2,48.1c0,2.2,1,4.4,1.6,6.5l-.2.5c-4.4.3-8.5,1.1-12.5,2.4-1.1,1.6-2.2,2.3-3.4,2.1l-4.4-2.1c-2.3-1.3-3.9-1.4-4.8-.3-.2-.5-1.2-1.5-.6-2.2s4.7-1.3,5.3-2,.4-1.3.8-1.8c2.4-4,2.2-8.2,4.7-11.4s2.2-1.8,2.8-2.5.9-2.5,1-2.6c.2-.2,2.3-.4,2.5-1.2s-1.7-2.1-1-3c3.2,6.4,5.6,10.8,8.1,17.8Z"/>
  <path class="st79" d="M208.2,55.9l-.5.6c-1.7,0-3.8.1-5.1,1.4-2.2,2.5-4.1,4.5-7.5,5.2.3.7.7,1.5,1.1,2.3-.2,3.7.7,5.1,3.1,7.7l-.5.6-.3.3c-2.9-1.4-4-1.2-3.3.8l-.5.6c-.2-.3-.4-.5-.6-1l-.8-.4c-.1-3.6-2.6-6.3-2.4-1l-.6.4c-1.2-.7-.5-2.8-.6-4-.3-3-5.2-8.7-6.8-12.1-.4-1.8,1.1-1.4,2.3-1.2,2,.3,7.1,3.2,7.5,3.2.9,0,1.3-1.3,2-1.9,2.9-2.4,9.8-1.9,13.4-2.6.1.4.2.9.3,1.3Z"/>
  <path class="st3" d="M106.7,54.6c4.1.4,5.2,6.3,2.4,9-4.1,3.9-9.5,1.3-8-4.5.2-.7,1.6-3.2,2-3.6-.2-1,3.2-2.3,3.6-1Z"/>
  <path class="st59" d="M163,31c2.1.6,4.2,2.8,3.3,5.1-1.3,3.4-6,4.3-8.1,1.2s-.5-2.9-.3-4.7c1.7-1.5,2.8-2.3,5.2-1.6Z"/>
  <path class="st70" d="M194,74.3c-2.2-.6-2,1.2-3.6,1.6-.1-.9-.3-1.6-.3-2.6,0-1.4-.2-2.5.6-3.8s-.1-.5.5-.4c3,.8,1.7,2.9,2.8,5.1Z"/>
  <path class="st115" d="M106.7,52.7h1s-1,1.9-1,1.9c-.8,0-3,.5-3.6,1l-1-.3c1.8-1.3,2.4-1.7,4.5-2.6Z"/>
  <path class="st62" d="M66.4,154.1c1.7-.7,3.5-.8,5.4-.3,1.5-.5,3-.6,4.3-.2,1.5,1.6,3.4,2.7,5.6,2.5s5.9-1.9,6.1-2.2c.4-2.9,2.1-2.7,2.9-.2l.9,1,.7-.3c1.6,1,3.8,1.6,5.4.2l.7.2c2.2-.2,2.6,3.3.2,3.9-18.1-.3-10.8,26,4.3,16.2.9-1.4,1.8-2.8,2.6-4.2l.4-1.2c-.3-3.8.4-5,2.2-3.4.8.2,1.6-.1,2.6-.9l2.1.3c.4-1.8,1.2-2.9,3.1-3.5.3-2.8,1.2-4.6,3.6-1.7l.3-.2c-1.3-1.5-1-2.1.9-3.2-.2-2.3,3.1-2.4,4.4-1,2.7,1,3,1.1,4.9,3.4,4.2-2,6.7-2.1,5.5,3.5-2.2,2.8-1.9,4,1.1,3.5,3-1,7.4.9,3,3.2-12.4,13.9,13.4,25.2,13.7,5.9-1.8-3.7-4-10.4,2.4-10.5,3.5,1.8,5.8,2.4,9.8,1.9,2.8,1.4,5.6,1.8,8.2,1.2,1-2.3,1.2-2.4,3.6-1.3l3.5.6c4.6.8,11.4,4.3,15.8,6.1,1.4,2.1-3.2,3.1-4,2.3s-.2-2.3-1.4-1.6-1,1.3-1,1.4c0,.4.8,1,.6,1.9s-.5.7-.8.2.3-.8.2-1c-.9-.9-.7,1.3-.7,1.4-.1.4-.7.6-.8,1.1s-.2,2.6-.5,2.9-2.6,1.1-3.5,1.8c-2.8,2.5-2.9,7.2-1.4,10.5s1.4,1.6,1.4,2.6c-1.1,1-4.7-4.8-4.8-5.7s.4-1.3.2-2.1-1.2-2.2-1.7-2.2c-2-.2-1.7,1.7-2.3,2.6-.9,1.4-2.3,1.4-3.5,1.6s-.3.8-.7.9-1.9-.5-3.1-.2-1.2.9-1.4.9c-.3,0-.8-1.2-1.6-1.2-1.5-.1-2.6.7-3.6.9-1.7.3-6.3.5-7.9,0s-.9-.9-1.5-1.1c-2.1-.7-6.4-1.2-8.6-.8s-.9.7-1.4.9c-1.8.6-5.1,1.2-7,1.1s-1.6-.6-2.2-.6c-1.1,0-2.9.6-4.1.5s-3.9-1.5-4.9-1.9-.7-.8-1.1-.9c-.9-.3-1.6,1-2.5.9s-1.3-1.4-2.3-1.5-4,.4-5.2.5-1.5.5-2,.6-.1-.7-.8-.8-1.3.3-1.6.1,0-.8-.9-.9l-4.7,1c-12-1.8-25-4-37.2-4.2l-3.2-.3c-10.9,0-24.7-1.6-35.2.6-1,.1-.7-.4-.1-.6,2.3-1.1,5.3-.9,7.6-1.7s4.3-1.3,5.1-1.7.8-1,1.5-1.4c1-.5,2.8-.1,2.4-1.8s-.9-.4-1.2-.8c-.5-.9-.2-3.5.8-4,1.9-.9,2.8,2.3,4.4,2.4s2.9-.7,2.7-1.5c-.7-1-2.1-.2-2.9-.6s-.4-.9-.8-1.1c-.6-.5-1.5-.4-2.1-.8s-.6-.9-1-1.3c-2.9-2.5-3.6,0-5.6-.5s-1.3-1-1.9-1.4c-1-.6-2.9-1.3-3.1-2.7s.3-1.4.2-1.8-.4-.7-.5-1.1c-.3-1.4.1-2.2-1.4-3.2,2.6-1.7,3.5-3.5-.7-3.1-.1.7,1.4,0,1,.8-.8,1.7-2.2-.1-2.8-.2s-1,.6-1.6.7-1.3,0-1.8,0c5.7-2.1,11.8-2.8,17.8-3.2l-.2.7c-2,.1-.9,1.7-.1,2.8,2.5-1.7,6.1-3.3,9-1.6,1.9-.5,2.6,0,3.2,1.8,1.5-1.2,3.2-.9,5.3.9-.2-1.3.2-2,1-2.3,2,0,1.9-1.2,1.8-2.9.7-.3,1.4-.4,2.3-.4Z"/>
  <path class="st65" d="M180.7,167.3c-1.3-.2-2.4.2-3.4,0s-1.6-1-2.7-.7c.7,2.2-2.1,2.4-3.7,2.3s-3.7-1.4-5.5-1.6-3.5.3-4.9,0c-2.6-.4-4.3-3.4-7.3-1.4s-1.2,2.8-1.1,3.7c0,1.9,1.7,3.8,1.9,5.5,1.1,7.8-7,14.3-14,9.5s-5.8-11.5-.9-15.6,3.5-1.1-.2-2.7c-1.9.8-3.5.4-5.5.3-.4-3.2,2.2-2.7,1.8-6.6s-3.5,0-5-.2-1.7-2.2-3-2.8-1.5-.4-2.3-.6-1.3-.9-1.6-1-2,.5-2,.6.3.7.2,1c-.2.5-1.5.9-1.8,1.4-.3.7.8.5,1,1,.2.7-.7,1.6-1.4,1.5-3.1-3.8-1.9.1-2.7,1.4s-1.5.6-2.1,1.2-.8,2.2-1.1,2.4c-.6.4-1.7-.3-2.4-.2s-.9.8-1.4.9c-1.6.5-2.5-.9-2.8-.9-1.1,0,.3,4.3-1.1,4.8.2-1.7,0-3.4-.3-5.2l.3-.3c.1-.4.6-.8,1.3-1.1-1.3-1.8-1.4-3.4-.3-4.6v-.7c-1.8,1.7-5.9-.8-4.1-2.3s2.8-.6,3-.6,4.1.3,4.3.4l.5.5h.6c.3,1.1.8,1.2,1.3.3,0-.1.2-.1.3,0h.8c3.4,3.2,7.5-.6,5.1-4.5l.3-.7.7-.2c1.1,2.5,3,2.8,5.5.9-1.3-.3-2.1-.8-2.3-1.6,14.3,2.7,28,6.1,41.9,10.6,5.6,1.8,11.1,3.7,16.5,5.9Z"/>
  <path class="st49" d="M117.1,149.9c.9.3,1,.6.3,1l-.6.5c-3.7-1.5-7.1,1.5-4.4,5l-.3.7h-.3c-.7,0-1.3-.2-1.9-.3-1.5.5-3.7-.3-4.7-.3s-1.6,1.1-2.7.3c-.2,1.3,1.2,2.1,2.3,1.9s1.8-1.3,2.1,0-.8,1.9-.9,2.6,3.2,3.8-.7,4h-.4c-1.2-2.7-3.6-4.9-6.4-5.8l-.7.6c-7.6-.3-10.6,5.1-8.7,12l.9.3c2.3,4.2,7.3,5.4,11.2,2.5h.9c.4-.1.6-.1.6.1-5.9,5.5-14.4,1.5-15.4-6.1s.7-5.1,1.6-6.4,2.7-2.6,3.8-3c2.6-1.2,9.6-.5,5.6-4.6l-.3-.7c3-7.6-10.4-9.2-6.2,0l-.3.7c-1.3-.9-1.1-1.1-1.7-1.8-1.4-1.7-1.3,1.1-1.6,1.4s-5.8,2-6.5,2c-3.4.3-4.8-2.4-6.8-2.5s-1.9.5-2.9.6c-2.2,0-3.2-.9-5.7-.3h-.3c1.6-.5,2.3-.9,3.6-1.9s.6-1.1,1.2-1.2c2-.6,4.5.6,5.6,2.2h.7c4.3,5,11.8-.2,5.8-5.4v-.7c-1.1-.3-1.3-.7-.7-1.3,11.7.3,23.4,2.2,34.9,4.2Z"/>
  <path class="st62" d="M122.2,150.9c2.6,1.2,5.1,1.3.9,3s-2.7,0-4.8-2.1c-.8.5-1.4-.2-1-1l-.3-1c1.7.3,3.4.6,5.2,1Z"/>
  <path class="st80" d="M192.7,165.1c-6.4-2.5-13.2-5.2-19.7-7.4.3-.6,1.1-.2,1.5,0,5.4,1.9,11.9,4.1,17,6.6s.9.3,1.2.9Z"/>
  <path class="st56" d="M78,145.7c1.4,0,2.8,0,4.2,0l.6,1.3c-.6.6-1.6.8-2.9.6-1.2.3-2.1.2-2.6-.3.4-1.8-1.6-.4-1.9-1.6.9,0,1.7,0,2.6,0Z"/>
  <path class="st31" d="M32.8,141.8l-.5-.6c3.6-.2,7.1-1.3,10.7-1.6s1.2-.2,1.1.3l-1.3.3c-3.2.9-6.8.9-10,1.6Z"/>
  <path class="st6" d="M243.6,68.2c4.6-1.4,5.4,5.9,1.2,6.4s-4.1-5.5-1.2-6.4Z"/>
  <path class="st24" d="M66,154.1h.3c-.4,0-1.6.3-1.6.3-.2.2.6,2.7-1,3.4s-1.5,0-1.8.5.6,2.1-.6,2.2-2.5-1.8-4-1.8-1,1-1.5.9-.9-1.8-1.5-2.1-1.2.3-1.8.2-.9-.6-1.6-.7c-2.4-.3-5.6.8-7.1,2.6-1-.5-2.8-3.6-1.2-4.1s1-.3,1.4-.4c1.7-.4,3.1-.3,4.8-.3,2.6-.3,5.3-.2,8,0,0,0-1,0-.8-.4h2.3l6.1-.3c.5,0,1.1,0,1.6,0Z"/>
  <path class="st62" d="M56,154.4c0,0,1.7.4,1.6.6-2.9-.2-5.8-.4-8.7-.3.3-.5,1.2-.3,1.8-.3,1.6,0,3.8-.2,5.3,0Z"/>
  <path class="st62" d="M64.4,154.1c-2.2.2-3.9.3-6.1.3,1.8-.7,4.2-.1,6.1-.3Z"/>
  <path class="st69" d="M82.8,147c1,.2,2.7,2.7,2.8,3.8,1,6-7.4,6.3-9.3,2.3-.8-1.7-.7-4.7,1-5.8s4.7-.5,5.5-.3Z"/>
  <path class="st106" d="M223.3,198.4c3.1-.6,6-.3,7.3,2.9s1.4,6.9.2,7.9-2.7,1.3-2.8,1.4c-.9.2-2.9.2-3.8,0-4.7-.7-6.4-11.1-.9-12.2Z"/>
  <path class="st35" d="M102.5,189.6c0,1.5-1.3.6-2.3.6l2.3-.6Z"/>
  <path class="st35" d="M66.4,185.4c-1,0-2.5.3-3.2-.3,1,0,2.5-.3,3.2.3Z"/>
  <path class="st52" d="M51.7,247.5c4.1-.9,5.5,3.4,3.3,6.2s-4,.7-4.9-.5c-1.5-1.8-.6-5.2,1.7-5.7Z"/>
  <path class="st80" d="M200.7,156.7c.7,0,.9.3.6.6-1.5-.5-1.8-.8-3-1.3-1.9-.9-4.3-1.4-5.7-3.2,2.1,1,6.6,2.4,8.1,3.9Z"/>
  <path class="st86" d="M201.7,156.7c.2,0,1.2.7,1.6,1l-.2.3c-.6-.2-1.2-.4-1.8-.6-.2-.2-.4-.4-.6-.6.3,0,.7,0,1,0Z"/>
  <path class="st111" d="M188.7,182.6c4-.6,8.4,2.9,8.8,6.9s-2.9,7.9-6,8.5c-9.9,1.8-12.3-14-2.8-15.4Z"/>
  <path class="st42" d="M203.3,139.9l-.9-3.8c-.5-.6-2.9-3.1-3-3.5-.3-1,.7-2.3.8-3.1.4-5.2-4.7-12.4-5.3-17.8s.7-3.2,2.9-2.6,5.5,3.5,7.2,4.4c3.5,1.8,3.1-.9,3.7-1.1,1.2-.3,2.3,1.1,3.5,1l-.5-1c3.1,1.4,6.1,3.3,8.4,5.8-1.2,1.4.5,1.6.7,2.4s-.2,4.8,0,5,1.6-.4,1.9,1.2-.6,8.2-1.3,8.7-1.5-.9-2.2-1.1-1.4.2-1.4.3v7.3c0,.2-1.7,2.4-1.9,2.6-.4.4-.8.3-1,.5v-.8c5.6-6-1.4-16.7-8.8-10.7s-2.5,3-2.2,5.9l-.6.5Z"/>
  <path class="st60" d="M215,145.1c-.7.5-1.5,1-2.3,1.3-1.6.5-3.4.7-4.8-.3-2-1.2-4.2-3.7-4.5-6.1s-.1-3.2,0-4c.5-1.8,3.8-4.4,5.6-4.7,7.6-1.4,11.5,9,5.9,13.8Z"/>
  <path class="st42" d="M212.7,146.3c-1.7.7-2.4,1-4.3.2s-.4-.5-.5-.6c1.6.5,3.2.6,4.8.3Z"/>
  <path class="st70" d="M208.2,55.9c1.7,5.6,3.8,11.1,5.5,16.8-1.4.3-3.4,1.2-4.8,1.6-1.7.7-3.2,1.5-4.5,2.6-.7.2-2.3-.5-3.1-.9s-2.5-1.5-2.4-2.4c-.5-1.6-2.2-2.1-2.8-3.8s-.1-2.9-.5-4.4-1.7-1.9-.9-2.9,2.7-.8,3.6-1.4c1.7-1.1,3.7-4.1,5.3-4.7s3.5-.9,4.8-.6Z"/>
  <path class="st34" d="M198.8,73.7c2.2,1.2,3,2.3,5.5,3.2.5-.4.6-.2.3.3-1.4.6-1.7-.4-2.8-.6s-2.8.4-3.8,1.5c.3,1.8,2.3,2.8,3.1,4s.2.7.3.8c-2.5-2.2-4.9-4.9-6.8-7.8-1-4.2,1.7-2.9,4.2-1.6Z"/>
  <path class="st9" d="M208.8,74.3c-1.5.6-2.9,2.4-4.2,2.9-.1,0-.2-.3-.3-.3,1.3-2.3,2.6-2,4.5-2.6Z"/>
  <path class="st20" d="M80.2,112.7c-.2.2-.3.6-.9.9s-1.2.2-1.7.4l2.3-1.3h.3Z"/>
  <path class="st102" d="M56,168.3c-.7,2.2-3.1,4-5.3,4.2-5.5.6-8.7-4.7-7.6-9.7,1.7-4.1,2.9-1.4,3,1.7.3,1,1.4,1.7,2.4,2,4.2,1.2,4.8-2.5,5.2-5.7.8-1.7,1.8-.4,2.4.8,1.2,2.1,1.1,4.7,0,6.8Z"/>
  <path class="st17" d="M56,168.3c.7-2,.9-4.3,0-6.3-2.1-4.5-2,1.8-2.4,2.7-1.1,3.1-5.7,3.3-7.6.8s-.5-2.1-.9-3.3c-.7-2.3-1.2-.2-2,.6.8-3.7,4.1-5.7,7.9-5.1s8.4,6.6,5,10.6Z"/>
  <path class="st88" d="M98.3,154.7c-1.9,2.1-4.7,1.3-6.8,0-1.6-2.2-1.9-5,.3-7,3.5-3.1,9.9,3.1,6.5,7Z"/>
  <path class="st22" d="M105.4,165.1c.5,1.5.4,3.9,0,5.5s-1.6,3.3-2.6,4.2h-.6v-.8c2.1-2,2.9-5,2.1-7.8l.5-.7-4.4-4.4c-1-.4-1.6-1-1.8-1.8,2.5.2,6,3.5,6.8,5.8Z"/>
  <path class="st113" d="M152.3,179.9c-.9,3.3-4.4,5.4-7.8,5.8-.1,0-.2,0-.3,0-4-1.3-7.3-3.6-7.4-8.4-1.1-.6,0-3.7.6-4.9,5-9.2,19.2-1.7,14.9,7.5Z"/>
  <path class="st45" d="M117.4,150.9c0,0,.7.7,1,1,3.5,5-2.2,9.6-6.1,5.2s-2.1-3.9-.3-5.7,3.9-1.2,5.5-.5Z"/>
  <path class="st67" d="M152.3,180.9c-.3,0-.3-.3,0-1,.9-1.8.5-5.6-.6-7.3s-4-3.7-5.7-4-3.5,0-3.9,0-3.2,2.1-3.5,2.5c-1.1,1.1-2,3.9-2.1,5.4s.3.7.3.7c.3.5.4,1.5,0,1.9-2.3-5.3,1.9-11.7,7.9-11.3s10.5,6.9,7.6,12.9Z"/>
  <path class="st44" d="M136.8,177.4l.3-.8c-.2,4.3,2.2,7.1,6.1,8.4s1.2,0,1,.8c-3.4-.2-6.8-3-7.4-6.5s0-1.3,0-1.9Z"/>
  <path class="st44" d="M152.3,180.9c-1.5,3.2-4.3,4.9-7.8,4.8,2.9-.8,6.4-3,7.8-5.8v1Z"/>
  <path class="st62" d="M111.9,157c0,.1-.1.7.3,1.1.7.7,1.5,0,1.3,1.6s-3.8-2.2-3.6-3.1c.3-.1.8-1.4,1.9.3Z"/>
  <path class="st85" d="M98.7,159.3c2.7,1.4,5.1,3.2,6.1,6.1.3,1-.3.9-1.1.4-1.1,2-3.4,5.2-5.5,6.2s-5.1-.6-6.9-1.9c-1-.7-1.5-.3-1.3,1.3l-.6.5c-3.6-7.4,1.4-13.3,9.4-12.6Z"/>
  <path class="st105" d="M104.8,165.4c1.2,3.2.1,7.2-2.6,9.4-4.7,3.7-10.4,2.3-12.9-2.9-.4-5.8,3.9-.7,5.7-.3,3.5.7,4.3-.9,6.1-3.1s.7-.3.9-.6c.5-.6.9-2.6,1.8-2.7s.9,1,1.1.3Z"/>
  <path class="st40" d="M142.8,169.7c4.4-1,6.1,4.6,1.9,5.1s-5.1-4.4-1.9-5.1Z"/>
  <path class="st92" d="M93.3,161c2.6-2.3,6.7-.9,6.7,3s-7,3.5-7.9,1.8.5-4.1,1.2-4.7Z"/>
  <path class="st53" d="M95,160.6c4.6-1.1,6.2,4.9,1.4,5.2s-3.4-.1-3.8-.8c-.8-1.2.8-4.1,2.3-4.5Z"/>
</svg>