<?xml version="1.0" encoding="UTF-8"?>
<svg id="_レイヤー_1" xmlns="http://www.w3.org/2000/svg" version="1.1" viewBox="0 0 130 160">
  <!-- Generator: Adobe Illustrator 29.0.1, SVG Export Plug-In . SVG Version: 2.1.0 Build 192)  -->
  <defs>
    <style>
      .st0 {
        fill: #23a0f7;
      }
    </style>
  </defs>
  <path class="st0" d="M116.3,7.1c1.5,1.3,3.6,4.2,3.5,6.3s-.8,1.8-1,2.9c2.4,2.1,3.8,5.3,4.6,8.4s.3,7.1.4,10.6c.4,21.7.3,43.4.4,65,0,11.1.8,23,.3,33.8s-4.9,20.1-16.9,21c-8.6.7-18.8,0-27.6,0h-45.8c-9.2,0-18.8,1.9-25-6.5s-1.9-26.1-3.8-36.8c.3-23.3,0-46.3,0-69.8s-1.8-20.5,6.6-27.7c3-2.5,6.7-3.6,10.6-3.8,8.4-.5,17.9,0,26.4,0h35.1c1.8,0,2.2,2.7.6,3.2-7.7.7-15.6.3-23.4.4-13.2-.5-26.5-.2-39.7-.2-8.5,1.3-12.5,7.1-12.9,15.4-.7,13.7.2,28.5.3,42.3,0,21.1-.9,43.3,0,64.3.3,8.1,2.8,15.2,12,16,19.2-.2,38.5,0,57.5-.1,9.2,0,19.3.5,28.3,0,12.9-.8,14.2-8,14.5-19.1.9-33.1-1.2-66.1-.5-99.1-.2-5,0-10.6-3.8-14.5l-.7.2c0,2-1.5,3.7-2.7,5.3-3.9,5.2-9.4,11.4-13.9,16.1s-1.9,1.9-3.4,2.4c-8,9-15.7,18.4-24,27.1s-12,9.2-20,11.4-2.8-.8-2.4-2.6c2.5-5.5,3.2-12.4,6.6-17.4s10.2-11.2,14.3-17.2l12.1-12.8c0-1.4-1.5-1.2-2.3-2.8-1.6-3.3.5-6.7,2.4-9.3s9.8-10.9,13.8-11.9,2.1-.2,3.2,0,1.8,1.3,2.9,1.5c2.3-1.3,3.6-3.7,6.3-4.3s5.3.8,7,2.3h0ZM113.9,15c.3.3.5,1.1,1.1.8,1.4-1.6,2.2-2.2.8-4.2-2-2.8-5.7-4.9-8.5-1.8,2.3,1.6,4.7,3.2,6.6,5.3h0ZM83.5,26.8s.8.5,1,.5c.8,0,3.2-3.5,3.9-4.3,2.2-2.5,4.4-5.1,6.7-7.4s4.4-3.3,3.6-4.3-3.1.1-4,.6c-2.2,1.4-9.6,9.1-10.6,11.5s-1,2.8-.6,3.5h0ZM92.5,36.4c.8.6,2.8,2.2,3.6,2.5s.6.3.9,0c5.5-6.3,11.1-12.6,16-19.3.2-.6-1.8-2.7-2.3-3.2-1.1-1-5.6-4.4-6.9-4.4s-.5,0-.7.2l-16.6,18.2.2.7c2.1,1.6,3.8,3.7,5.9,5.3h0ZM63.9,66.6c.8.7,3.2,3,4,3.4s.3.2.5,0c2.9-3.2,5.6-6.5,8.5-9.7,4.9-5.4,10-10.5,14.5-16.2s2-2.4,1.8-2.8l-8.3-7.1h-.5c-2.9,3.1-5.7,6.3-8.5,9.5-4.1,4.6-8.3,9.2-12.4,13.8s-2.3,3-3.6,4.4l-.2.8c1.4,1.3,2.7,2.7,4.1,4h.1ZM64.9,72.4l.2-.5-7.4-6.4-3.8,12c.3.3,3.5-1.2,4.1-1.5,2.3-1.1,4.6-2.3,6.8-3.6h.1Z"/>
  <path class="st0" d="M30.6,107.4c8.4-.2,16.8,0,25.2,0s23.5-.2,35.3-.2,10.5-.5,14.9,0,2.9,3.6,0,3.7c-15.6.7-31.8-.6-47.3,0-7.8,0-15.7-.3-23.5-.2-3.5,0-8.1.7-11.5.3s-2.2-2.4-.8-3.2,6.3-.4,7.8-.5h-.1Z"/>
  <path class="st0" d="M22.6,128.3c-.9-.9-.8-2.1.3-2.8s3.9-.2,5.3-.2c21.1,0,42.3.2,63.4,0,4.5,0,9.6-.6,14.1-.4s3.9,1.5,2.2,3.2c-1.7,1.7-4.2.6-5.9.6-7.1,0-14.1.2-21.1.3-19.2,0-38.2-.4-57.3,0-.3-.1-.6-.3-.8-.5l-.2-.2Z"/>
  <path class="st0" d="M63.7,89.6c10.3-.4,21.1,0,31.4.2,3.3,0,7.1-.4,10.3-.3s3.8,3.2.9,3.7c-13.3-.2-26.7,0-40,0-1.4,0-3.7.5-4.8-.7-1.6-1.8.5-2.7,2.2-2.8Z"/>
  <path class="st0" d="M51,38s.3,1.1.7,0c2.1.8,4.8-1.1,6.8.4l-.2,1.4c-.9-.4-1.3.3-1.3.3-.2,0-.9-.3-1.2-.4-.7,0-1.8.3-2.3-.4s0-.5,0-.6-1,0-1.3-.2c-.8.2-.3.9-.4,1.1s-1.3,1.2-1.5,1.3-3.6.4-4.2.4c-7.5.4-15-.2-22.5.5-2.6-.5-3-3.3,0-3.9s8.6,0,12,0,13.6-.9,15.4.1Z"/>
  <path class="st0" d="M63.7,19c7.2-1,10.3,8.8,3.4,12.1s-12.9-10.8-3.4-12.1ZM63.5,22.6c-1,.2-2,1.7-2.1,2.7,0,3.9,6,4.2,6.2.3s-1.9-3.5-4.2-3h.1Z"/>
  <path class="st0" d="M45.9,89.7c1.1,0,2.6-.3,2.9,1.2s-.7,2.3-2,2.5c-2.5.4-6.4,0-9.1,0-4.6,0-9.3.3-13.9.5-2.3-.3-2.9-2.9-.7-3.8,7.6,0,15.2-.4,22.8-.4Z"/>
  <path class="st0" d="M22.4,58.2c-1.4-1.3-.6-3,1.2-3.3,7.8.5,16.2-.6,23.9,0s2.6,2.1.9,3.1-6.3.6-7.8.6c-3.1,0-6.2,0-9.4,0s-5.3.6-7.5.4-1-.2-1.5-.6h.2Z"/>
  <path class="st0" d="M83.3,75.1c-.7-.6-.8-2.2,0-2.7s5.3,0,6.8-.2c4.6,0,9.3-.2,13.9-.2s1.2-.3,2-.2c1.8.2,2.9,2,1.3,3.3s-2.1.3-3.5.3c-5.9,0-13.1.7-18.7.3s-1.3-.2-1.7-.6h-.1Z"/>
  <path class="st0" d="M23.7,72.3c5.7.4,12.4-.7,17.9,0s2,3.4-.3,3.6l-18,.3c-2.1-1-2.1-3.2.3-3.8h.1Z"/>
  <path class="st0" d="M95.4,54.1h10.4c2.7,0,3.1,3.4.5,3.8s-7-.7-10.1-.2c-1.7-.5-2.9-2.4-.9-3.5h0Z"/>
  <path class="st0" d="M75,48.8c.7,0,1.7,1.1,1.7,1.8,0,1.4-2.5,3.6-3.9,3.2s-1.2-1.4-1-1.9,2.7-3,3.2-3.1Z"/>
  <path class="st0" d="M81,41.6c2.2-.4,3.2,2.4,1.1,3.5s-3.5-3-1.1-3.5Z"/>
  <path class="st0" d="M70.9,55.1c1.7,1.8-1,4.4-2.6,2.9s.2-3.2,1.6-3.5c.3,0,.8.4,1,.6Z"/>
  <path class="st0" d="M77.6,45.4c1.7-.4,3.4,3,.9,3.5s-2.1-3.2-.9-3.5Z"/>
  <path class="st0" d="M68.1,58.4c2.3,3.2-2.7,3.4-2.6,1.3,0-1.1,1.9-1.9,2.6-1.3Z"/>
</svg>