<?xml version="1.0" encoding="UTF-8"?>
<svg id="_レイヤー_1" data-name="レイヤー_1" xmlns="http://www.w3.org/2000/svg" xmlns:xlink="http://www.w3.org/1999/xlink" version="1.1" viewBox="0 0 300 290">
  <!-- Generator: Adobe Illustrator 29.0.1, SVG Export Plug-In . SVG Version: 2.1.0 Build 192)  -->
  <defs>
    <style>
      .st0 {
        fill: #0698f1;
      }

      .st1 {
        fill: #151742;
      }

      .st2 {
        fill: #f5fdfd;
      }

      .st3 {
        fill: #c1f0f6;
      }

      .st4 {
        fill: #9bcdbe;
      }

      .st5 {
        fill: #0a164e;
      }

      .st6 {
        fill: #f82b31;
      }

      .st7 {
        fill: #ea2231;
      }

      .st8 {
        fill: #049bf9;
      }

      .st9 {
        fill: #18ebfd;
      }

      .st10 {
        fill: #fcfcf7;
      }

      .st11 {
        fill: #fdbd0c;
      }

      .st12 {
        fill: #a0eef6;
      }

      .st13 {
        fill: #fdfdfb;
      }

      .st14 {
        fill: #f26a09;
      }

      .st15 {
        fill: #28e2fa;
      }

      .st16 {
        fill: #18194a;
      }

      .st17 {
        fill: #fefdfa;
      }

      .st18 {
        fill: #17183e;
      }

      .st19 {
        fill: #1ec1ea;
      }

      .st20 {
        fill: #fdfdf1;
      }

      .st21 {
        fill: #96ef9b;
      }

      .st22 {
        fill: #58e3f7;
      }

      .st23 {
        fill: #145fa6;
      }

      .st24 {
        fill: #eb0d23;
      }

      .st25 {
        fill: #0e71db;
      }

      .st26 {
        fill: #171944;
      }

      .st27 {
        fill: #e85e4e;
      }

      .st28 {
        fill: #4ca7b8;
      }

      .st29 {
        fill: #f20b30;
      }

      .st30 {
        fill: #f26d08;
      }

      .st31 {
        fill: #23baed;
      }

      .st32 {
        fill: #182e70;
      }

      .st33 {
        fill: #0d0b2a;
      }

      .st34 {
        fill: #d2f8f9;
      }

      .st35 {
        fill: #bb2564;
      }

      .st36 {
        fill: #f87203;
      }

      .st37 {
        fill: #2db6ec;
      }

      .st38 {
        fill: #710a38;
      }

      .st39 {
        fill: #f8fdfe;
      }

      .st40 {
        fill: #d7a453;
      }

      .st41 {
        fill: #0f9e68;
      }

      .st42 {
        fill: #f16110;
      }

      .st43 {
        fill: #0b0925;
      }

      .st44 {
        fill: #0694f8;
      }

      .st45 {
        fill: #161b43;
      }

      .st46 {
        fill: #fc4e32;
      }

      .st47 {
        fill: #d9acf3;
      }

      .st48 {
        fill: #d0f2f3;
      }

      .st49 {
        fill: #f7fdfc;
      }

      .st50 {
        fill: #f85511;
      }

      .st51 {
        fill: #77f0fa;
      }

      .st52 {
        fill: #c50e2a;
      }

      .st53 {
        fill: #6aeef9;
      }

      .st54 {
        fill: #f60838;
      }

      .st55 {
        fill: #f9fefe;
      }

      .st56 {
        fill: #17cbf1;
      }

      .st57 {
        fill: #e50f2f;
      }

      .st58 {
        fill: #5cfbfc;
      }

      .st59 {
        fill: #33c5ec;
      }

      .st60 {
        fill: #ee0434;
      }

      .st61 {
        fill: #feb905;
      }

      .st62 {
        fill: #fa2130;
      }

      .st63 {
        fill: #4364d7;
      }

      .st64 {
        fill: #fbfbfa;
      }

      .st65 {
        fill: #fb7a08;
      }

      .st66 {
        fill: #fbfcfa;
      }

      .st67 {
        fill: #9efbf9;
      }

      .st68 {
        fill: #fafcf8;
      }

      .st69 {
        fill: #0d86d7;
      }

      .st70 {
        fill: #142465;
      }

      .st71 {
        fill: #fafdf8;
      }

      .st72 {
        fill: #159adc;
      }

      .st73 {
        fill: #febc05;
      }

      .st74 {
        fill: #131841;
      }

      .st75 {
        fill: #f3e577;
      }

      .st76 {
        fill: #fcfcfb;
      }

      .st77 {
        fill: #133e8d;
      }

      .st78 {
        fill: #0c95f2;
      }

      .st79 {
        fill: #1c2868;
      }

      .st80 {
        fill: #05a6f7;
      }

      .st81 {
        fill: #12143c;
      }

      .st82 {
        fill: #f7293b;
      }

      .st83 {
        fill: #63effa;
      }

      .st84 {
        fill: #ec0b34;
      }

      .st85 {
        fill: #f7fdfd;
      }

      .st86 {
        fill: #151f56;
      }

      .st87 {
        fill: #27d2ca;
      }

      .st88 {
        fill: #4bdc59;
      }

      .st89 {
        fill: #fcfdf8;
      }

      .st90 {
        fill: #fcfdfa;
      }

      .st91 {
        fill: #a652fc;
      }

      .st92 {
        fill: #fdfdfc;
      }

      .st93 {
        fill: #fcfdfc;
      }

      .st94 {
        fill: #ee6c0d;
      }

      .st95 {
        fill: #f9f6e2;
      }

      .st96 {
        fill: #8e0f2f;
      }

      .st97 {
        fill: #fdb801;
      }

      .st98 {
        fill: #28c0e6;
      }

      .st99 {
        fill: #f7fbf8;
      }

      .st100 {
        fill: #f6e497;
      }

      .st101 {
        fill: #14184c;
      }

      .st102 {
        fill: #fdfcfc;
      }

      .st103 {
        fill: #16b8f0;
      }

      .st104 {
        fill: #f4be25;
      }

      .st105 {
        fill: #08082c;
      }

      .st106 {
        fill: #33c8ec;
      }

      .st107 {
        fill: #fdfdfa;
      }

      .st108 {
        fill: #f4f187;
      }

      .st109 {
        fill: #faf7d4;
      }

      .st110 {
        fill: #0f184a;
      }

      .st111 {
        fill: #efa52f;
      }

      .st112 {
        fill: #fa5614;
      }

      .st113 {
        fill: #191a4a;
      }

      .st114 {
        fill: #161844;
      }

      .st115 {
        fill: #59e2f9;
      }

      .st116 {
        fill: #e9112e;
      }

      .st117 {
        fill: #f48781;
      }

      .st118 {
        fill: #37a9e5;
      }

      .st119 {
        fill: #161b4b;
      }

      .st120 {
        fill: #16143d;
      }

      .st121 {
        fill: #14afe4;
      }

      .st122 {
        fill: #2cddf8;
      }

      .st123 {
        fill: #1d1740;
      }

      .st124 {
        fill: #ebfcfa;
      }

      .st125 {
        fill: #4c2780;
      }

      .st126 {
        fill: #183c7f;
      }

      .st127 {
        fill: #a03ba1;
      }

      .st128 {
        fill: #e3fafc;
      }

      .st129 {
        fill: #131643;
      }

      .st130 {
        fill: #e80444;
      }

      .st131 {
        fill: #090d33;
      }

      .st132 {
        fill: #6c36b9;
      }

      .st133 {
        fill: #fcfefb;
      }

      .st134 {
        fill: #fc2a30;
      }

      .st135 {
        fill: #daa25a;
      }

      .st136 {
        fill: #f01829;
      }

      .st137 {
        fill: #fbf2a0;
      }

      .st138 {
        fill: #c33738;
      }

      .st139 {
        fill: #aadcc3;
      }

      .st140 {
        fill: #25cef4;
      }

      .st141 {
        fill: #25e0f9;
      }

      .st142 {
        fill: #22c8f3;
      }

      .st143 {
        fill: #f82e32;
      }

      .st144 {
        fill: #f70734;
      }

      .st145 {
        fill: #120d2b;
      }

      .st146 {
        fill: #f8d0b3;
      }

      .st147 {
        fill: #792bd9;
      }

      .st148 {
        fill: #fc725f;
      }

      .st149 {
        fill: #f63131;
      }

      .st150 {
        fill: #141137;
      }

      .st151 {
        fill: #101342;
      }

      .st152 {
        fill: #131843;
      }

      .st153 {
        fill: #f92c33;
      }

      .st154 {
        fill: #f9a611;
      }

      .st155 {
        fill: #fbfdfa;
      }

      .st156 {
        fill: #fcfaee;
      }

      .st157 {
        fill: #f5fdfc;
      }

      .st158 {
        fill: #17163f;
      }

      .st159 {
        fill: #fa9407;
      }

      .st160 {
        fill: #7620b4;
      }

      .st161 {
        fill: #fcfcfa;
      }

      .st162 {
        fill: #9bf4fa;
      }

      .st163 {
        fill: #fdb79f;
      }

      .st164 {
        fill: #e82126;
      }

      .st165 {
        fill: #0ac8e7;
      }

      .st166 {
        fill: #45dc4c;
      }

      .st167 {
        fill: #faa50f;
      }

      .st168 {
        fill: #7186d0;
      }

      .st169 {
        fill: #255dda;
      }

      .st170 {
        fill: #ebbbdb;
      }

      .st171 {
        fill: #fe392a;
      }

      .st172 {
        fill: #ed3037;
      }

      .st173 {
        fill: #e62935;
      }

      .st174 {
        fill: #e4fdfa;
      }

      .st175 {
        fill: #35b9ed;
      }

      .st176 {
        fill: #fe3929;
      }

      .st177 {
        fill: #f8fcfd;
      }

      .st178 {
        fill: #e9e7ba;
      }

      .st179 {
        fill: #fbfcfb;
      }

      .st180 {
        fill: #ed751c;
      }

      .st181 {
        fill: #fdbb03;
      }

      .st182 {
        fill: #1edff7;
      }

      .st183 {
        fill: #fafbfd;
      }

      .st184 {
        fill: #93eaef;
      }

      .st185 {
        fill: #fc2230;
      }

      .st186 {
        fill: #fca800;
      }

      .st187 {
        fill: #6be88b;
      }

      .st188 {
        fill: #161540;
      }

      .st189 {
        fill: #0caf65;
      }

      .st190 {
        fill: #fe2e3c;
      }

      .st191 {
        fill: #f9fdfc;
      }

      .st192 {
        fill: #f15b72;
      }

      .st193 {
        fill: #f3aa89;
      }

      .st194 {
        fill: #141242;
      }

      .st195 {
        fill: #0b3ca1;
      }

      .st196 {
        fill: #f3c051;
      }

      .st197 {
        fill: #70d7f3;
      }

      .st198 {
        fill: #f93040;
      }

      .st199 {
        fill: #1c1c43;
      }

      .st200 {
        fill: #cdfcfa;
      }

      .st201 {
        fill: #fafcfb;
      }

      .st202 {
        fill: #f95c08;
      }

      .st203 {
        fill: #0f1039;
      }

      .st204 {
        fill: #fcfdfb;
      }

      .st205 {
        fill: #f9fdfe;
      }

      .st206 {
        fill: #fcb206;
      }

      .st207 {
        fill: #eefdfc;
      }

      .st208 {
        fill: #f92825;
      }

      .st209 {
        fill: #151945;
      }

      .st210 {
        fill: #f9fcf9;
      }

      .st211 {
        fill: #fc9e06;
      }

      .st212 {
        fill: #54b9dd;
      }

      .st213 {
        fill: #f7f6df;
      }

      .st214 {
        fill: #f8fefe;
      }

      .st215 {
        fill: #fcfcf6;
      }

      .st216 {
        fill: #fadfcd;
      }

      .st217 {
        fill: #ebefef;
      }

      .st218 {
        fill: #fd341d;
      }

      .st219 {
        fill: url(#_名称未設定グラデーション_79);
      }

      .st220 {
        fill: url(#_名称未設定グラデーション_84);
      }

      .st221 {
        fill: url(#_名称未設定グラデーション_85);
      }

      .st222 {
        fill: url(#_名称未設定グラデーション_81);
      }

      .st223 {
        fill: #21b7eb;
      }

      .st224 {
        fill: #95bed5;
      }
    </style>
    <linearGradient id="_名称未設定グラデーション_79" data-name="名称未設定グラデーション 79" x1="-157" y1="1044.1" x2="-199.3" y2="1207.7" gradientTransform="translate(198.6 -137.6) scale(.3)" gradientUnits="userSpaceOnUse">
      <stop offset="0" stop-color="#df0f2a"/>
      <stop offset=".2" stop-color="#e90e25"/>
      <stop offset=".3" stop-color="#c2165e"/>
      <stop offset=".4" stop-color="#b71977"/>
      <stop offset=".5" stop-color="#8d23b7"/>
      <stop offset=".7" stop-color="#9f239f"/>
      <stop offset="1" stop-color="#e91022"/>
    </linearGradient>
    <linearGradient id="_名称未設定グラデーション_81" data-name="名称未設定グラデーション 81" x1="230" y1="751.3" x2="-97.3" y2="793.9" gradientTransform="translate(198.6 -137.6) scale(.3)" gradientUnits="userSpaceOnUse">
      <stop offset="0" stop-color="#29bb8e"/>
      <stop offset=".4" stop-color="#1677bf"/>
      <stop offset=".4" stop-color="#187bba"/>
      <stop offset=".4" stop-color="#35cf56"/>
      <stop offset=".4" stop-color="#39d056"/>
      <stop offset=".9" stop-color="#36da71"/>
      <stop offset="1" stop-color="#31d5b3"/>
    </linearGradient>
    <linearGradient id="_名称未設定グラデーション_84" data-name="名称未設定グラデーション 84" x1="-557.3" y1="821" x2="-497.4" y2="822.7" gradientTransform="translate(198.6 -137.6) scale(.3)" gradientUnits="userSpaceOnUse">
      <stop offset="0" stop-color="#20aef9"/>
      <stop offset=".6" stop-color="#16a5eb"/>
      <stop offset=".7" stop-color="#1680e1"/>
      <stop offset="1" stop-color="#0c81ef"/>
    </linearGradient>
    <linearGradient id="_名称未設定グラデーション_85" data-name="名称未設定グラデーション 85" x1="-98.2" y1="1044.1" x2="-101.1" y2="1205.1" gradientTransform="translate(198.6 -137.6) scale(.3)" gradientUnits="userSpaceOnUse">
      <stop offset="0" stop-color="#f7491e"/>
      <stop offset=".2" stop-color="#fd5214"/>
      <stop offset="1" stop-color="#ee141d"/>
    </linearGradient>
  </defs>
  <path class="st219" d="M66.3,207.5c-.4-.9.4-1.3,1.3-1.1,9.8,9.5,22.8,10.1,34.2,2.8,2.7,2.4,5.9,3.8,9.6,4.5l.4.7c.5-1.1,4.5-1,5.1,0,.2.2.3.5.2.8-16.2,11-11.5,35.7,7.9,38.9l.5.7c1.2,0,1.6.4,1.4,1,4.2,2.5,10.8,6.3,15.6,3,3.9-4.2,9-6.6,14.8-7.3,11.5-.6,21.9-3.2,32.5-7.8s12.2-5.4,14.9-11.5l.9-.3.4-.5c3.6,1.1,7.2.4,10.6-1.1l7.4-3.2c1.9-.9,4.2,1.1,5.1,2.9-1.1,3.4-3.5,6.3-5.6,9.1s-6,7.3-9.1,10.4-3.3,2.4-4.1,4.3l-1-.4c-7.5-11.8-24.5-7.4-27.3,5.7l-.8.7c-.3,1.1-.3,2.2,0,3.3.9.5.6,1.4-.3,1.7-.2.2-.4.5-.6.7-1.2,1-10.5,3.1-12.1,2.7s-.6-.2-.8-.3c-1.1,0-2.2,0-3.3.3-1.8,1.2-5.8,1.1-7.6,0l-4-.3c-.1.2-.3.3-.4.4-1.7,1.2-17.1-3.5-19.8-4.8l-.3-.6c-2.3-.8-4.6-1.8-6.9-2.6-1.6.3-2.6-.1-3-1.3-3-1.1-6-2.2-8.9-3.3-.4-.1-.9-.1-1.3.2-5.4-2.7-10.9-5-16.6-7.1l-.3-.7c-7.6-2.9-14.8-7.1-20.9-12.7l-10.7-7.9c-1.2-.9-2.2-2-3.1-3.3-1.1-1.9-3.2-3.8-4-6l.3-.9c3.8-2.2,6.9-5.6,9.2-9.3l.8-.4Z"/>
  <path class="st157" d="M182,164.8c-.7-.4-.6-.9.2-1.6l4.6-4c1-1.5,2.8-3.9,3.7-.9,3.1,4.8,7.7,7.3,12.7,9.6,1.6.6,2.5,1.4,2.9,2.5,2,1.2,4.3,1.9,6.7,2.3,2.5,3-2.1,2.2-3.9,1.2l-1.2-.2c-.5.4-1.3.5-2.3.3,1.1,1.4,1.4,2.7,1,3.7l.2.9c-.1,1.5,0,3,.2,4.4,2.1.7,4.1,1.3,6.2,1.7l.7-.5c1.3.5,2,.5,2.9-.2-.6-.9.9-3.4,2-3.3l.7-.8c.7-3.1,4.2-3.5,3.3-.1.2.1.5.4.4.6-.5,1.2-3.8,7.5-4.5,7.9-3.2.1-6.4,0-9.6-.5-.1.1,0,4,.2,4.1.4.3,9.5.7,10.6.2,2.2-2.5,4.1-5.4,5.6-8.6,1.1-2.2,4.5-6.9,7.2-4.1s1.3,3,.3,3.4c-2.9,3.2-5.3,7.1-7.2,11.1,0,7.7-5.3,6.7-10.2,3.9l-6.2-1.2c-.5,1.4-1.1,2.6-1.8,3.8v.8c-2.1,1.1-2.4,2.7-1,4.4,1.2,1.2,2,2.5,2.6,3.9l-3.7,9c-3.5,11.1,4.5,12.3,12.6,8,2.6-1.4,5.3-2.5,8-3.3,3,1.9,5.8,3.9,8.5,6.2,5.5,4.9,11.9,2.6,11.9-5l-1.2-10.8c-.4-1.7,2.5-3.5,3.8-2.7,4.3-2.1,7.8-4.3,10.9-8,1.9-2.2,1.9-3.1.2-5.3-.3-2.8-.6-4.1-3.2-5.5v-.8c1-.7,2.2-.1,2.3,1,3.7,1.6,4.9,7.7,3.7,11.2s-9.3,8.8-13.4,10.9c0,.6,0,.9-.6,1.1l.5,2c.7.9,1.2,2.6.2,3.3.3,5.3.3,11.8-5.5,14.2-5.9,2.4-10.4-1.9-15-4.9s-2.5-1.7-3.8-2.6c-4.7,1.7-10.5,5.3-15.6,5.3s-3.8-.5-4.1-.7c-8.5-4.1-5.5-13.7-1.9-20.2.7-1.3.9-2.2-.2-3.4-9.3,9.2-26.7,10.2-36.7,1.7-8.7,7-22.7,7.6-32,1.3-2.2-.3-1.7.7.4.8,21.7,9.5,19,40.7-5.7,43.2-1.5.3-2.8.1-3.9-.6-.8,0-2.4-.2-3.1-.4s-2.5-1.1-3-1.4c-15.4-7.1-17.1-26.3-4.5-37.2s1.6-.8,2-1.5h-5.1c-1.6,0-6.7-1.9-8.1-2.8s-1.5-1.7-1.9-1.8-4,2.3-4.9,2.7c-7.6,3.4-16.9,3.2-24.1-1.2-1.2-.7-5-4.2-5.6-4.4s-.7.5-1,.5c-.4.8-2.3,1.2-3,.7l-.5-.7c1.9-2,1.6-4.1-.8-6.4l.3-.8c-3.1-4.1-4.1-9.5-3-14.6l-.6-.4c1.4-4.4.2-5.7-3.8-7.6-8-3.8-15.8-4.2-23.5.8-15.7,10.2-11.2,31.6,4.7,38.5l.4.8c1.9,1.3-.7,2.4-2.3,1.7-7.9-3.2-14.2-10.8-15.9-19.2s.6-13.8,4.6-18.9c-.2-1,1.4-2.3,2.3-2.6.5-.5,2.8-2.9,3-3v-.4c1.7-1,3.5-2.1,5.3-3.4l.6.5,1.9-.6c0-.7.6-1.6,1.4-1.7,5,1.9,10.2,2.1,15.4.7,1.1.3,1.3,1,.5,2.3,1.5-.4,2.5.2,3.7,1l3.8,2.4c.6-1.4,1.4-2.2,2.4-2.4,2.1-2.9,4.2-5.6,7.1-7.7-.7-3.1-.3-4.1,1.2-2.9,1.5-.4,4.9,3,3,4.3-12,6.2-14.8,23.1-6.9,33.6,8.6,11.5,23.1,12.4,33.8,3.2,1.7,1.6,3.5,3.1,5.4,4.4,8.3,2.1,20.8,3.6,26.9-3.7l1,.3c8,7.6,23.7,7.2,30.6-1.6h.8c.3-1,.4-1,.7-.1l.7.3c.9,2.9,4.3,4.9,7,5.6l.5.7c.6,0,1,0,1.4-.4,4.7,1,9.7,1.2,14.5,0,.4.3.8.4,1.4.3l.3-.5c9.4-3.8,17-15,10-24.2l-.3-.9c3.8-9-5.2-18.6-14.1-19.2-2.1-.2-4.1-.4-6.1-.8Z"/>
  <path class="st179" d="M56,8c2-.3,4.3-.6,6.1.6,3.1,2.2,6,4.8,8.4,7.9.7.6,1.5,1.1,2.3,1.4,1.7-.4,3.3-1,5-1.3,5.3-1.1,11.7-2.9,15.7,2s-1.9,14.4-5.1,20.1c.3,1.6,1.8,2.3,2.6,3.4h.8c2.2,3.2,5.1,7.5,4.1,11.6-2.8,11.1-14.1,9.4-22.4,6.2-3.2,4.9-7.8,11.2-14.2,11.4-1.3,0-3.7,0-4-1.4-3.1-1.2-5.5-6.1-6-9.3s0-.9,0-1.3l-.3-4.3c0-.9,0-1.7,0-2.6-6.6-2.4-17-3.1-16.5-12.4.5-8.6,9.5-8.8,15.3-12.4,1.7-5.5.3-18.6,8.1-19.5Z"/>
  <path class="st113" d="M58,232.6c.6,1.1,1.4,7.4,1.6,9.1s.5,4.6.7,6.7c0,1.2,0,2.4.3,3.6,0,.4,0,.9,0,1.3.3,1.1.2,2.2,0,3.3,0,.2-.6,1.2-.7,1.3-1.7,1.6-4.2.8-4.8-1.6-1-4.4-1-10.7-1.5-15.4s-1.9-8-.9-9.1,1.9-.6,2.2-.7c.9-.1,2.7.6,3.1,1.3Z"/>
  <path class="st37" d="M16.3,88.4c2.6.4,4.9,3.9,4.6,6.4s-2.3,4.1-3.5,4.8c-3.1,1.8-5.3.2-7.4-1.9-2.5-4.8.6-10.2,6.3-9.3Z"/>
  <path class="st208" d="M89.1,254.1c.3-1.1,1.7-.5,2.3,0,1.6,1.4.9,2.7-.7,3.6-1.1,1.1-4.4,2.3-6,3s-2.4.8-3.5,1.3c-2.2.9-5.7,3.6-8.1,2.9s-1.7-1.2-1.9-1.7c-.9-3,3.5-4.2,5.6-5.1s9.7-4,12.2-4Z"/>
  <path class="st70" d="M31.5,56.6c1.4,1.5,2.1,4.8,2,6.8s0,1.2-.7,1.5l-.6-.4c.2-3.1-.6-5.3-3.7-6.2l-.7.3c-4.1-2.6-7.1,2.2-5.7,6l-.5.7c1.5,1.8,3.6,3.3,6.1,4.5v.7c-5.2,1.2-10.4-2.2-10.4-7.6,0-7.8,9-11.7,14.2-6.3Z"/>
  <path class="st217" d="M66.3,207.5c0,.8-.6,1.5-1,2.1-2.2,3.1-5.7,6.8-9.2,8.5-6.7,3.2-14.9,4.1-21.8,1.3,1,.4,3-.8,2.3-1.7l1.2-.4c9.8,2.3,19.2-1.3,24.8-9.4l.8.2c1.2-.8,1.9-.5,3-.7Z"/>
  <path class="st101" d="M43.7,238.6c2.8-.2,2.7,4.1,2.2,5.9-.8,3-6.8,8-8.3,3.3s2.1-7.2,3.3-8.3,2.1-.9,2.7-.9Z"/>
  <path class="st185" d="M44.4,55.9c.1,0,1.4,1.5,1.5,1.7,1,1.7.7,3.8-.6,5.3-2.3,2.7-4.5.9-6.5-1-1.1-2.8.4-6,3.6-6.2s2,.2,2.1.3Z"/>
  <path class="st110" d="M29,230.5c-1.4-1.3-1.1-4.8,1.1-5.2,7.1-1.4,3.5,9.3-1.1,5.2Z"/>
  <path class="st86" d="M8.7,186.6c.7-1.6,2.2-1.5,3.7-1.2,2.2.4,1.6,1.4,1.9,2.9-1.7,2.4-7,1.5-5.6-1.7Z"/>
  <path class="st140" d="M157.9,58.6c.8.4,1.1.7,1,1.7l.8.4c0,2.5.7,4.3,2.3,5.1l.2.7v.5c-2.6.7-5,4-1.9,6.1v.7c.5.9,0,1.3-1.8,1.2-1.3,2.3-1.9,5-1.7,8.1l-.5,1.7c-3,.3-6,.5-9,.6l-.8.7c-6.4,0-13.5.6-17.3,6.3-.7.5-1.4.1-1.9-.4-3.4-5.1-10.3-6.3-16.1-5.8-5.5.5-8.4,2.6-12.3,6.1-5-3.9-8.9-6.4-15.5-6.2-8.4.3-14.3,6.2-18.4,12.7-.5.6-1.2.7-1.7,0-3.9-11.8-17.5-16-27.8-9.8l-.9-.4c-1.3.8-2.6,1.8-3.8,3-.3-.1-.4-.4-.5-.7,4.9-6.8,11.5-14,18.7-18.5s4.4-2.7,6.4-2.7c3.4,1.3,6.1.7,9.2-.9s6-6.2,8.9-9.6c8.3,2.5,18.6,5.3,21.8-5.6,1.2-3.9-2-8.5-4.2-11.7,5.6-2.6,11.3-4.8,17.5-5.9,19.6-3.3,38.9,5.4,49.3,22.4Z"/>
  <path class="st222" d="M198.9,48.3l.4,1.1c-5.9,21.1,18.3,39,37.2,28.9h1.2c5.6,1.6,10.8,4.3,15.5,7.6l6,4.8c9.9,11.2,17.5,21.8,19.1,37.3s-2.3,26.5-9.2,38.8c.3,1.3-.9,3.2-2.3,3.3,0,.3,0,.6,0,.7-1.7,2.3-4.4,4.7-6.6,6.6-4.8,4.2-10.7,8.1-16.6,10.2-.3,0-.7.1-.7,0-2.1-4.8-3.9-10.1-5.3-15.1,19.1-9.4,25.3-34.6,9.9-50.2,5.9-6,9.5-16.5,4.5-24-.9.4-1.4-.5-1-1.3-1.4-1.7-2.9-3.3-4.6-4.6l-1.3-.2c-10-7.9-25.1-8.7-36.6-3.8-7.6,3.2-11.5,8.2-16,14.3l-.9.4c-7.8-8.9-17.7-15.6-29.6-17l-.5-.7-.5-.6c0-1.4,0-6.2,1.5-6.1l.6-.4c.9.3,2,.3,3.2-.2,3.5,2.1,6.8.4,6.9-3.8,3.3-3,3.8-5.6-1.1-7.1l-.9-.7c-1.2-2.8-3-4.9-6-2.6-.7,1.9-1.5,2.8-2.7,2.5-3.3-.7-2.4-4-3.3-6.3l-.3-1.2c.5-.3.9-.9,1.2-1.8.6-1,1.2-2,2-3h1.3c9.4,5.4,18.6,1.7,26.1-4.7l.7.4c2.3-1.1,6.4-1.5,8.9-1.7Z"/>
  <path class="st66" d="M237.6,78.4c-20.4,11.6-45.9-8.4-38.7-30.1,6.6-19.9,30.9-25.4,44.6-9.1s7.5,31.5-5.9,39.2Z"/>
  <path class="st201" d="M189.9,50c-1.9.9-4.6,3.5-6.7,4.7-7.2,4-14.4,3.7-21.4-.4-13.5-7.9-17.9-25.4-7.4-37.7,10.6-12.5,30.2-10.6,38.8,3.2,6.1,9.7,4,21.9-3.3,30.3Z"/>
  <path class="st151" d="M287.8,77.8c.8,1.7-.2,4.2-2,4.6s-2.1,0-3,0l-7.3-.3c-2.3,0-9.2.4-10.8-.2-2.5-1-2.7-4.8-.4-5.4,3.3-.2,6.6-.3,9.9-.3,2.6,0,5,.3,7.4.4s4.9-1.2,6.1,1.3Z"/>
  <path class="st120" d="M269,61.9c2.4.5,3.1,3.7,1.3,5.5-2.6,2.7-8.3,3.5-11.9,3.5s-4.8.2-4.7-2.5,7.2-3.7,9.4-4.5,3.4-2.4,5.9-1.9Z"/>
  <path class="st167" d="M136.9,19c3.8-.9,6.9,1,6.7,5-.4,6.3-10,6.4-9.9-.3s1.6-4.4,3.2-4.7Z"/>
  <path class="st198" d="M206.4,15.3c7.8-1.8,8.2,8.6,2.2,9.5s-6.5-8.5-2.2-9.5Z"/>
  <path class="st121" d="M256.6,48.7c5.2-1.2,6.4,6.2,1.8,7.1s-5.6-6.3-1.8-7.1Z"/>
  <path class="st212" d="M290.5,127.1c1,1,1.1,2.3,1,3.6-2.9,5.3-8.1,1.6-6.8-2.7s4.2-2.6,5.8-1Z"/>
  <path class="st194" d="M266.7,90.7c0-.3,0-.8,0-1,.6-3.4,6.9-3.4,6.9.2s-6.4,4.6-6.9.8Z"/>
  <path class="st116" d="M111.8,23.6c5.1-1.2,6.3,5,1.2,5.5s-4.2-4.8-1.2-5.5Z"/>
  <path class="st72" d="M98.9,27.5c2.6-.6,5,4,1.5,5.9s-5.3-5.1-1.5-5.9Z"/>
  <path class="st4" d="M158.9,60.2c0,0-.8-1.4-1-1.7l1.3.3c-.3-1,.4-1.3.7-1.7l-1,3Z"/>
  <path class="st76" d="M210.1,253.8c2.7,4.5,3.1,11.1,1,15.9.9.4,0,2.3-1,2-.6,1-3.7,4-4.6,4.6.2.6-.2.8-.7.3-2.5,1.5-6.4,2.2-9.4,2s-2.3-.4-3.1-.7c-.9.9-3.5-.4-3.6-1.7-.2-.2-.6-.3-.7-.3-1.1,0-4.8-3.7-5.2-4.5l.2-.8c-1.2-1.6-.8-1.7-1.3-3.3s-.9-1.9-1-2.6.3-1.2.3-1.7c-.3-1.1-.3-2.2,0-3.3,2.5-14.5,21.1-19.5,29.1-6Z"/>
  <path class="st154" d="M146.6,274.3c3.6,7.6-8.3,11.4-9.8,4.1-.5-2.2,1.3-6.2,3.6-6.7s5.1.2,6.3,2.6Z"/>
  <path class="st62" d="M218.4,269.3c-3.8-4.5,3.1-11.6,8.2-6.8s.6,9.6-4.2,9.1-3.1-1.3-4-2.3Z"/>
  <path class="st173" d="M259.1,192.2c-.3-1.3.6-1,1.4-.4s3.6,4.5,3.4,4.9-.3.5-.5.6c1.1.4,1,4.2,0,4.8.4-.9.9-1.3,1.7-1.3-.5,4.5-4.1,7.7-6.9,10.9.6.9-1.4,2.6-2.3,2.3-1.1.5-1.9,2-2.6,2.6-1.9,3-4.1,1.9-4.3-1.3,0-.5,0-1.1,0-1.6,1.2-.2,2.2-.9,3.2-1.6,5.7-3.5,12.8-7.6,10.3-15.5s-1.7-3.4-3.3-4.5Z"/>
  <path class="st79" d="M249.5,245.2c2.4,2.7,2.5,6,.7,8.9l-.5-.5c.9-2.1.7-3.8-.6-4.9-.5-1.4-1.4-2.7-2.8-3.2-.7.8-3.2.7-3.6-.3-3.9.6-6.2,4.5-3.7,7.9l-.2.7c3.7,2.6,7.7,4.9,10.8.2h.8c-2.3,3.9-6.3,5-10.3,2.8-5.9-3.4-3.8-13.4,3.1-13.9s5,.7,6.5,2.3Z"/>
  <path class="st82" d="M173.1,273c3.4,1.3,3.5,5.5,0,6.9l-1.5.2c-.5.9-2.2,0-2.1-1.2-2.2-1.9-.7-5.3,1.7-6.3.7,0,1.3,0,2,.3Z"/>
  <path class="st143" d="M101,267.7c4.9,2.3,1.2,9-3,6.4s-1.8-4.6.3-6.4c.9,0,1.8-.1,2.6,0Z"/>
  <path class="st153" d="M224.9,246.2c3.2-.5,5.8,4.8,2.4,6.7-4.9,2.8-7.6-5.8-2.4-6.7Z"/>
  <path class="st32" d="M263.7,214.4c.8.2,3.1,1.2,3.6,1.7,1.9,1.6,2.4,5.1,1.6,7.3s-.8,1-1.2,1.6l-.6-.4c.8-2.8,1.1-6.1-1.7-7.9l-.7.5c-2.1-.7-4.4-.5-5.8,1.5h-.8c-1.6,3.2.6,6.2,3.3,7.7.2.8-.4.7-1,.3-.2,0-.8,0-1,0-.3-1.3-1.5-1.7-2.2-3s-1-3-.8-4.3c-1.5-1.1,2.2-5.6,3.6-4.6,1.1-.5,2.4-.6,3.6-.3Z"/>
  <path class="st96" d="M253.8,235.9c1.8,2,4.7,1.7,4.6-1.3,2,1.3,3.8,3.3,1.8,5.6-3.3,4.1-7.1-1-6.5-4.3Z"/>
  <path class="st164" d="M113.6,266.4c-1.5.8-2.8,1.5-4.4.6s-1-1.2-1.5-1.3c-.8-3.1,2.2-4.5,4.9-3s1.5,1.9,1.1,3.7Z"/>
  <path class="st52" d="M258.4,234.6c2.4,2.9-4.3,5-4.6,1.3.2-1,1.6-2.1,2.6-2.3s1.4.5,2.1.9Z"/>
  <path class="st117" d="M253.1,216.7c-.7,1.7-.9,5.1-3.6,4,0-1.7-.6-3.5-.7-5.3.5.4.3,1.3.7,1.8.8,1.2,2.7.2,3.6-.5Z"/>
  <path class="st24" d="M267,171.1c1.4.1,2.3,2.4,2.6,3.7.5,2.9.4,6.3,0,9.2-.3,4.9-2.2,12.6-4.6,16.9s-.7,1.6-1.7,1.3v-4.8c0-.9-2.7-4.8-3.7-5.3s-.6.2-.6.2c-.8-.3-1.5-.7-2.3-1-2.4.2-5.7-.9-7.3-2.6l-.7-.3c-1.7,0-2.7-.6-3-1.6,7.6-3.6,14.7-8.8,20.4-15.4l.8-.3Z"/>
  <path class="st149" d="M273.6,191.6c.9-.3,1.8-.3,2.8-.1,1.1-1,2.5.9,3,2,.8,1.6.8,3.3.4,5.1,0,.1-1.5,2.2-1.7,2.3-1.2,2.9-6.1,1.8-6.9-1-.7-.7-.7-.6-1-1.7-.2-1.1-.2-2.2,0-3.3.5-1.6,1.5-3.1,3.3-3.3Z"/>
  <path class="st172" d="M284.9,168.1c-.2,2.1-2.5,2.8-4.3,2.6s-.6-.2-1-.3c-.8-.5-1.4-1.1-1.7-2-.4-5.1,7.3-4.7,6.9-.3Z"/>
  <path class="st27" d="M269,166.8c1.3-.2.4.7.4,1.5s.2,1.8.3,2.8c.7,4,.7,8.2.3,12.2,0,.2,0,.5-.3.7.1-2.1.2-5.3,0-7.5s-1.5-3.3-2.7-5.4c-.6.2-.7-.1-.3-1,.8-1.1,1.6-2.1,2.3-3.3Z"/>
  <path class="st138" d="M280.6,181.3c2.6,1.2.5,5.3-1.8,3.7s-.9-1.8-.8-2.7c.8-.8,1.5-1.1,2.6-1Z"/>
  <path class="st11" d="M286.5,100.3c.2.2.9.8,1,1,4.2,6.7-5.6,14.9-9.9,6.9,0,0,0-.2,0-.3-.6-1.4-.7-3-.3-4.6.1-.6,0-.6.3-1.3,2.2-3.8,5.5-4.4,8.9-1.7Z"/>
  <path class="st224" d="M286.4,144.7c5.3-1.2,5.5,5.6,2.2,6.5-5,1.3-5.8-5.6-2.2-6.5Z"/>
  <path class="st220" d="M28.2,94c1-1.1,1.7-1.2,1,.3,0,1.3-.3,2.8-.9,4.3-.7,17.8-1,35.7-.9,53.5s.3,8.5,2.3,12.1l-.2,1c1.6,2.3,3.9,4.1,6.3,5.6.6.9,0,1.5-1.6,1.7-2.1.5-3.1,2.2-4.7,3.1s-1.2.1-1.3.2c-4.7-5.1-8.5-11.8-11-18.3s-3.3-11.9-3.6-18.4c.1-2.3.2-4.7.3-6.9-.3-1.3-.3-2.7,0-4,.6-11.3,8-24.9,14.2-34.1Z"/>
  <path class="st134" d="M15.3,180.3c-3,.7-4.3-.4-4.6-3.3,0-.3-.5-.3-.2-1.3,1.9-6.7,11.6-2.3,6.8,3.5s-1.1.9-2,1.2Z"/>
  <path class="st126" d="M32.9,64.9c-.3,2.9-2.6,5-5.3,5.6-1.5-1.3-4.9-2.6-5.8-4.3s0-.8-.2-1h.8c4.6,3.9,10.1-1.5,6-6.2l.2-.8c3.8-.6,4.6,3.7,4.3,6.6Z"/>
  <path class="st6" d="M21.4,80.2c2.2-2.1,7.7.2,5.2,4s-8.9-.6-5.2-4Z"/>
  <path class="st7" d="M40,69.9c2.7,3.3-5,6.3-4.6,1.1s3.5-2.4,4.6-1.1Z"/>
  <path class="st31" d="M34.5,88.7v.9c-1.7,1.3-3.1,2.9-4.4,4.5l-.9.2c.2-.9-.3-.8-1-.3.7-1,1.3-2,2-3,1.4.5,2.8-2.1,3.7-2.5s.6.2.6.2Z"/>
  <path class="st31" d="M13.7,139c0-2.3,0-4.6,0-6.9,0-.3.2-.3.3,0,0,2.2.3,4.8-.3,6.9Z"/>
  <path class="st221" d="M125.5,254.8c20.6,1.2,31.4-21,17.5-36.2-1.8-2-5.3-4.8-7.9-5.7s-2.5-.4-2.9-.8c-.6-.6,0-.6.3-.8,2.1-1.9,3,.1,5.1,1,9.3,4.3,20.9,3.2,29.1-2.9,8.6,7.5,24.7,7.4,33.7.6s2.6-2.7,3-2.6,1.6,1.9,1.5,2.4c0,1.3-2.6,5.9-3.2,7.7-1.8,5.8-1.5,10.2,3.8,13.8s0,.5.1.5c-.9,2-2.3,4.3-4,5.8-5.6,5.2-22.1,11-29.7,12.6s-17,.5-24.8,5.3c-3.2,2-2.9,3.9-7.6,5s-5.9-.7-7.8-1.5-5-2.7-5.3-3c-.6-.6.6-1.1-1-1.5Z"/>
  <path class="st20" d="M95.3,220.1c1.5-.2,2.6.5,3.7,1.4,6,4.9-1.3,12.2-6.4,8.1s-2-8.9,2.7-9.5Z"/>
  <path class="st129" d="M132.7,91.7c.7-2,4-2.9,6-3.4,6.6-1.7,22.6-1.1,29.1.7,10.2,2.8,17.9,9,23.9,17.7,9-17.4,27.1-24.1,45.4-17.3,2.8,1,11.9,6,12,8.9s0,.4,0,.7c.8.1,1.1.9,1,1.7,1.1,0,1.8,1.9,1,2.6,2.9,7.1-.9,14.4-6.7,18.8,18.8,15.3,9.1,48.2-15.1,49.9-7.5,2.6-16.1,2-23.2-1.5-7-4.6-10.4-3.8-16.2-11.8-.3-.4-.3-1.1-.4-1.1-.6-.5-1.9,1.8-2.3,2.2-.9.9-5.4,4.1-5.3,5.1.2,0,.4.2.6.2,2.5.2,7.5,1.8,3.9,4.6-2.3,0-4.4,0-6.5.2l-.4.7h-4.8c-3.8,0-3.6,3.4-3.5,6.2l-.7.4c0,.3-.2.3-.3,0,0-1.2-.2-2.3-.3-3.3.3,2.1.3,4.7,0,6.8.3,2.3-2.7,1.4-2.7-.8l-.2-4.5c-.2-2.8-2.3-4-4.8-4.7l-.7.3c-1.4-1-3.1-.6-4.6,0l-.6-.5c-.6.1-1.3.8-1.7,2-.4.3-2.3-.9-1.7-1.6,0,.3-.2.6-.4.7-.6.2-6.2.1-7.1,0l-.5-.7-.5.6-3-.9-.6.4c-1.6-.8-3.6-.2-5,.9l-.7-.3c-.6.6-1.6.7-2.7.3-1.9.9-4,1-3.9-1.6-.3,0-.3-.1,0-.3,2-.6,3.9-.8,5.9-.8.6,2.1,3.1-1.4,3.1-1.6-1.4-.4-4-3.2-1.7-3.2.8-.2,1.7,0,2.8.5,2.6.7,5.4.8,8.1.9,6.8.2,13.5,0,20.2-.4l.6-.8c10.8-3.5,21.1-12.7,23.8-24l.8-.7c1.6-9.9-.4-18.5-4.6-27.5-1,0-1.7-1.1-1.5-2-.8-.8-1.2-1.5-1.1-2.3l-1.2-.5c-9.4-13.2-24.3-13.1-38.7-13-3.2.2-6.4.4-9.2,2.1l-.9-.2c-.7,0-1.2-.9-1.3-2.4-.9-.6-1.3-1.2-1-1.9Z"/>
  <path class="st81" d="M59.3,96c.2.9-.3,1.1-1.7.4-.5,1.6-1.4,3.3-3,1.6-.6.5-1,.2-1.3-1-.6.7-.8.5-.7-.3-.8.2-1.3-.4-1.3-1.7-.5.5-.9.3-1.3-.7l-.9.4c-5-2.2-13.4.9-13.5,6.8-.5,18.7-.4,37.5.3,56.2.6.5,1.2.9,1.9,1.4.2.7-.2.9-.8,1,3.2,8.1,17.9,6.9,18.5-2.5.4-5,.6-10,.5-15l1.3-4c2.1-2.3,3.6-.8,4,1.8l2,3.2c4.6,5.3,8.8,10.7,12.8,16.4,3.3,5.3,8.1,4.9,13.6,4.2l.6.6c.2,1-.6,1.6-2.4,1.6-2.3,0-8,0-7.2,3.4l-.7.8c-10.8,2.8-13.9,15.6-9.6,24.9l-.2,1c1.4.7,2,1.5,1.7,2.6,1.3,0,1.3.8,1.3,2,.3,0,.4,0,.3.3h1.1c6.9,6.6,20,5.4,24.6-3.1l.8-.2c-.5-1.4-.3-2.3.3-2.6-.2-.4.3-.8.3-.6s-.2.4-.3.4c-.9-.4-1.5-5.1-1.6-6.3-1.8-1.8-2.2-4.1-1.4-6.4-.2-.2-.3-.4-.3-.6l2.6-2.9c-.2-.9-.2-1.6,0-2.1-.7,0-1.2-.4-.7-1-.2,0-.4,0-.5,0-.3,0-3-3.4-2.8-4-.2-2,3.8-1.4,5-.5,1.9,1.3,3.4,5,2.6,7.2-.1.9.3,2.3,1.2,2.3l.4,1.2.6.7c-.4,5.5-.3,11,.5,16.5l-.5.7c.7.1.8.4.3.7h.8c.7,1.7,1.7,3.4,3.5,3.9,5.3.3,11.3.4,16.7,0s1.7-1.2,2-2l.9-.3c-.3-.7-.2-1.5.3-2.5,0-1,.2-1.7.7-2.1,0-2.1-.3-4.1-1-6.2-.9-.6-1.5-1.5-2-2.8-.2-1.2,0-2.1.7-2.6-1-4.5-1.2-9.1-.9-13.7,0-.8.4-2.5,1.3-2.8.3.4.3.8.7,1.1,1.6,1.1,1.8,0,3.1-.1s1.9.4,2.8.4c.3.5.2,1.1-.3,1.9-1,7.1-1.5,15.5.7,22.4l-.4.9,1.2,1.4c1,2.9,2.4,5.3,5.1,6.9l1-.3c7,3.1,16.2,1.2,19.9-5.9l.9-.4c.2-1.7.4-3.4.6-5.1l.8-.5.4-5.9c.5-.8.6-1.7.2-2.9.3-3.4.2-6.6-.2-9.8-.3.5-.4.4-.3-.3-1.1,0-2.5-1.9-2.3-3,1.7-.7,3.7.8,4.6,2.1,1.5,2.4.4,6.1,1.2,8s1.8.4,1.8,0v-6.8h.3c0,1.1,0,2.2,0,3.3.2,6.4.2,12.7.2,19.1.5,1.8.9,3.9.2,5.4h.7c.5,1.1,1,2.1,1.6,3,1.5,1,2.2,3.2,2.4,5,1.6.3,1.1,1.3-.4,1-.4-.1-.9,0-1.6-.3-2.4-.9-6.6-3.6-6.7-6.4-.2-.2-.4-.2-.7,0-.8,2.4-6,5.6-8.3,6.4-5.8,2-14,1.8-19.5-1.1s-2.8-2.3-4.4-3.3c-.9,1.6-3,3.1-4.7,3.9-4.4,2.1-18.1,2-22.6-.1s-3.8-2.8-5.1-4.5c-10.6,9.8-25.8,8.2-34.4-3.3s-5.8-24.8,3.6-32.4c.6-.5,3.7-2.2,3.8-2.5.3-1-2.4-2.7-3-3.4h-.7c-2.9-3.9-5.7-7.7-8.6-11.5.8,13-6.4,22-20.2,19.5s-7.6-1.8-8.2-4.7c-1.7.1-2.9-2.9-3.5-4.4-1-2.6-1.2-5.1-1.3-7.9-.2-14.9,0-29.8.6-44.8-.6-5.7-1-10.8,2.7-15.7,5.4-7.3,16.8-8.5,23.8-2.9,1.4,1.1,3.7,3.1,3.3,4.9Z"/>
  <path class="st74" d="M248.8,210.8c-.6.4-3,1.1-3.2,2.1l1.2,10.6c.9,4.1-2.5,9.6-7.1,9.1s-3-1.1-3.8-1.5c-1.9-1-9.2-7.3-10.1-7.4s-3.6,1.5-4.9,2.1c-4.4,1.9-12.7,6.4-16,1s1.9-12.7,3.6-17.8c-2.4-2.9-6-6.1-1-8.8.2-.1.5-.3.7-.1,1,.8,4.9,4.9,5.7,6v.8c.5,1,.5,2.3-.3,3.8l-3.3,8.9-.8.6c0,.4,0,.6.5.7-.9,3,.8,3.4,4.9,1.4l9-4.2c2.2-.8,4.3-.2,6.4,1.8l5.3,4.4c4.8,3.6,6.1,3.5,5.2-2.7-.9-3.7-1.3-7.4-1.1-11.2,4.1-3.6,8.6-6.7,13.6-9.4,0-.9-.3-1.8-.9-2.6-.5.4-.8.3-.7-.3l-.6.2c-4.6-1.1-9.3-2.2-13.9-3.3-1.1-.2-1.3-.9-1.1-1.9l-.7-.4c-.7-3.2-1.7-6.3-3.1-9.3l.5-.6c-.4-1.3,0-3.7-2.4-3.5-3.9.2-7.6,12.7-10.8,13.6s-8-.7-11.3-.2c0-2,0-3.7-.7-5.6l10.2.8c.7-.3,3.8-6.9,4.6-8.1.3-3.2,4.4-6.6,7.7-6.6,5.4,0,7.6,4.3,8.8,8.9l2.1,7.4c7.5,1,25.9,4.4,16.5,15.6-2.6,2.4-5.8,4.1-8.9,5.7Z"/>
  <path class="st73" d="M232.9,182.6c.9,2.7,3.3,7.6,3.3,10.3.2,1.1.3,2.2.5,3.3,1,.4,1.6.8,1.8,1.3,3.7.7,7.4,1.2,11.1,1.6l.2.4-.6,1.1c-4,2.1-8.1,4.3-11.1,7.8-3.2,4.7-5.5,7.8-11.6,6.6-4.5.9-8.8,2.5-13,4.7l-1-.3-.3-.7c1.3-2.6,2.7-5.6,3.5-8.4s.7-2.8-1.9-3.5c-.9-.9-6.1-6-6.3-6.6-.3-1.5,1-3.2,1.3-4.6,2.3.8,4.9.8,7.2,1.5s5,3.5,7.8,1.1.9-3.6,1.5-5.2,4.8-8.1,5.6-9,1.1-1.3,2.1-1.4Z"/>
  <path class="st209" d="M59.3,185.6l-.3,3.3c-.6,1.2-1.6-.7-1.9-1.5-.5-2.2-1.5-3.9-3.1-5.1-1,.1-2.1-.2-3.3-1-1.5-.3-2.6-.8-3.3-1.7l-.9.5c-8.9-2.6-17.9,4.4-19.3,13.2l-.7.6-.2,2.1c.7.4.8,2.6-.1,2.9.9,1.4,2.3,3.9,2,5.6h.5c1.5,2.3,3.3,4.1,5.5,5.4l.3.9c3.8,1.5,7.4,2.8,11.7,2.1,6.6-1,12.4-5.9,14.5-12.2l.9-.5c0-.7.2-.4.7,0,.6,1.1,2.6,3.4,2.6,4.5s-1.5,2.3-1.7,3.4c-1.4.9-3.2,4-5,5.4-6.3,5-14.1,6.2-21.8,4.2s-15.1-12.2-15.5-20c-1.1-17.2,17.1-28.5,32.5-21.6s5.2,2.8,6,3.9,0,3.8-.2,5.6Z"/>
  <path class="st45" d="M126.1,214.5c16.8-1.6,27.2,21.3,14.1,32.6-14.4,12.6-35.4-2.1-29.5-19.9s8.5-12.1,15.4-12.7Z"/>
  <path class="st124" d="M251.8,98.3c1.2,1.9,2.2,3.2,2.6,5.5.9,7-1.2,13.8-6.5,18.4,16,15.2,9.2,41.7-9.9,50.5l5.6,14.9.4-.3c1.8,0,3.6.5,5.5,1.3,2.4,1,4.9,1.7,7.3,2.6l2.6,1.9c1.2,1.5.7,2.8,1.1,4.2s1.7,1.6,1.4,2.9-1.4,2.6-1.7,3c-2.5,3.3-7.6,6.1-11.4,7.6,3.5-2.3,10.9-6.1,10.9-10.7s-2.3-5.6-5.4-6.8-9.1-2.4-13.4-3.1c-1.9-4.4-2.4-13.4-7.3-15.6s-8.3,1.1-10.9,5.1c.1-1.1-.8-1.9-1.8-1.7s-1.2,2.6-2.2,2.7l-.3-.9,1.2-3.5-7.4-.3c-1.2,0-1.9-.5-2.1-1.3-1.4.4-2.2,0-2.3-1,1.7-.7,2.4.7,3.8.7s1.5,0,1.5-.5c0-.9-4.1-1.4-4.9-1.7s-1.4-1.3-2.1-1.7c5.4,1.5,11.3,2.9,17,2.3s4.5-1.2,6.7-1.6c3.8-.6,4.7-.2,8.5-2.1,14.8-7.5,20.5-28.2,10.2-41.7-.8-1-5-4.9-4.9-5.3s3.3-2.9,3.9-3.7c3.6-4.4,4.8-9.5,3.6-15,.9-.6,1.4.3,1.7,2.9,1.5-.2-.8-6.2-1.4-7.2l.4-.7Z"/>
  <path class="st203" d="M192.3,210.4c-1.7.3-1.6-.3.1-2-4.9,1-5.6-3.6-.4-3.2,1.2-.3,2.2-.8,3.2-1.5v-.8c1.7-1.2,3.2-2.5,3.8-4.5l.8-.3c-.2-.7-.1-1.1.3-1l.3-3.3c-.3,0-.3-.1,0-.3-1.1-2.9-2.7-5.1-5.1-7.1l.5-1c2.5-2.4,3.6-5.9,1.2-8.8.2-.2.3-.5.1-.8l-.9-.3c-1.5-3.3-4.5-4.6-7.9-5l-.5-.8c-1.7,0-3.3-.1-5-.3-1,.9-2,.9-3,0,.3-.9.7-.5,1.2-.5,1.1,0,3.9.4,4.8,0s1-1.5,1.1-1.8c.2-.6-.1-.4-.4-.5-.6-.3-1.4-.6-2-.9s-.4-.8-.8-.9c-.7-.2-1.7.3-2.1-.4,4.8,0,9.3,0,13.5,2.5s9.1,8.9,8.3,14.8-.9,2.1-.9,2.6c.1,1.1,2.7,3.6,2.9,6.7.8,9-5.4,16.3-13.6,19Z"/>
  <path class="st174" d="M71.6,163.5c-1.8-.3-.6,1.3-.7,2.1,0,1.3-3.6,3.8-4.6,5s-1.8,2.6-3,3.5c-.4-1.2,1.3-3.4,2.2-4.5s2.3-2.7,3.9-3.4c-1.4-2.1-2.9-4-4.5-5.9-1.2,4.2-3.2,8.1-6.6,10.8s-3,2.4-4.9,2c-.2,0-.7.2-.7-.2l.7-1.5c-4,.4-7.7.9-11.7.3s-3.6-1.4-4.5-.8-.5,1.1-1,1.3-1.4,0-2,.2l1.7-1c-2.7-1.3-4.8-3.8-6.3-6.3l.7-.3c1.4,2,2.4,2.7,3.1,1.9h.5c6.2,6.2,17.8,6.5,23.8-.1,4.2-4.6,3.7-9.8,4-15.7.6-.1.9.4,1.3.8,3.2,3.5,5.6,8.1,8.6,11.7Z"/>
  <path class="st25" d="M53.4,173.1c6.3-2.3,10-8.1,11.1-14.6.6,1.1,6.3,7.3,5.8,7.9-3.2,1.3-5.1,4.9-6.9,7.6s-1.6,2.1-2.2,3.3c-2.9-1.5-4.5-3.3-7.8-4.3Z"/>
  <path class="st129" d="M195.2,203.8c-1,.8-1.5,1.6-3.2,1.9s-2.3-.8-2.9.5c-.9,2.1,2.4,2,3.7,1.4s1.4-2,2.2-.8c1.2,1.7-1.2,1.5-1.8,1.8s-.7,1.5-2.1,1.5l1.2.3c-4.9,1.7-12.2,1.3-17.2,0l1.3-.3c-2.1.2-1.4-.8-1.8-2s-1.3-2.7-1.5-3.6c.4-.9.8-.5,1,.3l.8-.4c6.2,1.3,13.3,1,19.4-.9l1,.3Z"/>
  <path class="st169" d="M210.1,174.7c.8.2,1.6.6,2.5.7l8.1.3c-.8,1.5-1.2,3.4-2,5s-1.4,2.3-2,3.3c0,.6-1.9.7-2.1.5s-4.9-6-5.4-6.8c-1.1-1.7-1.7-3.5,1-3Z"/>
  <path class="st129" d="M166.1,203.8c.5-1.6-.2-1.2-.3-2.2-.3-1.8,1.9-5,2-7.6s-.7-2.7-.7-4,.7-1.8.7-2.6c-.2-2.3-2.7-2.9,1.7-4.5l.3,22.8-1.8-3.6c-.8.4-1.2.6-1.2,1.6h-.7Z"/>
  <path class="st63" d="M207.8,173.7c.7.2,1.6.8,2.3,1l-1.2.3c0,.5,0,.9.2,1.4,1.5,2.5,4.4,4.8,5.7,7.5h1.8c-.1.2,0,.7-.5.9-1.1.4-2.1,0-3.1-.3-2,0-3.4-.7-4.8-2l-1.4-.3c-.2-1.4-.3-3-.3-4.6-.5-1.9-1.8-3.4-2.3-5.3,1.1.9,2.5.9,3.6,1.3Z"/>
  <path class="st125" d="M54,182.3c.2,0,.5,0,.8.3,1.7,1.2,2.7,4.5,3.8,6.3l.7-3.3c-.3,4.4.8,10.7,3,14.6h-1.4c-.5-1.2-1-2.2-1.6-3.2-1.6.7-2.8.7-3.6.2l-.4-.8c1.2-4,1.5-10-1.5-13.2l.2-.9Z"/>
  <path class="st168" d="M206.5,177.7c0,.1.3.3.3.8s-.2,3,0,3.2,1.2,0,1.8.4c1.8,1,.8,1.9,4.5,2.6-2.5.3-4.6-.7-6.9-1l.3-5.9Z"/>
  <path class="st28" d="M190.6,163.1c-1,.2-1.5-.3-1.3-1.3.6-.2,1.6,1,1.3,1.3Z"/>
  <path class="st152" d="M70.9,21.5c1.7-.9,3.9-1.4,5.9-1.9,3.4-.8,9-2.2,12.1-.7,8.4,4.1-2,14.6-4.1,19.6,2.7,5.1,10.4,10.5,6.2,16.8-3.8,5.8-13.4,1.1-18.8.7-3.8,4.3-7.7,12.7-14.6,11.3s-5-12.2-5.9-16.9c-4-2.3-14.2-3.1-15.7-8.1-2.3-8.1,9.3-10.3,14.6-12.6,1-5-.3-20.4,8.4-18.6,3.3.7,9,6.9,11.4,9.4s.5.6.5,1Z"/>
  <path class="st158" d="M68.8,234c.6-.1,1.6-.2,2.2,0,1.6.5,7,10.1,6.8,12-.3,2.7-4.8,3-6.4.8s-3.7-8.8-3.8-9.7c-.2-1.4-.4-2.6,1.1-3Z"/>
  <path class="st59" d="M28.6,58.3c.2.2,1.1,1.3,1.3,1.6,2.9,5.8-4,9.9-8.2,5.4-2.1-5.6,2.7-10.4,6.9-6.9Z"/>
  <path class="st157" d="M246.2,92.3c1.7,1.3,3.2,2.9,4.6,4.6.3.4.7.9,1,1.3,1.1,2.9,3.2,5.8,1.5,8.9-2.1-1-1.1-1.9-1.6-3.4s-.6-.5-.6-.5c-.3-.8-.6-2-1-2.6,0-.9-.2-1.3-1-1.7-7.7-11.6-28.1-14.1-40.2-8.7-8.1,3.7-12.6,10.3-17.1,17.6-5.6-8.5-13.3-15.3-23.2-18.1-6.9-1.9-19.1-2-26.4-1.4s-6.6,1.4-9.4,3.3c0,.8-.6,1.6-1.6,2.3-1,1.6-2.1,2.7-3.4,3.3-5.6-11-22.1-11.4-28.2-.7-.4.5-1,.5-1.5.2-1.7-2.9-3.9-5.1-7-6.5-12.6-5.6-20.5,4.6-27.3,13.6-.9,1.1-2,2.2-2.7.5-.3-2.6-.9-5.1-2-7.5l.3-.9c-7.2-12.6-28.4-9.3-29.4,6.4-.2,2.5.4,5,.4,7.3,0,15.3-1.5,33-.4,48s1.8,6.9,4,9.1c-1.3,3-3-.9-4.3-1.7-2-3.4-2.4-6.1-2.7-10.1-1-18.4.9-38,.8-56.5.3-1.5.8-2.9,1.6-4.2,1.2-2.1,3.5-4,5.3-5.6,2.6-1.1,4.8-2.6,7.8-2.9,10-1.1,17.6,3.2,21.3,12.4s0,.7.5.5,2.8-4,3.5-4.8c5.6-6.5,12.4-9.7,21.2-8,3.9.8,7.1,3.3,10.1,5.8,1.3-1.2,2.3-2.4,3.8-3.5,6-4,17.6-3.8,23.1,1s1.9,2.8,2.8,2.8,2-2.5,2.8-3.1c4.6-3.3,10.5-3.4,15.9-3.5,2.4-.2,4.8-.3,7.3-.2,2-.6,4.9-1.2,6.6.2,2.4.2,5.9,1,8.3,1.7,8.3,2.5,16.7,8.7,21.9,15.5l5.9-7.6c11.3-12.6,36.3-13.9,48.8-2.6Z"/>
  <path class="st199" d="M134.5,55.2c.9.9,4.3-.3,6.2,1.6s3.2,6.4,2.4,8.3-2.7,2.4-3,3.3c-.5,1.6.9,4.5,0,5.7s-4.8.2-6.5.7-2.2,2.6-4,2.6-2.4-2-3.4-2.3-2.9,1.1-5-.6-.6-4-1.1-5.9-2.8-3.1-3.1-5.8c-.9-6,1.5-8.5,7.5-8.1.3-3.4,3.4-7.3,7.1-5.5s2,4.8,3,5.8Z"/>
  <path class="st18" d="M162.2,78.8c-2.5.8-2.3-3.4-2-5-1.5-1-2.4-1.9-1.9-4.1s1.5-2.3,1.7-2.5c.4-.3,1.5-.4,2.2-.8,2.1-1,1.3-3.7,4.1-4,4.4-.5,3.4,2.3,5.1,3.8s4.6,1.1,4.6,4-2.2,3.4-2.6,4.4,0,1.7-.6,2.7c-.9,1.6-2.7,2.6-4.6,2.4s-1.7-.9-2.4-.9c-1.2-.1-1.7,1.2-3.8,0Z"/>
  <path class="st133" d="M100.9,62.3c3.8-1.1,2.9,3.1,3.9,4.5s4.8-.3,4.8,3.5-3.4,1.6-4.7,2.3-1,4.6-2.6,5.3c-3.3,1.5-2.8-4-4.4-5.1s-4.4.2-4.5-2.5c-.2-3.9,3.4-1.8,5-3.3s.7-4.2,2.5-4.7Z"/>
  <path class="st87" d="M162.2,78.8c-1.3,2-.3,4.4-1,6.6-4.2-.3-9.6,0-13.9,0,1.8-1,6.7.4,8.1-.6s0-9.1,2.9-10.4,2,.6,1.9-.6c1.6,1.1-1,3.2,2,5Z"/>
  <path class="st49" d="M78.1,69.2c4.6-.7,4.4,7.5,0,6.4s-3.4-5.9,0-6.4Z"/>
  <path class="st215" d="M191.2,71.9c3.3-.2,2.9,3.9,4.1,4.7s4.4.1,4.6,2.6c.4,3.6-2.6,2.5-4.3,3.3s-1.4,4.7-4.7,3.7-1.9-3.2-2.6-3.7c-1.4-1.1-6.6-.4-4.6-4.3s3.7-1.1,4.4-1.9.3-4.4,3-4.5Z"/>
  <path class="st155" d="M263.6,122.2c.5.4.8,2.1,1.4,2.7,1.1,1.2,4,.6,3.7,3s-3.4,2-4,2.6c-.9,1.1,0,3.5-2.8,3.2s-1.5-2.6-2.4-3.6-3.3-.5-2.5-3.4,2.1-.5,2.7-1,.4-1.8.7-2.6c.5-1.1,2.2-1.7,3.1-.8Z"/>
  <path class="st35" d="M267,171.1c-4.3,4.4-8.7,8.7-13.9,12.1s-6.2,3.1-6.8,3.8,2.2,1,2.5,1.2.5.5.6.5l-6-1c.5-1.3,1.9-1.1,2.9-1.6,7.5-3.4,15.3-9.4,20.3-15.9.2.3.2.7.3,1Z"/>
  <path class="st124" d="M250.8,97c-1.8-1.2-3.1-3.3-4.6-4.6,1.4.7,3.2,2.4,4.2,3.6s.4.9.5,1Z"/>
  <path class="st114" d="M222.3,32.2c15.5-.9,27.3,14.2,23.8,29.1-5.4,22.8-37.1,23.2-44.2.8s6.1-29,20.4-29.9Z"/>
  <path class="st16" d="M169.4,10.4c24.3-2.8,34.1,30.2,13,41.4-14.9,7.9-31.9-5.1-30.8-21.2.6-9.1,8.4-19.2,17.8-20.3Z"/>
  <path class="st175" d="M122.8,277.9c-.2,0-2.4-.9-2.6-1-1.6-.9-2.8-3.9-2.6-5.7,1.1-7.6,14.2-6,11.2,3.2s-3.6,3.8-5.9,3.5Z"/>
  <path class="st26" d="M194.5,248.9c17.4-2.7,21.9,25,4.2,27s-19.9-24.5-4.2-27Z"/>
  <path class="st23" d="M267.7,225c-.2.2,0,.6-.7,1.1-1.7,1.4-3.7,1.4-5.7,1.1s-.8-.6-.9-.6c.6,0,1.1.3.3-.4-2.3-2.1-4.7-4.1-2.6-7.5l.5.6c-.9,10,12.3,6.7,6.6-1.8l.2-.8c3.3,1.1,2.4,5.6,2.3,8.3Z"/>
  <path class="st142" d="M246.2,245.5c2.2.8,4.1,4.6,2.3,6.3-1,6-9.2,4.3-10.3-.6-.5-2.5,1.7-6.1,4.4-6,1.3,0,2.3,0,3.6.3Z"/>
  <path class="st77" d="M246.2,245.5c2.5.6,2.7,2.7,4.6,4.2.2.8-.2,3.7-.6,4.4s-2.7,2.4-3.2,2.6c-3,1.2-6.5-.7-8.4-2.9l.5-.5c3.2,3,8.4,4.3,9.4-1.4,0-2.6,0-4.8-2.3-6.3Z"/>
  <path class="st195" d="M242.5,245.2c-9.2,5,.6,15.5,6,6.6,0,1.9,0,3.6-2.3,4.4s-5.1-1.9-7.6-2.5c-1.4-1.7-1.9-4-.9-6s2.8-2.9,3.7-2.9.8.3,1.2.3Z"/>
  <path class="st223" d="M265.3,216.7c2,1.9,2.7,4.8,1.1,7.3-3.6,5.5-10.3,0-8.4-5.3,1.7-2.8,4.4-3,7.3-2Z"/>
  <path class="st98" d="M286.7,145c3.7-.8,4.8,4,1.9,5.5s-5.4-4.7-1.9-5.5Z"/>
  <path class="st123" d="M174.4,235.3l-3.3.3c-1,0-3.6-.3-4.3-1.1s-1.1-2.5-1.6-3.3c-1-1.6-3.1-3.4-2-5.3s4.9-4.7,5.5-5.1c3.3-2.3,4.2-.4,6.5,1.1s5.5,2.5,4.2,6.6-.8,1.3-1,2-.1,1.7-.5,2.5c-.5,1.2-2.2,2.1-3.4,2.4Z"/>
  <path class="st204" d="M159.4,238c6.8-1.4,7,9,.1,7.3s-3.8-6.6-.1-7.3Z"/>
  <path class="st64" d="M189.5,228c4-.9,4.9,3.9,2.3,5-4.5,1.9-5.7-4.2-2.3-5Z"/>
  <path class="st218" d="M174.4,235.3c-1.3.3-1.9.4-3.3.3.8-.7,2.3-.2,3.3-.3Z"/>
  <path class="st176" d="M239.2,100.9c2.4,1.2,3.8,1.2,4.2.2l.4-.2c.3.4.4.7.7,1,.6,1.9-1,4.8-2,6.6-2.2,3.8-4.9,7.5-9.7,5.2-4-1.9-10.8-4.9-15-2.1s-2.4,4-.2,3.5c-.1.8,0,1.6.1,2.3.6,1.5,1.5,2,2.9,2.6,9,3.7,16.7,1.6,23.9,10,.3.4.4.7.3,1,1.1,4.3,1,10.3,0,14.7-3.8,18.5-25.2,21.5-40.1,14.7s-7-3.3-7.9-6.2c0-.6.3-1.1.7-1.6,1.2-3.8,4.3-9.5,9-7,4.9,2.8,17.7,8.4,22,2.3s1-5.1-.8-7.1c-.4.9-.9,1.4-1.5,1.4-.5,0-.8-.9-1-1-1.2-.8-1-1.2,0-2.1-1.1-1.2-2.8-1.7-4.4-2.2-6.2-.8-11.9-2.8-17.1-5.8-.6.9-1.1,1.4-2,.5-1.1-1.3-1.7-2.1-2.6-3.6-.2-1.4-.2-2.9,0-4.4-.2-3.4,0-6.8,1-10.1-.3-.1-.6-.4-.5-.6.5-1.5,1.9-4.7,3.3-5.4s.6.2.8.4c0-.3.2-.3.3,0,4.5,2.4,6.6-.5,2.8-3.7-.1-.3-.2-.7.2-.9-.2-.2-.2-.5-.2-.7s5.6-5.2,5.7-2.6c-2.7,6.4,7.7,4,4.7,0-3.7-2.9-1.5-3.2,1.7-3.5s8.5-.5,11.6.3,7,2.2,8.1,3.2.4.6.5,1Z"/>
  <path class="st1" d="M59.3,96c1.8,3.2,1.7,5.5,2.5,8.9,4.9-4.5,8.6-12.1,14.8-15,7.6-3.6,17.9-1.3,21.8,6.4.4,0,.4,0,.7-.2s.7-1.3,1.3-2c1.2-1.3,2.7-2.8,4.2-3.7,7.7-4.6,20-2.4,23.3,6.5,1.9-2.1,2.5-3.6,5-5.3l1.6,1.5.7,2.8c.7.7-1.2,2.6-2,2-.6.4-1.2.9-1.7,1.3-.5,0-1-.2-1.5-1-1.1.6-2.1.9-2.8-.3-2.5-4.5-2.9-2.2-1,7.1.6,10.9,1.1,21.7,1.4,32.6.9,1.9.7,3.3.1,5.2,1.5,2.1,1.2,3.1,0,5.1l-1.3,6.8c-.7,4.7-2.1,9.1-6.2,12-1.5,2.6.9,3.2,3.1,3.2l.3.8c0,1.1-1.9,2.2-2.6,1.3-.3.8-1.3.8-2.2.6-1.7-.7-3.4-1.5-5.1-2.3l-.7.4c-1.5-.6-3.5-1-4.9,0l-.7-.3c-1.2-1.8-1.9-4-2.1-6.3-1.4-1.2-1.8-2.2-1.3-3h.9c6.2,7.3,18.6,4.7,19.2-5.5-.1-14.7,0-29.4.3-44.1,0-4.4,0-8.3-1.6-12.2-.5-.6-.6-.7-.4-1.5-.1.3-.2.3-.3,0-1.3-.7-2.1-1.6-2.3-2.6-.7.8-1.1.2-1.3-.7l-.9.3c-6.8-3-14.3.9-15,8.5-.4,13.2-.5,26.3-.2,39.5l-.4,1c-.4,3-.3,6.2,0,9.3,1,.1.9,2.4,0,2.6.3,1.1-.8.9-1.2,0l-.2-10.7c-.2-.2-5.1-.8-5.1,0,.2,1.2.5,3.4-1.1,3.5,0,.3-.2.3-.3,0l-1.5-.9c-4.8-5.6-9.3-11.2-13.7-16.8l.3-.8c-.8-.9-2.2-2.9-1.4-4,4.5-5.6,9.2-11,13.9-16.2,2.7-3.5,4.7-6,2-10.2l.4-.7c-1.1.1-1.9-1.4-1.7-2.3h-.9c-8.8-6.5-17.3.5-22.3,8.3-3.3,5.2-7.1,10-11.5,14.3h-1c-.7.4-.9,0-1-.8.4-6.3.2-12.6-.8-18.7-.5-.7-.5-1.3-.1-1.8,2.5.7,1.7-1.7,2.6-2.2s1.5.8,2,.2Z"/>
  <path class="st206" d="M136,102.6c.8-.2,1.1.3,1.1,1.4-.7,6.4-.7,13.2-.4,19.8s1,3.3,1.4,3.2c3.4-1.1,6.5-1.7,8.8,1.7,3.6,5.3-1.8,8-6.5,6.8-1.3-1.5-3.2-2-3.2.6,0,4.5.8,9.6,2.4,13.7,1.3-.5,2.4,0,3.2,1.5,1,0,2,0,3-.3,2.7.5,6.1,1,4.2-2.7l.5-.6c18.2,4.2,31.8-14.2,18.7-29.1l-.2-1c-.9,0-1.2-.3-1-.7-2-1.2-4.5-2.2-7.5-3.1l-.8-.9.8-.6c3.7.9,7.3,1.8,10.8,2.6,3.8,2.7,4.6,6.2,5.3,10.5l.7,1.6c2.2-.8,4.5-1,6.7.2,1.1-.4,2.1-.3,2.8.2.7-5-.6-10.2-2.4-14.8,0-.8-.1-1.7.4-2.4-1.4-1.2-1.7-2-.8-2.5.2-.2.5-.2.7,0,1,1.5,1.8,2.7,2.6,4.3.8,1.2.9,3.3.2,4.3l.2.7c.1,1.5.5,2.8,1,3.9,3,15.2-3.8,32.5-18.8,38.5-2.7,1.1-6.6,2.5-9.3,1.5l-.6.7c-6.1.3-12.3.6-18.4,0s-3.9-.4-5.3-1.1-1.9-1.3-1.6-2.1l-.3-.6c-.4-17.9-.3-35.6.4-53.1,0-1.1.2-1.7,1-1.9Z"/>
  <path class="st107" d="M185,107.5l-.2.2c-.2,0-.4-.2-.5-.2-1,1.3-3.4-.1-4.5-.9-9.3-8.8-21.7-9.1-33.8-8.6s-7.4.6-9.2,4.4l-.7.2c-.5,1.9-.6,6.9-.7,9.1-.5,14.7.2,29.9,0,44.7,0,.6.2,1.5-.3,1.8-.2.8-2,1.6-2.6,1-1.4-.4-2-3.4-2-4.8.3-11.7.2-23.4-.4-35.2-.1-5.7,0-11.4.5-16.9s.3-2.1,1.2-2c-.2-.9.4-2.3,1.3-2.3.3-.3,1.7-1.8,2-2,4.7-3.5,14.4-2.5,20-2.3s5.8-.2,9.1.5c8.4,1.6,16.1,6.4,20.8,13.4Z"/>
  <path class="st119" d="M123.5,170.7c-1.8-.8-3.6.5-4.4-2s1.4-2.9,2.6-4.3c3.1-3.8,2.9-4.9,3.9-9.4.6-2.6.9-4.8,1.4-7.2s1.1-1.8,1.2-2.4-1.1-1.9-1.1-2.6.6-1.6.6-2.7-.6-1.7-.7-2.6c-.4-2.9-.2-7.4-.3-10.6-.4-9.3,0-19-2.1-28s-.3-3.8.9-3.9,2.1,2.7,2.8,3.1,1.8-2,3.3,1.1c.3,0,.4.3.3,1-.3,1-.6,1.7-.7,2.8-1.3,16.5,1,34.7,0,51.3.2,1.6.7,3.3,1.3,4.8.8.4,1.5,1.1,2.1,2.3.9.7,1.4,1.5,1.6,2.3-.7.2,0,1,.2,1.3.8,1.1,1.5,1.2,2.8,1.5l-3,3.3c-.9.6-1.2-.5-1.7-.7-2-.9-3.6,1.6-5.6.2-1.4.4-2.9.9-4.4,1.7l-.9-.3Z"/>
  <path class="st54" d="M247.2,151.9c-3.8,10.1-15.3,15.5-25.6,15.6s-25-3.3-27-13.6c.5-1.1,2.1-.8,2.3.3.9.4,1.8,1.9,2.7,2.5,16.9,11.8,45,8,45.3-16.5v-9.1c4.7,5.4,5.2,14.3,2.3,20.8Z"/>
  <path class="st92" d="M196.2,120.1c-1.3-6.4,1.2-13,5.3-18,9.4-11.6,30.2-12.6,41-2.5,1.4,2.7-1.6,2.3-3.3,1.3-3.9-2-7.1-3.6-11.7-4s-10.7,0-11.4.7,1.5,1.5,1.8,2c3.5,5.6-9.2,7.6-5.8,0-.5-.4-4.5,2.9-5,3.6,0,.3-.2.3-.3,0-.5,1.9-1.4,3.4-3,4.6-1.6.3-3.1,4.1-3.6,5.6-.6,1.9-.9,3.9-.9,5.9-1.6,1.8-2.7,2.1-3.1.7Z"/>
  <path class="st202" d="M192.3,139.3c-1.4,11-14.7,23.1-25.1,25.5l-4.9.4c-2.8.3-3.3-.3-1.7-2.5-1-.8-1-1.6.3-1.9,18.6-1.8,29-17.5,28.1-35.6-.1-2.8-1.1-5.6-1-8.4-.6-1.3.3-2.3,1-.8l.4,3.8c1.2-.3,1.9.5,2.2,2.3,1.3,5.6,1.5,11.4.6,17.2Z"/>
  <path class="st161" d="M196.9,154.2c-.7-.3-1.6-.4-2.3-.3-.8-4.3.8-7.2,3.8-10.3,5.3-5.5,10.2.2,15.7,2.1s12.3,3.6,12.5-2.6-.3-.7-.3-.9c0-.3.9-1.9,1-2,1.3-.9,2.9,3.2,2.9,4.4-.1,6.9-8.6,7.1-13.5,6s-10.8-5.4-13-5.1-3.8,3.2-4.5,4.5-.9,3.7-2.4,4.1Z"/>
  <path class="st55" d="M180,169.7c1,0,2,0,3,0,1.6.2,3.3.3,5,.3,4.8.7,7.1,1.6,9.3,6,.7,1.3.3,1.4-1.3.3-.7.5-2.8-.4-2.6-1.3-5.7-1-11.7-1.2-17.5-.7l-1-.6c0,8.3-.5,16.6-1.2,24.9-.6,1.2-3-.1-3-1.3-.2-6.8,0-13.6.2-20.3,0-2.2-.5-4.8,1.3-6.4s5.8-.8,7.9-.9Z"/>
  <path class="st60" d="M217.7,117.5c-.3-.7-.5-1.1-.3-2-1.3,1.4-1.8-.5-1.6-1.7.6-4.2,6.8-4.1,9.9-3.5s7.5,3.5,10,3.5c4.3,0,7.7-8.4,8.7-11.9,1.9,2.7,2.5,4.1,1.9,7.7s-4.7,8.3-8.1,8.8c-5.3.6-12.6-7.3-18.9-4.1-1.5.8-1.9,1.4-1.7,3.1Z"/>
  <path class="st39" d="M162.5,170.4c.8.6,1.7,2.1,2.3,3,.3.6.3,1.3-.5,1.1-.6-.6-5.4-1.2-5.5-.5-.2,5.3-.4,10.7-.5,16-.2,1.8-.5,3.5-2.2,4.5-.3,3.8-7,5-9.6,3-.7.7-1.6-.2-1.3-1-1.6-.6-2.2-3.2-.3-3.6h.7c8.7,5,8.9-7.3,8.2-12.9.4,0,.6-.4.7-1l-.6-.4c-.3-2.8,0-7,2.2-8.5h.4c2.3-.6,3.8-1.3,6,.3Z"/>
  <path class="st94" d="M135.1,158.2c.3,0,1.2,1.2,1.7,1.5,3.8,2,19.3,1.6,24.1,1.2-1,1.3.3,1.3.3,1.5.2,1.3-.9,1.4-1,2.4,2.3.4,4.6-.1,6.9,0-5.8,1.3-16.6,1.3-22.7,1s-6.1-.4-8.4-2-2.8-2.7-3.6-4.6c.5-.4,2.1-1.1,2.6-1Z"/>
  <path class="st5" d="M242.2,119.2c.6.6-1,5-1.3,5.2-1.4.9-6.1-1.4-7.8-1.9-3.3-.9-11.2-1.7-13.3-4.3s2.5-4,5.1-3.7c4.4.5,7.7,3.8,11,4.5s6-.2,6.3.1Z"/>
  <path class="st214" d="M141.7,170.1c1.6-.2,3,2.6,2,3.6.3.7.2,1.3-.6,1.1-4.1-1.7-5.7,0-4.7,5.2-.7,6-.6,11.9.4,17.6l-.7.2c-1,.3-1.9-.2-2.6-1.7-2-5.4-1.7-6.6-1.6-12.1s-.7-10.7,1.6-13.1,4.6-2.4,6.3-1Z"/>
  <path class="st43" d="M141.7,170.1c.8-.7,2.7.3,3.5.3h7.9c.3,0,1.4,1.3,1.8,1s.2-.9.8-1.4.8,0,.8,0c-.5.6-1.4,1.4-1.6,2.2-.4,1.6-.3,4.9-.4,6.7,0,2.2-2.4,1.7-4.1,1.2-1.3-.8-4.6-2.8-4.8-.4-.9,1.2-1.3.5-1.2-2l-.5-3.4c-.3.4-.4.2-.3-.7-.5-1.5-.5-2.4-2-3.6Z"/>
  <path class="st57" d="M225.3,141.3c-2.9-1.8-12.6-2.6-16.8-4.2s-4.6-2.8-6.7-5.4c1.2.2,1.5-1.2,1.7-1.3.2-.2,4.1,2.4,5,2.7,2.1.8,4.9,1.5,7.1,2.1,3.6,1,7.9.9,10.6,3.9-.5.6-1.8,1.1-1,2.2Z"/>
  <path class="st67" d="M128.8,169.4c0,.1,0,.2,0,.3,0,.9-.6,2.3-.7,3.5-.2,4.4.4,8.7.3,13.1h-.6c-1.8,3.5-4.3,2.2-6.6.7l-.7-.3c-.8-1.9-1.1-13.9-.6-14.4l.9-.2c.7-.2,1.9-1,2.6-1.3,1.6-.7,3.3-1.3,4.8-2.3.3.2.5.6.5,1Z"/>
  <path class="st180" d="M192.3,139.3s-.5-.1-.4-.8c.7-5,1.3-12.3-.8-17s-1.1-.8-1.9-1.1-.6-3.6-.9-4.6c-.6,0-.3.6-.3,1-1-1.6,0-3.3-.3-5,0,0,.5.3.7.7,4.4,8,5.6,17.8,3.9,26.7Z"/>
  <path class="st216" d="M199.2,128.1c-1.6-2.8-2.3-4.8-3-7.9.5.5,0,.9.8.3s2-1.6,2.1-1.7c.2-.3.3-3.1.5-4s.4-.9.6-1.2c-1.5,4.9.7,9.9-1,14.6Z"/>
  <path class="st48" d="M174.1,196.9c0,2.4-.6,3.7-2.6,5.1l-.7-.4c0-.2-.5-.6-.4-1.1,0-7.8.1-15.6,0-23.4h.3c-.2,6.7.1,13.5,0,20.3.4.4,2.3,1.6,2.7,1.2l1.3-24.8c.6.9.6,1.6.5,2.6-.4,3.7-.7,7.6,0,11.3,0,3.1,0,6.5-1.2,9.2Z"/>
  <path class="st38" d="M247.2,151.9c2.6-7,1.8-14.6-2.3-20.8-.2-.3-.4-.6-.3-1,.3.4.8.6,1.3,1.2,3.8,5.2,4.7,15,1.4,20.6Z"/>
  <path class="st146" d="M243.8,100.9c.3,3.3-3.2.7-4.6,0,1.6.3,3.3.9,3.3-1.3.5.5.8.7,1.3,1.3Z"/>
  <path class="st124" d="M249.1,98.9c1.1-.3,1.5.7,1,1.7-.2-.4-.8-1.3-1-1.7Z"/>
  <path class="st171" d="M52.7,96.6c.1.1.5.2.7.3.9,1,1,2.4.4,4.3-.1,1.9-.5,17.1.8,17.9.7,0,1.3,0,1.8.2l.3.8c-3.4,7.2,0,5.6,3.7,1.1,5.8-7.4,11.7-14.6,17.8-21.5,1.9-1.9,3.8-3.3,6.7-2.9,2.9.7,5.4.6,7.6-.3.7.7,1.2,1.4,1.7,2.3.2.5,0,.8-.4.8-.5,3.2-2.4,5.9-4.5,8.3-5.1,5.4-10.1,11.6-14.2,17.7,2.1,1.2,3.1,2,4.3,4.2.5,1,2.6,3.4,3.5,4.6,3.6,4.8,7.9,9,11.4,13.9,1.4,3.6-1.2,9.5-4.4,11.6-5.9,3.9-11.1.2-14.6-4.9-4.4-6.4-9-12.7-14.9-17.6-1.1-.5-2.1,0-2.7.9-1.5,3.4-2.6,6.9-3.4,10.5,1.2,8.5-3.4,14.9-12.6,12.3s-3.3-1.4-3.2-2.3c.1-10,.1-20.1,0-30.3,3.7,0,5.4-4.7,1.2-5.4-.8-.6-1.2-1.5-.1-2,.3-4.9.4-9.7.1-14.6,2,.9,3.9,0,5.6-2.8,1.5-.8,2.7-1.7,3.5-2.9.5-2.2.9-2.4,2.9-2.5,0-2.3.5-3,1.4-2Z"/>
  <path class="st15" d="M96.4,176c1.4.2,2.4.6,3,1.3,0,.2,0,.3,0,.5-.1.3-5,3.9-5.8,3.4-2.7-2.9-8.3-3.5-11.6-1.2s-2.8,4.2-3.1,5.6c.5.5.6,1.2.3,2.1.3,1.2.2,2-.3,2.5l1.1,2.9c0,1.4.6,2.4,1.8,3l.8-.3c3.4,1.8,8.6.7,11.4-1.8h.8c1.6-.2,3.3,0,5,1.1.5-.7.7-.5.7.3,0,.1-.1,1.9-.3,2.6-.7.4-1.1,0-1.2-1.1-6,6.4-15.6,8-23.1,3.1-.7,1.4-1.4,1.8-2.2,1.3-.1-.1-.2-.2-.3-.3l-.3-1.4c1-1.6.6-3.3,0-4.9-.4-.9-.7-1.9-1-3-1.3-.9-1.5-4.6-1.1-6.2,2.8-13.5,13.7-15.6,25.1-10.6l.5.9Z"/>
  <path class="st13" d="M50.1,94.3c1.2,0,.6,3.4.3,3.6l-2.3-.3-.7.6c-3.9-.6-7.1.8-7.6,5s-.7,7.3-.3,11.2l-.3,7.1c-.2,2.3,1.3,1.1,2.5,2.3,2,1.9-.2,6.2-3.2,5.3.6,6.4.3,12.9.3,19.4s.6,6.9,0,9.6.3,1.3-.7,1.1c0,.3-.2.3-.3,0-1,0-2.2-.2-2.5-1.3-.9-18.5-.4-37.1-.4-55.7.9-7.8,8.4-10.3,15.1-7.9Z"/>
  <path class="st119" d="M94.4,148.6c0,0,.6-1.2.6-1.9s-.7-2,.4-2.6,5.7.3,5.9.6l.2,11.4.6-.2c.9,0,2.1,2.3,1.3,3,.7-.2.8.3.3,1.3,1,0,1.1.5.3,1,.6,1.6,1.7,2.2,1.9,2.9s.1,1.9.4,2.9,1.4,2,1,3.5v.8c-1.7,3.1-2.3,6.6-1.7,10.6l-.7.5c-1.5-1.9-.7.3-.6,1.5s.2,2.3-.3,2.5c-.7-1.4,0-3-.3-4.4s-.8-1.1-1-2c-.2-1.3.4-2.6.2-3.6s-1.7-3.5-2.1-3.9c-1.1-1-3.9-1.5-5.1-.4l-.9.2c-4-2.1-8.7-2.6-13.2-2l-.8-.5c-2.6-1.8,1.8-3.7,3.5-4s5.2.3,6.1-1c-.2-.2-.3-.4-.2-.7,5.9-2.3,8.8-8.9,4.3-13.9-.2-.5-.4-1.2-.1-1.6Z"/>
  <path class="st141" d="M105.6,200.2c.2-.6.9-.9,2-.8l.8-25.4c1.7-1.6,4-1.8,6.8-.6l.8.5c.5,6.6.6,13.2.2,19.8l-.3.6c-.3,1.5.1,2.4,1.2,2.5,4.7.4,9,.4,13,.2.8-.6,1.1.3.7,1,.4,1.9-.2,3-1,4.6-.6,1-1.2.7-1.6-1-3.7,1.5-9.7,1.7-13.8,1.3s-4.3-.5-6.5-1.6c-.8.1-1.5,0-1.8-.4,0-.2-.3-.4-.3-.7Z"/>
  <path class="st33" d="M97.4,182.6c.7,1,.1,2.5.4,3.7s1.2,1.4,1.6,2.4.1,2.4.4,3.6,1.5,2.8,1.2,3.2-.6,0-.6,0c-.2-.1-.5-.2-.7-.3-1.2-.2-2.9-.9-3-2.3l-.8.2c-.7-.6-1.5-1.1-2.4-1.5-2.4,2.4-7,4-10.4,3.3s-2.6-.5-2.3-1.7c-.3.2-.5.2-.8,0l-1.2-3.1c-.2-1.8-.6-2.8,0-4.6,1.3-7.5,11.2-6.4,15.2-1.6,1.2-1,2.3-1.4,3.4-1.4Z"/>
  <path class="st84" d="M94,148.6h.3c0,.3,2.6,3.9,2.8,5,1,4-1.5,8.1-4.7,10.2s-1.8.6-2.1,1.1c-2.9.3-7.6.9-10.2-.2s-8.2-9.4-10.6-12.5-6.9-7.4-8.8-11.4-.7-2.6-.8-2.7c-.3-.3-2.4.1-2.6.6.8-1.5,1.3-1.8,3.2-1.1s8.4,8.4,10.3,10.8c3.3,4.2,7.6,13.1,13.7,12.7s9.1-6.6,9.4-12.6Z"/>
  <path class="st205" d="M95.7,172.1c1.6,1.1,2.3,2.4,3.3,4,.2.3.2.5,0,.7l-2.6-.7c-9.8-4.6-20.9-4.2-24.5,7.8-1,3.5-.5,4.7,0,8.1,1,2.1,1.9,7.8-1.7,4.6-5.1-10.2-1.6-24.3,10.6-26.8,4.4-.9,11.1-.2,14.9,2.3Z"/>
  <path class="st145" d="M120.8,172.1c-.5.3-.3,1.3-.3,1.8,0,4.2-.1,8.5,0,12.7.7.4,1,1.4.4,1.9,1.2-.2,5.8-.5,6.4,0s.3.3.5.5c1.7.1.7.4,1.5,1.6s.8.4,1.1.9c.7,1.7,1.1,3.8.9,5.6s.6.9-.5.8c0-.5-.5-.7-.7-1-.6,0-1.2-.3-1.8-1.1-3.8-1-7.8-1.3-11.9-.9l-.6-.6c-.5-.3-.3-1.3-.3-1.8,0-5.2.8-14.4-.3-19-.8-.4-2.1-2.2-1.7-3,.5.1,1.3,0,2,.2,1.1.3,2.6,1.3,3.2,1.5s2,0,2.1,0Z"/>
  <path class="st106" d="M156.2,194.6c2.5-3.9,1.5-9.9,1.6-14.4s.6-4.1.4-6.2c.5-1.6,4.5-.6,5.8-.3s.8,1,.8-.3c0,.1.2.2.3.3.3,4,.5,8.1.4,12.2-.5,2-.7,4.1-.7,6.3-.3,1.8-.5,3.8-1.3,5.6-.7.4-1,0-.9-.8.4-1.1.2-3-.7-3.2-1.2-.8-2.8-.5-4.6,1l-.7-.3c0,.3-.2.3-.3,0Z"/>
  <path class="st29" d="M57.3,138.6c-.1.3-.6,3.6-.7,4.1-.4,5.3.9,16-2.5,20-4.5,5.4-16.6,4.4-18-3.3.6.3,1.5-.3,1.7-.3s.2,0,.3,0c.7.1,2.9,1.5,4,1.8,3.4.9,6.6.4,9.1-2.1s1.8-6.8,2.1-10.8,2.6-7,4-9.4Z"/>
  <path class="st2" d="M113.6,170.4c1.1,1.1,1.3,1.5,1.7,3,.1,1.1-.3.6-.9.4-1.7-.3-4.1-1.2-5.3.4l-.7,25.9h-2.6c-1.3-4.3-.7-13-.7-17.9s-.7-9.3,2.3-11.9,3.4-.9,5.3-.5.8.5,1,.5Z"/>
  <path class="st0" d="M73.5,201.5c1.6-1.1,1.8-1.2,1-3,4.4,3.4,9,4.6,14.6,3.5s6-2.5,8.9-5,.6-1.1.6-1.2c.9-.8.6,2,1.3,2.3-1,3.5-5.8,6.6-9.2,7.5-6.1,1.6-12.9.5-17.3-4.2Z"/>
  <path class="st8" d="M163.5,197.9c-3.6,8.2-14.2,10.5-21.8,6.6-1.5-1-3.8-2.9-4.2-4.8s-.2-1.7.8-1.2h.9c3.8,3.3,8.4,3.9,13.3,3.3l.4-.7c3.7-.4,7-3.4,8.1-7l.7-.3,1-2.3c-.5,1.5.6,3.1.7,4.2s-.7,1.6,0,2.1Z"/>
  <path class="st46" d="M52.7,96.6c-1.5-.1-.4,1.6-.8,2.3s-1.8.2-2.2.5-.6,2.2-1.3,3-2.3,1.4-3.1,2.2c-1.8,1.6-3.2,5-5.8,2.6-.4,2,.4,4.2.4,6.1s-.5,5.7-.7,8.1c.4-5.8-.5-12.3,0-18s4.4-6.7,8.9-5.8c2,.8,2.9,0,2.8-2.5h.5c1,.6,1,1.3,1.3,1.5Z"/>
  <path class="st78" d="M105.9,200.8c1.8-1,3.5.5,5.2.9s2.4.3,3.2.4c2,.1,11.4,0,12.7-.8s.6-2.5,1.8.2,0,1.2.8,1c-.6,1.3-1.2,2.7-2.8,3-5.1-.4-11.2.6-16.2,0s-3.9-2.5-4.8-4.6Z"/>
  <path class="st80" d="M97.4,182.6c-1.2,1.1-2.3,1.3-3.5,2.3-3.5-5-12.9-6.1-15,.7-.4-1.4.4-2.1.8-3,.6-1.5.4-2.1,2-3.3,2.8-2,7.4-1.6,10.4-.2s.8,2.6,4,.3,1.1-1.6,3.3-2.1c-.4-.4-.2-.6.3-.3.4.8,1,1,.6,2.4s-2.6,2.9-2.9,3.2Z"/>
  <path class="st136" d="M54.7,98c2.5,3.2,1.6,14.9,1.6,19.4s-.2,1.3.3,1.8c.5.5.3.7-.3.3-1.5.8-2.6.8-3-1.2s-.3-4.6-.4-6.2c-.2-4-.3-9.8.4-13.5s.3-.9,0-1.5c.3.3,1.1.7,1.3,1Z"/>
  <path class="st200" d="M128.4,186.3c0,1,.4,2.2-.7,2.6-2.4-.2-4.9.1-7.3,0,0-.8,0-1.5,0-2.3,1.7-1.2,2.2,1,3.2,1.3,2.8.8,4.1-2.3,4.1-4.6l.7,3Z"/>
  <path class="st129" d="M165.1,173.7c0,.1.5,0,.7.8.4,2.5-.2,6.2,0,8.9s.6,1.4.6,1.9-.9.8-.9,1.1c-.3,1.6-.3,3.9-.7,5.7l.3-18.5Z"/>
  <path class="st118" d="M138,197.9c.9-.2,1,0,.3.7,0,0-.5,0-.3.7.6,2.6,1.8,3.4,3.6,5.2-4.1-2.1-4.8-4.2-6.3-8.3.7.5,2.1,1.1,2.6,1.7Z"/>
  <path class="st3" d="M72.9,194.9c.8,1.4,1.2,6.3-1,4.3-.8-1.1-1-1.3-1.7-2.6,3.6,1.6,1.9-2.7,1.7-4.6.6.8.8,2,1,3Z"/>
  <path class="st115" d="M174.1,198.9c1.1,1,.2,1.9-.9,2.4.1,1,.3,2,.4,2.9s-.2.4-.5.3c-1.5-.9-1.8-1.2-2.3-3,.7-.2,2.6-1.5,2.8-2,.4-.9-.2-2,.5-2.6,1.1.4.8,1.4,0,2Z"/>
  <path class="st197" d="M73.2,201.2c-.7-.8-.9-1.3-1.3-2,2.1.7,1.2-3.3,1-4.3,1.3,2.1,1.1,4.1.3,6.3Z"/>
  <path class="st193" d="M51.4,95l-.7,3.3c-.3.3-2.2-.6-2.6-.7.4,0,1.9.1,2,0s.4-2.9,0-3.3c.6.2.8.3,1.3.7Z"/>
  <path class="st12" d="M99,176c.2.3.4.3.7,1,0,.1-.2.3-.3.3-1.1-.4-2-.9-3-1.3.9-.3,2.1.7,2.6,0Z"/>
  <path class="st36" d="M209.5,220c1.2,0,.4.3.4.2,0-.5,2.1-1.6,2.6-.8,4-1.8,9-4.3,13.4-5s4.4.7,6.7-.5,3.8-4.4,5.2-6c3.5-3.8,7.6-5.9,12.1-8.3v-.4c.9-.2,1.8-.5,2.6-.9.1,0,.6,0,.8.3.6.6,1.1,2.2.5,2.9-2.2,1.6-12.9,7.2-13.5,9.3s.2,4.3.3,5.2c.3,3.3,3.8,14.2-2.6,10.6s-6-4.9-9-6.9-2.1-1.8-4.1-1.2c-3.2.9-12.2,6.5-14.8,5.6s-.8-2.9-.6-3.9Z"/>
  <path class="st213" d="M212.4,219.4c-.9.4-1.8,1-2.8,1.3l-.2-.7c1-4.5,3.9-8.7,4.3-13.2,1.2-.9,3.1,0,3,1.8s-2.8,7.8-3.5,9.4-.5.9-.8,1.3Z"/>
  <path class="st68" d="M251.8,197.9c.7.7-1.5,1.2-2.2,1.3-3.7-.4-7.3-.9-11-1.6-2.6-.3-2.7-.7-2.7-3.5s.4-1.1.4-1.1c0,1,1,1.2,1.7,1.4,4.4,1.5,9.5,1.5,13.8,3.5Z"/>
  <path class="st137" d="M251.8,197.9c.2.1.5.2.7.3-.4.9-1.9.9-2.6,1.3l-11.2-2c3.2.4,9.1,1.7,11.9,1.1s1.2-.2,1.4-.8Z"/>
  <path class="st91" d="M54,182.3c.5.9,1.3,1.2,1.6,2.2,1.3,3.4,1.6,9.4,0,12.7.4,2-1.7,4.2-3,5.7s-3.2,3-5.1,4-5.2,2.9-7.4,2.2c-2.7.6-4.6.2-6.9-1.4-1.8-1.1-3.4-2.2-5-3.2-1-1.7-1.8-3.6-2-5.6.7-.4,1.1-1.3,1.2-2.4l.7-.2c.5.5.8,1.4,1,2.6.7-.2,1.4-.3,2-.3.3-.5.9-.7,1.8-.8.5-.7,1-1,1.5-.9.4-1.9.2-3.9-.6-6l.6-.6c-.9-.5-.3-1.5.7-1.3,0-1,2.1-1.9,3-1.3.2-.5.8-.8,1.8-.8,2-2.5,4.2-3.4,6.7-2.9v-.9c-.9-2-.7-3.1.7-3.3,2.5.6,4.4,1.3,6.6,2.6Z"/>
  <path class="st160" d="M61.6,200.2c-3.2,11.2-17.2,17.8-27.1,10.6.4-.5,1.1-.5,2-.1.2-1.2,1.4-1.7,3.6-1.5,7-1.8,12.3-5.2,15.5-11.9l4.1-1,1.9,4Z"/>
  <path class="st76" d="M47.4,179.7c-1.2,1.3,0,2.2,0,3.5.1,2.4-1.7.7-3.4,1.2s-3.1,2.7-3.9,3.1-1.5,0-2,.2h-1c-.7-1-1.5-1.5-2.3-1.3-.3,1.8-1.6,3.5-3.3,4l.2.8c-1.4,1.2-2.3,2.5-2.8,4.2l-.7.3c-1.3,2.5-2.4.7-1.7-1.7.2-5.8,5.5-12.1,10.9-14.1s6.3-1,9.9-.2Z"/>
  <path class="st147" d="M40.1,209.1c-.7.2-2.1.3-2.3.5-1.2.7.3,2.6-3.3,1.2s-4.8-3.7-6.3-6.3c.7-.6.8-.1,1.3.2,3.3,1.9,6.5,4.8,10.6,4.5Z"/>
  <path class="st47" d="M26.6,193.9c0,.8,0,1.5,0,2.3l1.7-.7c.8,0,.8.4,0,.7-.4,1.2-.5,2.5-1.3,3.5l-.7-.8c-.1-1.4-.2-3.7.3-5Z"/>
  <path class="st186" d="M136.7,223.3c3.5,4.5,1.3,12.3-2.4,16.1-3.8,3.9-11.4,6.7-16.1,3.1-.9-1-1.4-1.8-2-3-.4-.9-1.7-5.4-.5-5.7s.4,0,.6.1c1.2,1.2,1.9,1.9,3.6,1v-.8c.9-.7,1.1-1.5.4-2.5-3.4-4,.8-7,5-6.8.9-.5,1.6-.5,2.2-.2,2.2-1.4,2.9-2.8,2-4.4l.6-.5c3,.6,4.5,1.5,6.6,3.6Z"/>
  <path class="st50" d="M118.2,242.5c6.6,2.7,15-.6,18-6.9s2.3-9,.5-12.3c14.1,14.2-6.3,32.4-18.5,19.2Z"/>
  <path class="st89" d="M125.8,219.7c5-.9,5.4,2.5,1.7,5-2.5,1.4-3.6.8-5.7,1.4s-2.3,2.3-2.1,3c.3,1.5,3.6,3.7.3,5.8-1.4.7-2.8.3-4.2-1.2-.5.4-.9.4-.9-.2v-2.9c1-5.4,5.2-10.7,11.1-10.9Z"/>
  <path class="st40" d="M114.9,230.6v3c1.3-1.5,1.9,1,3,1.5s1.3-.2,2-.2c-2.3,1.5-2,.2-4-.7-.5,1.8,0,3.5.3,5.3-1.7-3.2-1.9-5.4-1.3-8.9Z"/>
  <path class="st100" d="M130.1,219.7c.4,2.9-.4,3.7-2.6,5,.4-1,2.6-2,2.3-3.1-.5-1.7-2.4-2-3.9-1.9,1.2-.7,3-.3,4.3,0Z"/>
  <path class="st182" d="M193.3,175c1,.4,1.8.6,2.6,1.3,4,1.5,2.8,7.3-.4,9.3l-.5.8c2.7,1.5,4.5,4.3,5.6,7.1,0,.1,0,.2,0,.3l-.3,3.3c0,.2-.2.7-.3,1-.8,0-1.4-.6-1.8-2-2.3,3.9-4.3,5.2-8.8,5.9s-10.2,1-14.8-.1c.3,1.3.2,2.3-.4,2.8-.3-.1-.8-.2-1-.3,0,0,.2-.4.2-.7-.2-.8-.7-2.3-.5-3.1s1.1.5,1.3-1.9c.9-1.5,4.9-6.2,6.6-4.8l.3,1.2c.5,1.3,1.9,1.7,4.3,1.4l3.8-.3.5.6c2.2-1.1,2.2-4.1,1.1-5.9-.3.4-.6.6-1.1.3,0,.3-.2.3-.3,0-2.6-.4-2.3-1.2-1.1-3-3-.2-6-.3-8.9.6-1.3.2-4.4-.1-4.3-1.6-.3-3-.2-6.6,0-9.8-.5-3.1,6.2-3.8,8.2-2.5.4,1,1,.9,1.6-.2,2.7-.6,5.5-.5,8.3.2Z"/>
  <path class="st44" d="M199.9,198.2c-1.1,3.1-2.1,3.7-4.6,5.6-2.2.8-4.4,1.5-6.8,1.7-4.2.3-10.8.8-14.4-.7l-.3-3.6c.7,0,1.2.4,1.9.6,3.7.7,13.2.3,16.8-.9s3.9-4,6.3-6.3c-.2,1.6.5,2.2,1.2,3.6Z"/>
  <path class="st53" d="M200.5,193.6l-4.1-5.3c-.8-1.1-2.9-.9-1.8-2.5s3.3-2,3.6-4.6-.7-3.5-2.3-4.8c.9,0,1.5.9,1.3-.3.4.9,1,1.4,1.2,2.6.5,2.9-.3,5.9-2.6,7.9,2.9,1.7,4.3,3.7,4.6,7.1Z"/>
  <path class="st129" d="M188,170.1c-1.6-.2-3.6.4-5-.3,1.9,0,3.1,0,5,.3Z"/>
  <path class="st44" d="M200.2,197.2c.1-1-.4-2.5.3-3.3,0,1.4,0,2.1-.3,3.3Z"/>
  <path class="st61" d="M68.9,26.2c.4,2.6,1.5,3.5,3.1,2.6l3.1-1.1.7.5c2.1-.5,4.2-1.3,6.3-2.2l.4.2v1.1c-2.9,3.7-4.8,7.9-5.7,12.5l-.9.6.2,1.1c-.8,1.5-1.4,3.1-1.8,4.9l-4.1.3-.2.7c-.9.3-1.8.8-2.5,1.5l-8.1,10.4h-.8c-.7,0-.6-.5,0-.8l-.5-.5c.9-3.3.5-7.9-.2-11.3s-1.8-.4-2.3,0c-3.9-2-9.2-2.8-12.9-5-.2-.2-.4-.5-.3-.8.2-.8,12.5-5.1,14.3-3.5,4.1,0,3.2-3.8,2.5-6.6v-9.1c-.4-1.7-.2-4.3,2-3.2,2.7,2.4,5.2,4.9,7.6,7.6Z"/>
  <path class="st30" d="M86.1,24.2c.6,1,.4,1.5,0,2.6-1,2.9-4.8,7.1-6.2,10.4s1.2,4.5,2.9,6.9,4,5.5,4.2,6.8-.7,2.7-2.1,2.7c-1.9,0-6.4-1.7-8.8-2.1s-4.8-1-5.8-.7-6.6,8.7-8,10.2-2,1.6-2.2,1.6c-2.2,0-2.4-1.2-2.2-3.1s.3-.3.6-.2l8.4-10.8c1.1-.9,1.8-1.4,3.2-1.8,2.9-.4,5.4-.5,8.2.2.4,0,2.3.3,2.4,0-2.1-1.6-5-3.7-5-6.5,1.7-5.3,2.5-9.8,6.6-14.2.1-1.1,2.4-3.2,3.6-2Z"/>
  <path class="st10" d="M61.3,18.6c-2.4.6-1.3,1.4-1.3,3.1,0,3.1-.3,6.6,0,9.6s1.5,3.1,0,5.3-4.5.9-6.7,1.2-7.5,2.3-9.3,3-1,.3-1.2.9c-.6-.3-1.7-.7-1.7-1.5,0-2.8,12.1-5.6,13.7-8.1s.8-13.1,2.3-14.9,3.1.4,4.1,1.3Z"/>
  <path class="st210" d="M82.8,23.5c1.8-.3,1.7.5-.5,2.4-2.1.9-4.2,1.7-6.4,2.3-1.1.4-4.7,1.9-5.7,1.6s-2.2-2.8-1.2-3.6c.5.6,1.4.3,2.1.2,3.8-.5,7.8-2.4,11.8-2.9Z"/>
  <path class="st95" d="M58.7,58.6c-.1.9-.8.9-1,0-.3-3-.4-7.3-1.1-10s-.5-1.3-.9-1.9c0-1.5,2.6-1.1,2.9,0,.3,3.1,1.1,6.8.7,9.8s-.5,1.3-.6,2.2Z"/>
  <path class="st178" d="M86.1,24.2c-.9-.2-3,1.3-3.6,2-2.2.6-4.2,1.9-6.6,2,1.2-.4,5.9-2.2,6.6-2.8s0-1.2,1.5-1.5l-1.2-.3c1.1-.1,2.4-1,3.3.7Z"/>
  <path class="st135" d="M58.7,58.6c0,.2,0,.5,0,.7s-.3.4-.4.8c-.1,1.9.5,1.8,2,2.5-2.9.7-2.5-2.3-2.6-4h1Z"/>
  <path class="st211" d="M138.4,61.6c.5,1.9-.6,2.7-3.3,2.4-.7.1-1,.7-1.3,1.3-.7,3.3-1.8,3.6-5,3.3-4,3.4-5,.4-3.5-3.5-.3-.9-.4-1.6-.2-2.1.2-.5.8-.8,1.7-1v-.8c1.7-1.2,2.5-2.9,1.8-4.9l.2-1.2c.2-.2.1-1.3,1.3-.8,1.8.8,1.8,4.6,2.3,5,1.4,1,4.9-.4,6,2.5Z"/>
  <path class="st65" d="M138.4,61.6c1.1,3-1.9,3.6-2.3,5.5s.6,3,.3,4.4c-.4.4-4.6-.9-5.5-.8s-6.2,2.7-7.1,2,.2-5.8,0-7.3-.6-1.2-1-1.8c-.3-.5-.5-1.5,0-1.7s3,.3,2.2,1c2.1,2.2-.3,3.6.3,6.1s2.9-.9,3.2-1c1-.3,2.5.2,3.4-.2s.7-3.9,2.9-4.4,3.9.6,3.4-1.7Z"/>
  <path class="st156" d="M126.8,61.9c-1.1.7-1.8.6-2.9,0-1.4.8-3-1.1-2.4-2.4,1.7-.9,4.5.5,5.8-1.3s.6-2,1.5-3.3c1.6,3.1.6,5.1-2,6.9Z"/>
  <path class="st196" d="M126.8,61.9c-.5.4-.9,1-1.7,1-1.2-1.3-1.9-1-2.3.7-.6-.9-3-3-1.3-4,.8,2.6,3,2.5,5.3,2.3Z"/>
  <path class="st112" d="M169.8,75.1h-4.6c-.1,0,.2-1.9-.2-2.6s-2.6-1.4-2.5-2.1c.3-1.2,2.5-.6,3-1s.6-3.1,1.8-2.8,1,2.2,1.6,2.7,2.1.3,2.8,1.1c-1.8,1.4-2.3,2.4-2,4.8Z"/>
  <path class="st88" d="M232.3,39.7c.9.5,1.5,1,2.3,1.7,1.7,1.9,2,4.6,2.1,7.1.9,14.2-10.6,23.9-24.3,20.7-2.1-1.7-3.8-3.8-5-6.3-.4-1.4-1.4-6.7,0-7.3s.3,0,.4,0h.8c3.8,4.9,6.8-3.8.8-3.8-.2-.3-.3-.4-.3-.9,0-.6,6.5-9,8.2-8.5,1.8,1.5,3.8,2.7,5.5.2h.9c.7-1.4,1.7-2.2,3-2.4.9-1.7,2.7-1.9,5.6-.5Z"/>
  <path class="st41" d="M212.4,69.2c1.6-1.1,3.1,0,5.1,0,15.1-.5,21.7-14.4,17-27.8,19.1,15.6-3.2,43.1-22.2,27.8Z"/>
  <path class="st191" d="M227.3,38.1c.2,1.7-.4,2.3-2,2.6l-1.6,2c-.8.8-1.1,1.7-2.5,2-2.9.5-3.1-1.4-4-1.6-1.7-.3-6.3,6.9-7.7,8.1l2.4.6c4.5,3.3-1.5,9.5-4.1,3.9h-.5c-1.4,2-1.5-.9-1.2-2.3.3-9.4,10.8-17.4,20-15.9.6,0,.9.6,1.2.6Z"/>
  <path class="st139" d="M206.1,53.3c0,2.7.5,3.7,1.5.7.3,0,.2,1.3.2,1.7s-.4.5-.3.8v6.5c-1.4-2.9-2.2-6.4-1.3-9.6Z"/>
  <path class="st21" d="M232.3,39.7c-1.1.5-2.5-.7-3.7-.5s-1.4,1-2,1.3c-1.3.8-1.6.9-2.9,2.2.2-.5,1-2.3,1.3-2.5.5-.3,1.6,0,1.7-.2.1-.1-.4-1.8.7-2,2,.5,3.1.6,5,1.7Z"/>
  <path class="st190" d="M184.7,21.2c2.1,4.7.6,11.9-2,16.2s-7.4,7-13.3,8.3-6.2.7-9.5-3c-.6-.7-.9-1.2-1.3-2l-1.5-7.1c-.2-1,0-1.5.8-2.2-1-.4,0-1.1.9-.6,3.2,6.2,7-.9,2-3.5-.4-.9,3.8-8,5.7-7.1,3.5,1.8,7.2-1,8.2-4.4l.7-.3c4.4,1,6.3,2.3,9.3,5.6Z"/>
  <path class="st130" d="M159.9,42.7c1.5.3,2.3,2.5,3.6,2.8s3.4-.1,4.1-.2c3.1-.4,7.2-1.3,9.8-3.1,6.8-4.8,8.4-13.1,7.3-21,1.8,2,2.7,2.8,3.5,5.6,5.6,18.3-16.7,30.8-28.3,16Z"/>
  <path class="st161" d="M175.4,15.6c-.6,3.1-3.3,5.7-6.4,6s-2.4-.8-3.2-.6-4,5-4.5,6.2c2.8.7,4.1,6.2.3,6.8s-2.2-1.8-3.3-2.7-.3.1-.3.2c-.5,1.2-1,1.4-1.3.7-.1-10,8.7-18.8,18.8-16.5Z"/>
  <path class="st192" d="M158.5,40.7c-1.4-2.8-1.9-5.4-2-8.6.6,0,.9-.4,1.3-.7-.6,1.5-.4,2.7.3,4.2l.3,5.1Z"/>
  <path class="st166" d="M202.8,256.8c2.2,4.9-1.2,11.2-6.5,12.2-1.3,0-2.4.3-3.4.7-1.2-.6-1.3-.6-2.3-1.7-2-2.8-2.2-4.5.3-6.9-1.5-.9.7-2.3,2-2.3,3.8.4,5.6-.7,5.2-3.3,0-1,.4-1.2,1.4-1.1,1.3.5,2.3,1.3,3.3,2.3Z"/>
  <path class="st99" d="M199.5,254.4c-1.2.6-.5,1.9-.8,3-.9,3.2-6,1-7.5,2.8s-.2.7-.3.8l-1.9,2.4-.8-.5c-.5-6.3,5.3-10.9,11.2-8.6Z"/>
  <path class="st189" d="M192.9,269.7c.5-.1-.3-.9.2-1,1.3-.3,2.6,0,4-.6,5-1.8,6.2-6.4,5.7-11.3,3.8,4,2.4,11.7-3.1,13.6-3,1.1-4.2.7-6.8-.7Z"/>
  <path class="st187" d="M190.6,268c-1.5-1.6-2.1-2.8-2.3-5,1.2-.1,1.6-1.5,2.6-2-.5.9-1.6,2.9-1.5,3.8l1.2,3.1Z"/>
  <path class="st104" d="M174.1,227.6c-.7,1.3,0,1.9,0,2.5s-3.4.6-4.3.9c.2-.7-.4-1.9-.3-2.3-1-1,.4-1.7,1.5-1.9s3.1-.2,3.2.9Z"/>
  <path class="st108" d="M169.4,228.6l-1.6-1.5c.4-.9,1.7-.7,2.1-1.2s.3-1.6,1-2c1.8.7,1.1,3,3.8,2.3.3.9-.6,1.1-.7,1.3-1.2-.7-4.4-.6-4.6,1Z"/>
  <path class="st163" d="M204.2,107.9c-.1,0-.2,0-.3,0-.5-.6,0-.8.3-1.2,1-1.2,1.6-2.3,2.7-3.5l.3,1.1c3.9,3.4,1,5.7-3,3.5Z"/>
  <path class="st148" d="M204.2,107.9c1.6,0,5.1,2.2,3.9-1.8-.3-1-2.2-1.3-1.3-2.9h.3c0,1.2,2,1.9,2.2,2.9,1.1,3.6-3.2,3.5-5.2,1.8Z"/>
  <path class="st97" d="M115.5,97.6c1.5.7,2.6,1,3.5.7.7-1.9,1.9-2,3.1-.4,0,0,.3,0,.3,0,.7.8.3,1.3-1.4,1.4l.4,2.5c-.2,17.1-.3,34.2-.3,51.3,0,6.7-4.9,9.7-11.2,8.3s-3.5-1.2-3.8-2.3c-.4-18.6-.1-37.9.5-55.9.4-4.2,4.8-7.4,8.8-5.6Z"/>
  <path class="st42" d="M104,161.1c-.1-.3-.2-.7-.3-1-.5-1.6,2.1-1.8,2.6-1,1.1.2,2.8,1.5,4.6,1.8,5.2.8,9.2-1.5,9.6-7,.8-10.2,0-22.1,0-32.4s.6-13.2.4-19.5-.5-2.1-.4-3.3c.1-.7,2.3.3,2-.9,1.8,1.4,2.2,5,2.3,7.1,1.1,16.5-.8,34.1,0,50.6-.8,11.2-14.5,13.7-20.8,5.4Z"/>
  <path class="st90" d="M118.5,94.6c1.2,1.1.4,4.4-1.7,3,0,.3-.2.3-.3,0-6-2-10.4,2.3-10,8.3-.3,17.5-.4,35.1-.5,52.9-1,0-1.9,0-2.8,0-.2-.7-1.2-2.1-1.3-3s0-1.8,0-2.6c-.3-3.1-.3-6.2,0-9.3-.1-12.7-.9-27.8,0-40.2.6-8.6,8.9-12.7,16.5-9.1Z"/>
  <path class="st93" d="M92.4,96.6c0,.7-.4,1.2-1.2,1.3-2.5.5-5.8-.7-8.6-.3s-5,3.5-6.4,5.1c-5.7,6.2-10.3,13.5-16,19.7-1.2,1.3-5.2,5.9-5.5,1.8s.6-3.3,1.7-4.8c.4-.2.3-.3.3-.3,6.9-4.9,12.7-18.7,20.7-23.8s11.3-2.5,15,1.3Z"/>
  <path class="st144" d="M79.2,130c-.9-.3-1.3-1.5-1.9-2-1.2-.9-3.7-1.1-2.9-3,3.2-4,6.2-8.1,9.5-12.1s8.5-8,9.3-13.7l1-.3c.7,1.3,1.6,3,1.6,4.5.2,3.9-6.3,9.8-8.8,12.7s-5.6,6.9-8.6,10.3c-.4.9.3,2.7.8,3.6Z"/>
  <path class="st207" d="M97,142.9l-1.2-.3c-1.3-2.8-11.5-12.7-11.7-14.8s11.4-12.7,12.8-14.7v29.8Z"/>
  <path class="st75" d="M122.2,98c-2.6-1.5-2.4.9-3.4,1s-2.4-1.1-3.2-1.3c.2-.2.5-.2,1,0,.1,0,.2,0,.3,0,1.5.9,2.3.1,2.2-2.3h.8c.9.5,2.1,1.6,2.3,2.6Z"/>
  <path class="st109" d="M119.8,95.3c-1.2,1.5-.3,4.4-3,2.3.6,0,1.1,0,1.7,0v-3c.3.1,1.2.6,1.3.7Z"/>
  <path class="st119" d="M102,153.2c-.6-2.3-.4-5.1-.3-7.4s-.2-1.5.3-1.8c0,3.1-.1,6.2,0,9.3Z"/>
  <path class="st129" d="M133.1,98c-.9,1-.9,1.1-1.3,2.3-.5-.2-.2-.8-.3-1,.5-.6.6-1.6,1.5-1.7l.2.3Z"/>
  <path class="st181" d="M184.3,107.5c-.2.9,1.6,2.2,1.6,2.5s-.5.6-.6,1c-.3,2.1.6,2.5,1.1,4.2,1.1,3.8,1.5,7.1,1.6,11s-.4,2.2-.8,2.1-.6-.8-1-.9-1.2.3-2,.3-1.1-.6-1.7-.7c-2.2-.3-3.3-.3-5.1.8-2-2.7-1.4-6.4-3.2-9.4s-2.9-3.1-3.1-3.2c-.3-.2-.9.1-1.3,0-3.2-.9-6.7-2.3-9.9-2.5l-.6.6h-4.5c-3.4,0-4.1,0-4.4,3.6-.8,9-.4,18.5,1,27.2.5.7.2,3-.7,3.3.2,1.3,1.4,2.5,0,3.8s-3.4.2-4.8.2-2,.7-3.2.3-.8-1.4-1.4-1.6c-1.1-.4-1.9,1-2.5-1.1-1.3-4.1-1.8-6.8-1.9-11s-.9-3.9.9-4.4,2.3.9,3.3,1.2,2.8.2,3.5,0,2.6-1.4,2.7-1.6c1.3-1.9-1.5-6.7-4-6.6s-2.8.3-4,.4-.8.6-1.2.5c-1-.2-2-3-2-4,.1-5.3-.2-10.8,0-16.2s.9-3.4,0-4.8c.7-2.5,3.7-4.5,6.2-4.9,5.9-.8,20.3-.5,25.9,1.3s6.1,2.8,9.1,4.8,3.2,3.4,7,3.7Z"/>
  <path class="st71" d="M169.1,117.5c7.6,5.8,7.7,19,1.3,25.6s-8.6,5.2-13.7,5.4-5.1.6-6.1-1c0-.8.1-2.9.7-3.3.1-.3.2-.3.3,0l.5-.7h6.4c11-1.3,15.2-14,8.8-22.4l.4-.7c-1.3-1.3-.7-4.2,1.3-3Z"/>
  <path class="st14" d="M159.9,112.8c2.8.7,5.2,1.7,7.7,3.1s1.3.7.6.9c-.3.4-.8.5-1.6.2-.7,1-1.7,1.1-3.1.4h-.9s-1.1.5-1.1.5c-2.9-.6-5.8-.6-8.7-.3-.5,7.5-.4,15.1.2,22.6,0,1.2-.1,3.8-1.3,4.1-.1,0-.3,0-.3,0-.7-.3-.8-1-.9-1.6-1.3-5.5-1.2-19.4-.8-25.4s.2-3.2,1.4-3.9,7-.6,8.9-.5Z"/>
  <path class="st17" d="M180.6,127.8c3.5-.8,6.9,3.2,3.9,5.9-2.9,2.6-8.2-.3-6.4-3.8s1.8-2,2.5-2.1Z"/>
  <path class="st107" d="M141.6,127.8c6.6-1.5,6.4,8.4,0,6.7-3.7-1-3.2-6,0-6.7Z"/>
  <path class="st111" d="M168.1,116.8c.3.2.7.4,1,.7-1.5-.5-1.5,2-1.3,3-.9,0-1.8-.4-2.8-1.3-1.2-.4-2.1-.9-2.5-1.7.6-.8,1.8,0,2.4,0,1.4-.2.7-1.8,3.2-.6Z"/>
  <path class="st56" d="M193.3,175c-1.3.7-2.5-.4-4.1-.3s-3.3.5-3.9.6-.3.9-1.1,1c-1.1.1-.9-1-1.8-1.2-1.6-.5-7.3.2-7.3,2.3v9.8c0,.2,2.7,1,3.1,1,1.3,0,2.4-.6,3.6-.7s5.7-.2,6.6,0c1.5.5-.2,1.7-.4,2.1-.4,1.2.7.6,1.3,1.4,0,.3,0,.5-.3.7h-7.2c-.2.9-.3,1.9-.2,2.9l-.7.4c-1-.3,0-1.6-2-.5s-2.9,3.4-4.9,4.1c0-.7,0-1.3,0-2,.3-4.2.6-8.5.7-12.7s0-7,0-10.4c5.7-.5,13.1-.6,18.5,1.3Z"/>
  <path class="st122" d="M138,197.9c.6-1.5-.5-3.2-.7-4.8-.4-4.1.2-8.5.4-12.6s-1.8-7.7,5.2-6.5c.4,0,.8,1,.7-.3,0,.2.3.4.3.7.3,1.8.5,3.6.5,5.5l.5.3c-.3,4.1-.2,8.1.3,12l-.4.8c-.7.9-.5,2.7.3,3.6l-.6.4c-.9-.8-1.5.2-.8.7,2.2,2,5.5,2.8,8.4,3.4l.3.7c-4.8,2.1-10.6,0-14.2-3.3,0,0-.3-.6-.3-.7Z"/>
  <path class="st150" d="M144,174.4c.5,1.9.9,3.7.7,5.6.6,0,.1-.8.4-1.3s1.4-.7,1.7-.8c2-.1,3.3,1.8,5,1.9s1.3,0,2.1,0,.2-.5.7-.8c-.1,3.9,1,11.2-1.7,14s-6.4,2.4-7.9-.1-.5-11.5-.6-14.7-.6-2.5-.3-3.8Z"/>
  <path class="st9" d="M161.8,193.9c-.7,3.9-5.2,8.1-9.3,7.9s-4.9-1.2-5.6-1.5-3.3-2-3.5-2.1c-.8-.8-.4-1.4-.1-2.3.3-.2,1.6.5,2,.7s1,.7,1.3,1c.7.2,1.1.6,1.6,1.2,3.1,0,7.4-.5,8.4-4.1,1-.8,5.5-3.3,5.3-.7Z"/>
  <path class="st165" d="M156.5,194.6c0,1.3-.3,2.9-1.7,3.5s-5.4,1.6-6.1,1.5c-1.6-.1-1.5-1.3-2.1-2,3.8.5,7.3.6,9.6-3h.3Z"/>
  <path class="st58" d="M125.6,172.5c.5.2.7.6.8,1.1.4,1.5.8,6.3.7,7.9s-1.1,6.5-3.6,4.3-1.1-6.2-1-7.6c.2-2.6.6-4.6,3.1-5.7Z"/>
  <path class="st102" d="M45,134.4c3.1-.4,6.3,3.8,3.9,6.5s-8.2.5-7.4-3.4,2.3-3,3.5-3.2Z"/>
  <path class="st85" d="M96.7,192.9c.8.9.2,1.3-2,1.3-.2.2-.4.7-.8,1-3,2-9,3.5-12.1,1-1.2-.4-2.9-3.3-1-3,2.2,2,6.7,1.2,9.2,0,4.3-1.9,2-3.8,6.7-.4Z"/>
  <path class="st51" d="M80.8,193.2c-1,.8.3,2.4,1,3-2.5-.4-2.7-3.9-3-6,1,.6,1.2,2.2,2,3Z"/>
  <path class="st184" d="M99.7,195.2c-.3.7-1,.1-1.4,0-1.2-.4-2.3-.9-3.5-.9,1.1-.9,2.1-.3,2-1.3,1,.7,2,1.6,3,2.3Z"/>
  <path class="st109" d="M116.5,97.6h-1c-3-.8-5.6.1-7.5,2.6s-1,7.5-1.1,10.8-.3,1.5-.4,2.3c-.4,15.3.1,30.6-.3,45.8-1.1-.3-2.4-.2-2.6,1-.2-.4-.2-.9-.3-1.3.5-.6,2.5-.2,2.6-.3.4-.4-.3-2.8-.3-3.5,0-13,.4-26.1.7-39,0-3.8-.8-13.1,1.3-15.9s5.2-3.9,8.9-2.5Z"/>
  <path class="st177" d="M115.9,194.2c1.3-.3,5.5,0,7.1,0s3.2.2,4.3.4,2.2,1.2,2.8,2.3c.2,1-.5.6-1.1.7-2.6.1-10.9.4-12.8-.4s-1.3-2.7-.3-2.9Z"/>
  <path class="st183" d="M34.5,196.9c-.7,1.5-1.6,2-3.3,1.7-1.8.9-2.5-1.6-2.3-3.2.8-5.6,7.6-3.9,5.6,1.5Z"/>
  <path class="st132" d="M34.5,190.3c0,.9.7,2.9.7,4.1s-.2,1.5-.7,2.5c.2-1.7,0-4.1-2.2-4.3-3.4-.3-3.8,5.5-1.1,6-2.4,2.1-3.3.5-3-2.3,0-.2,0-.5,0-.7.8-2.5,1.6-3.4,3.3-5.3.9-.6,2.5-1.2,3,0Z"/>
  <path class="st170" d="M35.2,188.9c0,.4-.7,1-.7,1.3h-3c1.2-1.3,2.1-2.7,3.3-4,.9.5,1.4,2.1.3,2.6Z"/>
  <path class="st127" d="M34.9,186.3c1.8-2.1,1.2.2,3.3,1.3-.9.3-2,1.1-3,1.3.1-.9-.4-1.7-.3-2.6Z"/>
  <path class="st105" d="M189.3,191.3c.1,0,.3,0,.3,0,.9,0,1,.6.3,2,.8,1.1-.4,1.8-1.4,2.2s-6.3.7-6.9.5-.5-.2-.6-.7c0-1.3-.3-2.8.3-3.8.7-.5,6.4,0,8-.1Z"/>
  <path class="st128" d="M181.3,183.6v-.4c2.1-.1,4-.5,5.9-1,.1-.7.4-1,1-.9,0-.1-.1-.5,0-.6.5-.4,1.8-.1,2,.8.4,2-1.1,4.1-3,4.6s-6.1.8-6.5-1,.6-1.1.6-1.4Z"/>
  <path class="st131" d="M187.3,180c.3.4.5,1,1,1.3-.1.4-.3,1-.5,1.3-.8,1-5,.9-6.4,1,0,0-.4-.5-.4-1.1,0-1-.2-2.5.4-3.2,1.6-.5,4.3-.2,6,.7Z"/>
  <path class="st34" d="M189.6,196.9c-.2,0-2.7.3-3.1.3-1.1,0-5.4.3-5.8-.9s.3-.9.3-1.1c.7.2,6-.2,7-.4s1.4-.7,1.9-1.6c0-2.3,1.6-1.7,1.5.5s-.8,2.8-1.9,3.2Z"/>
  <path class="st83" d="M189.6,196.9c1.1-.4,2.1-4,.7-4.6,0,.4-.2.7-.3,1l-.3-2c.4-.2.9-2,2-.2s.3,2.4.3,2.6c-.1,1-1.1,3.1-2.3,3.2Z"/>
  <path class="st69" d="M187.3,180c-1.8-.4-4.3-.2-6-.7s-1.2-.4-1-1c2.6.8,5-.6,6.9,1.7Z"/>
  <path class="st159" d="M75.9,40.4c.9,1.3,1.9,3.1,3.1,4.2s5.6,3.3.7,3.1c-3.1-.1-6.2-1.5-9.4-1,1.2-.3,2.2-.1,3.1-.4,1.3-.4.7-2,1-2.9s1.2-2.1,1.5-3Z"/>
  <path class="st13" d="M112.8,127.5c3.4-.9,6.6,1.8,4.7,5-3,5-9.1.6-6.7-3.4s1.5-1.5,2-1.6Z"/>
  <path class="st109" d="M113.1,98.1c4.1,0,4,7.6-1,6.8-3.6-.5-3.4-6.8,1-6.8Z"/>
  <path class="st103" d="M95,119.5c-.1,3.2-.4,6.3-.3,9.4s.8,4.8.2,7.1,0,.8-.7.6l-6.1-8.1c-.2-.3-.4-.6-.3-1,0-.7,4.7-5.2,5.1-6.5l2.2-1.6Z"/>
  <path class="st188" d="M162.5,117.5c2.2.6,3.6,1.4,5.3,3,.1.6,1.5,2.3,1.9,3.2,3.6,8.5-.4,18.3-9.8,20.2-2.7.6-5.9,0-8.4.4.3-1.2.6-2.9.7-4.1,0-1.9-.3-3.6-.4-5.3s-.2-17.1.3-17.9c3.4-.4,7-.5,10.3.5Z"/>
  <path class="st162" d="M156.9,122.8c0-.2-.1-.7.2-.7,12.4.3,11.7,16.7-.2,16.9,0-1,.3-1.9.3-3,0-2.9,1.1-2.7,2.2,0,1.7,2.3,6.6-6.6,4.4-8.6-1,.2-3.2-2-3.3-3-.6-.6-1.2-.6-1.9-.7-.1,1.4-.6,2.1-1.5,2.1l-.2-3.1Z"/>
  <path class="st22" d="M156.9,122.8l.3,2.6c.9-.2.3-2,1.2-2.3s1.7.6,2.1,1.3c-.1.2-.2.5-.5.5-.8.1-.4,10,.3,10.4,1.2.7,3.6-6.2,2.9-7.5l.6-.5c.2.2.7.3.9.9.7,2.5-2.5,8.3-5.4,8.7-.4-1-.8-2.1-1.8-2.7l-.3,1.7c.1-3.9-.7-9.8-.3-13.2Z"/>
  <path class="st19" d="M160.5,124.4c1.2.5,2.5,1.9,3.3,3,.3,2.5-.5,6.8-2.8,8.3s-1.6-.8-1.8-2.2c-.5-3.2-.3-6.2,0-9.4,0,0,1.1.2,1.3.3Z"/>
</svg>